STARTFONT 2.1
COMMENT Font converted from OTF to BDF.
FONT -FreeType-Hack Nerd Font Mono-Medium-R-Normal--32-240-96-96-P-181-ISO10646-1
SIZE 24 96 96
FONTBOUNDINGBOX 36 40 -15 -8
STARTPROPERTIES 19
POINT_SIZE 240
PIXEL_SIZE 32
RESOLUTION_X 96
RESOLUTION_Y 96
FONT_ASCENT 29
FONT_DESCENT 7
AVERAGE_WIDTH 181
SPACING "P"
FOUNDRY "FreeType"
FAMILY_NAME "Hack Nerd Font Mono"
CHARSET_REGISTRY "ISO10646"
CHARSET_ENCODING "1"
WEIGHT_NAME "Medium"
SLANT "R"
SETWIDTH_NAME "Normal"
COPYRIGHT "Copyright (c) 2018 Source Foundry Authors / Copyright (c) 2003 by Bitstream, Inc. All Rights Reserved."
_TTF_PSNAME "HackNerdFontCompleteM-Regular"
_OTF_FONTFILE "Hack Regular Nerd Font Complete Mono.ttf"
_GBDFED_INFO "Edited with gbdfed 1.6."
ENDPROPERTIES
CHARS 5656
STARTCHAR char0
ENCODING 0
SWIDTH 24 0
DWIDTH 19 0
BBX 0 0 0 0
BITMAP
ENDCHAR
STARTCHAR char13
ENCODING 13
SWIDTH 24 0
DWIDTH 19 0
BBX 0 0 0 0
BITMAP
ENDCHAR
STARTCHAR char32
ENCODING 32
SWIDTH 24 0
DWIDTH 19 0
BBX 0 0 0 0
BITMAP
ENDCHAR
STARTCHAR char33
ENCODING 33
SWIDTH 24 0
DWIDTH 19 0
BBX 5 23 7 0
BITMAP
78
78
78
78
78
78
78
78
78
70
70
70
70
70
30
30
00
00
70
F8
F8
F8
70
ENDCHAR
STARTCHAR char34
ENCODING 34
SWIDTH 24 0
DWIDTH 19 0
BBX 9 9 5 14
BITMAP
E380
E380
E380
E380
E380
E380
E380
E380
E380
ENDCHAR
STARTCHAR char35
ENCODING 35
SWIDTH 24 0
DWIDTH 19 0
BBX 19 23 0 0
BITMAP
00E380
00C380
00C300
01C300
01C700
018700
018600
3FFFE0
3FFFE0
030E00
030C00
070C00
071C00
061C00
FFFF80
FFFF80
0E3800
0C3800
0C3000
1C3000
1C7000
187000
386000
ENDCHAR
STARTCHAR char36
ENCODING 36
SWIDTH 24 0
DWIDTH 19 0
BBX 14 29 3 -5
BITMAP
0300
0300
0300
0300
1FF0
7FF8
7318
E300
E300
E300
E300
F300
7F00
3FE0
07F8
033C
031C
031C
031C
031C
C31C
FBF8
FFF0
1FE0
0300
0300
0300
0300
0300
ENDCHAR
STARTCHAR char37
ENCODING 37
SWIDTH 24 0
DWIDTH 19 0
BBX 18 22 1 0
BITMAP
7E0000
FF0000
E38000
C18000
C1C000
C18000
E38040
FF83C0
7E0F00
007C00
01E000
0F8000
3C1E00
F07F00
80F780
00C180
00C0C0
00C1C0
00C1C0
00F780
007F00
001E00
ENDCHAR
STARTCHAR char38
ENCODING 38
SWIDTH 24 0
DWIDTH 19 0
BBX 18 23 1 0
BITMAP
03F000
0FF800
1F7800
1C0800
180000
180000
1C0000
1C0000
0E0000
1F0000
3B8000
7381C0
61C1C0
E0E1C0
E07180
E07980
E03B80
E01F00
F00F00
780F00
3F7F00
1FFB80
07E3C0
ENDCHAR
STARTCHAR char39
ENCODING 39
SWIDTH 24 0
DWIDTH 19 0
BBX 3 9 8 14
BITMAP
E0
E0
E0
E0
E0
E0
E0
E0
E0
ENDCHAR
STARTCHAR char40
ENCODING 40
SWIDTH 24 0
DWIDTH 19 0
BBX 7 28 5 -4
BITMAP
0E
1C
18
38
38
70
70
70
E0
E0
E0
E0
E0
E0
E0
E0
E0
E0
E0
E0
60
70
70
30
38
18
1C
0E
ENDCHAR
STARTCHAR char41
ENCODING 41
SWIDTH 24 0
DWIDTH 19 0
BBX 8 28 7 -4
BITMAP
E0
70
30
38
18
1C
1C
0E
0E
0E
0E
0E
07
07
07
07
0F
0E
0E
0E
0E
0C
1C
1C
38
38
30
F0
ENDCHAR
STARTCHAR char42
ENCODING 42
SWIDTH 24 0
DWIDTH 19 0
BBX 15 16 2 6
BITMAP
0100
0100
0180
0180
0180
E38E
FFFE
1FF8
07C0
07C0
06E0
0E60
1C70
1838
3018
1010
ENDCHAR
STARTCHAR char43
ENCODING 43
SWIDTH 24 0
DWIDTH 19 0
BBX 17 17 1 2
BITMAP
01C000
01C000
01C000
01C000
01C000
01C000
01C000
01C000
FFFF80
FFFF80
01C000
01C000
01C000
01C000
01C000
01C000
01C000
ENDCHAR
STARTCHAR char44
ENCODING 44
SWIDTH 24 0
DWIDTH 19 0
BBX 6 12 6 -6
BITMAP
38
7C
7C
7C
3C
0C
0C
1C
18
30
E0
40
ENDCHAR
STARTCHAR char45
ENCODING 45
SWIDTH 24 0
DWIDTH 19 0
BBX 13 2 3 8
BITMAP
FFF8
FFF8
ENDCHAR
STARTCHAR char46
ENCODING 46
SWIDTH 24 0
DWIDTH 19 0
BBX 5 5 7 0
BITMAP
70
F8
F8
F8
70
ENDCHAR
STARTCHAR char47
ENCODING 47
SWIDTH 24 0
DWIDTH 19 0
BBX 15 26 2 -3
BITMAP
000E
001C
001C
0038
0038
0070
0070
00E0
00E0
01C0
01C0
01C0
0380
0380
0700
0700
0E00
0E00
1C00
1C00
3800
3800
7000
7000
F000
E000
ENDCHAR
STARTCHAR char48
ENCODING 48
SWIDTH 24 0
DWIDTH 19 0
BBX 15 23 2 0
BITMAP
07C0
1FF0
3EF8
383C
701C
711C
718E
F38E
E38E
E38E
E38E
E38E
E38E
E38E
E18E
F10E
700E
701C
701C
383C
3EF8
1FF0
07C0
ENDCHAR
STARTCHAR char49
ENCODING 49
SWIDTH 24 0
DWIDTH 19 0
BBX 13 23 4 0
BITMAP
0700
0F00
1F00
3F00
7F00
F700
E700
4700
0700
0700
0700
0700
0700
0700
0700
0700
0700
0700
0700
0700
FFF8
FFF8
FFF8
ENDCHAR
STARTCHAR char50
ENCODING 50
SWIDTH 24 0
DWIDTH 19 0
BBX 15 23 2 0
BITMAP
1FC0
7FF0
7DF8
603C
801C
001C
001C
001C
001C
003C
0038
0070
00F0
01E0
03C0
0780
0F00
1E00
3C00
7800
F000
FFFE
FFFE
ENDCHAR
STARTCHAR char51
ENCODING 51
SWIDTH 24 0
DWIDTH 19 0
BBX 15 23 2 0
BITMAP
1FC0
7FF0
7CF8
403C
001C
001E
001C
001C
003C
0FF0
0FE0
01F8
003C
001E
000E
000E
000E
000E
001E
C03C
FDFC
FFF8
3FC0
ENDCHAR
STARTCHAR char52
ENCODING 52
SWIDTH 24 0
DWIDTH 19 0
BBX 16 23 2 0
BITMAP
0078
00F8
01F8
01F8
03F8
0778
0678
0E78
1C78
1C78
3878
3078
7078
E078
C078
FFFF
FFFF
FFFF
0078
0078
0078
0078
0078
ENDCHAR
STARTCHAR char53
ENCODING 53
SWIDTH 24 0
DWIDTH 19 0
BBX 15 23 2 0
BITMAP
7FF8
7FF8
7000
7000
7000
7000
7000
7FC0
7FF0
7BF8
403C
001C
001C
001E
000E
001E
001E
001C
001C
803C
FFF8
FFF0
3FC0
ENDCHAR
STARTCHAR char54
ENCODING 54
SWIDTH 24 0
DWIDTH 19 0
BBX 15 23 2 0
BITMAP
03F0
0FF8
1F38
3800
7000
7000
6000
E3E0
EFF8
FFFC
F81C
F01E
F00E
F00E
F00E
F00E
F00E
700E
701E
381C
3FFC
1FF8
07E0
ENDCHAR
STARTCHAR char55
ENCODING 55
SWIDTH 24 0
DWIDTH 19 0
BBX 15 23 2 0
BITMAP
FFFE
FFFE
001C
001C
001C
0038
0038
0070
0070
0070
00E0
00E0
01E0
01C0
01C0
0380
0380
0780
0700
0700
0E00
0E00
1E00
ENDCHAR
STARTCHAR char56
ENCODING 56
SWIDTH 24 0
DWIDTH 19 0
BBX 15 23 2 0
BITMAP
0FE0
3FF8
7EFC
781C
701E
700E
701E
701C
383C
1FF0
0FF0
3EF8
781C
701E
E00E
E00E
E00E
E00E
F01E
781E
7EFC
3FF8
0FE0
ENDCHAR
STARTCHAR char57
ENCODING 57
SWIDTH 24 0
DWIDTH 19 0
BBX 15 23 2 0
BITMAP
0FC0
3FF0
7EF8
703C
F01C
E01C
E00E
E00E
E01E
E01E
701E
787E
3FEE
1FCE
000E
000E
001E
001C
003C
4078
3DF8
3FE0
1F80
ENDCHAR
STARTCHAR char58
ENCODING 58
SWIDTH 24 0
DWIDTH 19 0
BBX 5 16 7 2
BITMAP
70
F8
F8
F8
70
00
00
00
00
00
00
70
F8
F8
F8
70
ENDCHAR
STARTCHAR char59
ENCODING 59
SWIDTH 24 0
DWIDTH 19 0
BBX 7 24 6 -7
BITMAP
38
7C
7C
7C
7C
38
00
00
00
00
00
00
38
7C
7E
7E
3E
0E
0C
0C
1C
38
F0
40
ENDCHAR
STARTCHAR char60
ENCODING 60
SWIDTH 24 0
DWIDTH 19 0
BBX 17 16 1 2
BITMAP
000080
000780
001F80
00FF00
03F800
1FC000
7F0000
F80000
F80000
7F0000
1FC000
03F800
007F00
001F80
000380
000080
ENDCHAR
STARTCHAR char61
ENCODING 61
SWIDTH 24 0
DWIDTH 19 0
BBX 17 9 1 6
BITMAP
FFFF80
FFFF80
000000
000000
000000
000000
000000
FFFF80
FFFF80
ENDCHAR
STARTCHAR char62
ENCODING 62
SWIDTH 24 0
DWIDTH 19 0
BBX 17 16 1 2
BITMAP
800000
F00000
FC0000
3F8000
0FE000
01FC00
003F80
000F80
000F80
003F00
01FC00
0FE000
3F8000
FC0000
F00000
800000
ENDCHAR
STARTCHAR char63
ENCODING 63
SWIDTH 24 0
DWIDTH 19 0
BBX 12 23 4 0
BITMAP
1F80
FFE0
FBF0
C0F0
8070
0070
0070
00E0
01E0
03C0
0700
0E00
0E00
0E00
0E00
0000
0000
0000
0E00
1E00
1F00
1E00
0E00
ENDCHAR
STARTCHAR char64
ENCODING 64
SWIDTH 24 0
DWIDTH 19 0
BBX 18 27 0 -5
BITMAP
00FC00
03FF00
0FDF80
1E0380
1C01C0
3800C0
3000C0
707EC0
60FFC0
61E3C0
61C1C0
E180C0
E380C0
E380C0
E380C0
6180C0
61C1C0
61E3C0
70FFC0
707EC0
380000
380000
1C0000
0F0000
07F700
03FF00
007F00
ENDCHAR
STARTCHAR char65
ENCODING 65
SWIDTH 24 0
DWIDTH 19 0
BBX 18 23 1 0
BITMAP
01E000
03E000
03E000
037000
077000
077000
073800
0E3800
0E3800
0E1C00
1C1C00
1C1C00
1C1C00
1C0E00
3FFE00
3FFE00
3FFF00
700700
700700
700780
F00380
E00380
E003C0
ENDCHAR
STARTCHAR char66
ENCODING 66
SWIDTH 24 0
DWIDTH 19 0
BBX 15 23 3 0
BITMAP
FFC0
FFF0
E1F8
E03C
E01C
E01C
E01C
E03C
E038
E1F8
FFE0
FFF0
E078
E01C
E01C
E00E
E00E
E01E
E01E
E01C
E1FC
FFF8
FFE0
ENDCHAR
STARTCHAR char67
ENCODING 67
SWIDTH 24 0
DWIDTH 19 0
BBX 15 23 2 0
BITMAP
03F8
0FFE
1FBE
3C06
3800
7800
7000
7000
F000
F000
E000
E000
E000
F000
F000
7000
7000
7800
3800
3C02
1FBE
0FFE
03F8
ENDCHAR
STARTCHAR char68
ENCODING 68
SWIDTH 24 0
DWIDTH 19 0
BBX 15 23 2 0
BITMAP
FF80
FFE0
E7F0
E078
E03C
E01C
E01E
E00E
E00E
E00E
E00E
E00E
E00E
E00E
E00E
E00E
E01E
E01C
E03C
E078
E7F0
FFE0
FF80
ENDCHAR
STARTCHAR char69
ENCODING 69
SWIDTH 24 0
DWIDTH 19 0
BBX 14 23 3 0
BITMAP
FFFC
FFFC
E000
E000
E000
E000
E000
E000
E000
E000
FFF8
FFF8
E000
E000
E000
E000
E000
E000
E000
E000
E000
FFFC
FFFC
ENDCHAR
STARTCHAR char70
ENCODING 70
SWIDTH 24 0
DWIDTH 19 0
BBX 13 23 4 0
BITMAP
FFF8
FFF8
E000
E000
E000
E000
E000
E000
E000
E000
FFF0
FFF0
E000
E000
E000
E000
E000
E000
E000
E000
E000
E000
E000
ENDCHAR
STARTCHAR char71
ENCODING 71
SWIDTH 24 0
DWIDTH 19 0
BBX 15 23 2 0
BITMAP
03F0
0FFC
1F3C
3C04
7802
7000
F000
E000
E000
E000
E000
E07E
E07E
E00E
E00E
E00E
F00E
700E
780E
380E
3F7E
0FFC
03F0
ENDCHAR
STARTCHAR char72
ENCODING 72
SWIDTH 24 0
DWIDTH 19 0
BBX 15 23 2 0
BITMAP
E00E
E00E
E00E
E00E
E00E
E00E
E00E
E00E
E00E
E00E
FFFE
FFFE
E00E
E00E
E00E
E00E
E00E
E00E
E00E
E00E
E00E
E00E
E00E
ENDCHAR
STARTCHAR char73
ENCODING 73
SWIDTH 24 0
DWIDTH 19 0
BBX 13 23 3 0
BITMAP
FFF8
FFF8
0700
0700
0700
0700
0700
0700
0700
0700
0700
0700
0700
0700
0700
0700
0700
0700
0700
0700
0700
FFF8
FFF8
ENDCHAR
STARTCHAR char74
ENCODING 74
SWIDTH 24 0
DWIDTH 19 0
BBX 13 23 2 0
BITMAP
0FF8
0FF8
0038
0038
0038
0038
0038
0038
0038
0038
0038
0038
0038
0038
0038
0038
0038
0038
8078
C070
FBF0
FFE0
3F80
ENDCHAR
STARTCHAR char75
ENCODING 75
SWIDTH 24 0
DWIDTH 19 0
BBX 17 23 2 0
BITMAP
E00780
E00E00
E01E00
E03C00
E07800
E0F000
E1E000
E3C000
E78000
EF0000
FF0000
FF8000
FBC000
F1E000
E0E000
E0F000
E07800
E03800
E03C00
E01E00
E00E00
E00F00
E00780
ENDCHAR
STARTCHAR char76
ENCODING 76
SWIDTH 24 0
DWIDTH 19 0
BBX 15 23 3 0
BITMAP
F000
F000
F000
F000
F000
F000
F000
F000
F000
F000
F000
F000
F000
F000
F000
F000
F000
F000
F000
F000
FFFE
FFFE
FFFE
ENDCHAR
STARTCHAR char77
ENCODING 77
SWIDTH 24 0
DWIDTH 19 0
BBX 17 23 1 0
BITMAP
F80F80
F80F80
F80F80
FC1F80
EC1B80
EC1B80
E63B80
E63380
E63380
E37380
E36380
E3E380
E1E380
E1C380
E1C380
E00380
E00380
E00380
E00380
E00380
E00380
E00380
E00380
ENDCHAR
STARTCHAR char78
ENCODING 78
SWIDTH 24 0
DWIDTH 19 0
BBX 15 23 2 0
BITMAP
F00E
F80E
F80E
FC0E
FC0E
EC0E
EE0E
E60E
E70E
E70E
E38E
E38E
E18E
E1CE
E0CE
E0EE
E0EE
E06E
E07E
E03E
E03E
E03E
E01E
ENDCHAR
STARTCHAR char79
ENCODING 79
SWIDTH 24 0
DWIDTH 19 0
BBX 15 23 2 0
BITMAP
07E0
1FF0
3EF8
783C
701C
701E
F00E
E00E
E00E
E00E
E00E
E00E
E00E
E00E
E00E
E00E
F00E
701E
701C
783C
3EF8
1FF0
07E0
ENDCHAR
STARTCHAR char80
ENCODING 80
SWIDTH 24 0
DWIDTH 19 0
BBX 14 23 3 0
BITMAP
FFC0
FFF0
E1F8
E03C
E01C
E01C
E01C
E01C
E01C
E03C
E078
FFF8
FFE0
E000
E000
E000
E000
E000
E000
E000
E000
E000
E000
ENDCHAR
STARTCHAR char81
ENCODING 81
SWIDTH 24 0
DWIDTH 19 0
BBX 17 28 2 -5
BITMAP
07E000
1FF000
3EF800
783C00
701C00
701E00
F00E00
E00E00
E00E00
E00E00
E00E00
E00E00
E00E00
E00E00
E00E00
E00E00
F00E00
701E00
701C00
783C00
3EF800
1FF000
07E000
007000
003800
001C00
000E00
000780
ENDCHAR
STARTCHAR char82
ENCODING 82
SWIDTH 24 0
DWIDTH 19 0
BBX 17 23 2 0
BITMAP
FFC000
FFF000
E1F800
E03C00
E01C00
E01E00
E01E00
E01E00
E01C00
E03C00
E1F800
FFE000
FFE000
E07000
E03800
E03C00
E01C00
E01E00
E00E00
E00F00
E00700
E00780
E00380
ENDCHAR
STARTCHAR char83
ENCODING 83
SWIDTH 24 0
DWIDTH 19 0
BBX 15 23 2 0
BITMAP
07F0
1FFC
3FFC
700C
F000
E000
E000
E000
F000
7E00
3FE0
1FF8
01FC
003E
001E
000E
000E
000E
800E
C01E
FCFC
FFF8
1FE0
ENDCHAR
STARTCHAR char84
ENCODING 84
SWIDTH 24 0
DWIDTH 19 0
BBX 18 23 1 0
BITMAP
FFFFC0
FFFFC0
01C000
01C000
01C000
01C000
01C000
01C000
01C000
01C000
01C000
01C000
01C000
01C000
01C000
01C000
01C000
01C000
01C000
01C000
01C000
01C000
01C000
ENDCHAR
STARTCHAR char85
ENCODING 85
SWIDTH 24 0
DWIDTH 19 0
BBX 15 23 2 0
BITMAP
E00E
E00E
E00E
E00E
E00E
E00E
E00E
E00E
E00E
E00E
E00E
E00E
E00E
E00E
E00E
E00E
E00E
F00E
701E
701C
3EFC
1FF8
0FE0
ENDCHAR
STARTCHAR char86
ENCODING 86
SWIDTH 24 0
DWIDTH 19 0
BBX 17 23 1 0
BITMAP
E00380
F00380
700780
700700
700700
380700
380E00
380E00
380E00
1C0E00
1C1C00
1C1C00
0E1C00
0E3800
0E3800
0E3800
073000
077000
077000
037000
03E000
03E000
01E000
ENDCHAR
STARTCHAR char87
ENCODING 87
SWIDTH 24 0
DWIDTH 19 0
BBX 19 23 0 0
BITMAP
E000E0
E000E0
E000E0
6000E0
7000E0
7000C0
70E1C0
70F1C0
71F1C0
71F1C0
31B1C0
31B1C0
39B980
3B9980
3B1B80
3B1B80
3B1B80
1B1F80
1F0F00
1E0F00
1E0F00
1E0F00
1E0700
ENDCHAR
STARTCHAR char88
ENCODING 88
SWIDTH 24 0
DWIDTH 19 0
BBX 19 23 0 0
BITMAP
7801C0
3C03C0
1C0380
0E0700
0E0F00
070E00
079C00
039C00
01F800
01F000
00F000
00F000
01F000
03F800
039C00
071C00
0F0E00
0E0F00
1E0700
1C0380
380380
7801C0
F001E0
ENDCHAR
STARTCHAR char89
ENCODING 89
SWIDTH 24 0
DWIDTH 19 0
BBX 18 23 1 0
BITMAP
E003C0
F00780
700700
380F00
380E00
1C1C00
1E1C00
0E3800
073800
077000
03F000
03E000
01C000
01C000
01C000
01C000
01C000
01C000
01C000
01C000
01C000
01C000
01C000
ENDCHAR
STARTCHAR char90
ENCODING 90
SWIDTH 24 0
DWIDTH 19 0
BBX 16 23 2 0
BITMAP
FFFE
FFFE
000E
001C
003C
0038
0070
00F0
00E0
01C0
03C0
0380
0700
0F00
0E00
1C00
3C00
3800
7000
7000
E000
FFFF
FFFF
ENDCHAR
STARTCHAR char91
ENCODING 91
SWIDTH 24 0
DWIDTH 19 0
BBX 10 30 5 -4
BITMAP
FFC0
FFC0
E000
E000
E000
E000
E000
E000
E000
E000
E000
E000
E000
E000
E000
E000
E000
E000
E000
E000
E000
E000
E000
E000
E000
E000
E000
E000
FFC0
FFC0
ENDCHAR
STARTCHAR char92
ENCODING 92
SWIDTH 24 0
DWIDTH 19 0
BBX 15 26 2 -3
BITMAP
E000
7000
7000
3800
3800
1C00
1C00
1C00
0E00
0E00
0700
0700
0380
0380
01C0
01C0
00E0
00E0
0070
0070
0030
0038
0038
001C
001C
000E
ENDCHAR
STARTCHAR char93
ENCODING 93
SWIDTH 24 0
DWIDTH 19 0
BBX 10 30 4 -4
BITMAP
FFC0
FFC0
01C0
01C0
01C0
01C0
01C0
01C0
01C0
01C0
01C0
01C0
01C0
01C0
01C0
01C0
01C0
01C0
01C0
01C0
01C0
01C0
01C0
01C0
01C0
01C0
01C0
01C0
FFC0
FFC0
ENDCHAR
STARTCHAR char94
ENCODING 94
SWIDTH 24 0
DWIDTH 19 0
BBX 17 9 1 15
BITMAP
01C000
03E000
03F000
077800
0E3800
1C1C00
380E00
700700
E00380
ENDCHAR
STARTCHAR char95
ENCODING 95
SWIDTH 24 0
DWIDTH 19 0
BBX 17 2 1 -5
BITMAP
FFFF80
FFFF80
ENDCHAR
STARTCHAR char96
ENCODING 96
SWIDTH 24 0
DWIDTH 19 0
BBX 8 6 4 20
BITMAP
F0
38
38
1C
0E
07
ENDCHAR
STARTCHAR char97
ENCODING 97
SWIDTH 24 0
DWIDTH 19 0
BBX 16 18 2 0
BITMAP
0FE0
7FF0
7EF8
401C
001C
000C
000E
1FFE
3FFE
780E
F00E
E01E
E01E
E01E
F03E
7DFE
3FEE
1F8F
ENDCHAR
STARTCHAR char98
ENCODING 98
SWIDTH 24 0
DWIDTH 19 0
BBX 14 24 3 0
BITMAP
E000
E000
E000
E000
E000
E000
E7C0
EFF0
FEF8
F038
F03C
E01C
E01C
E01C
E01C
E01C
E01C
E01C
E01C
F03C
F038
FEF8
EFF0
E7C0
ENDCHAR
STARTCHAR char99
ENCODING 99
SWIDTH 24 0
DWIDTH 19 0
BBX 13 18 3 0
BITMAP
07E0
1FF8
3F78
7808
F000
E000
E000
E000
E000
E000
E000
E000
E000
F000
7808
3F78
1FF8
07E0
ENDCHAR
STARTCHAR char100
ENCODING 100
SWIDTH 24 0
DWIDTH 19 0
BBX 14 24 2 0
BITMAP
001C
001C
001C
001C
001C
001C
0F9C
1FDC
3EFC
703C
701C
E01C
E01C
E01C
E01C
E01C
E01C
E01C
E01C
701C
703C
3EFC
3FEC
0F8C
ENDCHAR
STARTCHAR char101
ENCODING 101
SWIDTH 24 0
DWIDTH 19 0
BBX 15 18 2 0
BITMAP
07E0
1FF8
3F7C
781C
700E
E00E
E00E
FFFE
FFFE
E000
E000
E000
E000
7000
7806
3F7E
1FFE
07F0
ENDCHAR
STARTCHAR char102
ENCODING 102
SWIDTH 24 0
DWIDTH 19 0
BBX 13 24 3 0
BITMAP
01F8
07F8
0780
0E00
0E00
0E00
FFF8
FFF8
0E00
0E00
0E00
0E00
0E00
0E00
0E00
0E00
0E00
0E00
0E00
0E00
0E00
0E00
0E00
0E00
ENDCHAR
STARTCHAR char103
ENCODING 103
SWIDTH 24 0
DWIDTH 19 0
BBX 15 25 2 -7
BITMAP
07CE
1FEE
3EFE
383E
701E
701E
700E
E00E
E00E
E00E
E00E
700E
701E
701E
383E
3EFE
1FEE
0FCE
000E
000C
001C
201C
3EF8
3FF0
0FC0
ENDCHAR
STARTCHAR char104
ENCODING 104
SWIDTH 24 0
DWIDTH 19 0
BBX 13 24 3 0
BITMAP
E000
E000
E000
E000
E000
E000
E3E0
EFF0
FFF8
F038
F038
E038
E018
E018
E018
E018
E018
E018
E018
E018
E018
E018
E018
E018
ENDCHAR
STARTCHAR char105
ENCODING 105
SWIDTH 24 0
DWIDTH 19 0
BBX 13 24 4 0
BITMAP
0E00
0E00
0E00
0E00
0000
0000
FE00
FE00
0E00
0E00
0E00
0E00
0E00
0E00
0E00
0E00
0E00
0E00
0E00
0E00
0F00
0780
03F8
01F8
ENDCHAR
STARTCHAR char106
ENCODING 106
SWIDTH 24 0
DWIDTH 19 0
BBX 9 31 4 -7
BITMAP
0380
0380
0380
0380
0000
0000
7F80
7F80
0380
0380
0380
0380
0380
0380
0380
0380
0380
0380
0380
0380
0380
0380
0380
0380
0380
0380
0380
0380
0F00
FE00
FC00
ENDCHAR
STARTCHAR char107
ENCODING 107
SWIDTH 24 0
DWIDTH 19 0
BBX 15 24 4 0
BITMAP
E000
E000
E000
E000
E000
E000
E03C
E070
E0E0
E1C0
E380
E700
EE00
FE00
FF00
F780
E380
E1C0
E1E0
E0E0
E070
E078
E03C
E01E
ENDCHAR
STARTCHAR char108
ENCODING 108
SWIDTH 24 0
DWIDTH 19 0
BBX 13 24 3 0
BITMAP
FE00
FE00
0E00
0E00
0E00
0E00
0E00
0E00
0E00
0E00
0E00
0E00
0E00
0E00
0E00
0E00
0E00
0E00
0E00
0700
0700
07C0
03F8
01F8
ENDCHAR
STARTCHAR char109
ENCODING 109
SWIDTH 24 0
DWIDTH 19 0
BBX 16 18 2 0
BITMAP
CE3C
DF7E
F7FE
E386
C387
C387
C387
C387
C387
C387
C387
C387
C387
C387
C387
C387
C387
C387
ENDCHAR
STARTCHAR char110
ENCODING 110
SWIDTH 24 0
DWIDTH 19 0
BBX 13 18 3 0
BITMAP
E3E0
EFF0
FEF8
F038
F038
E038
E018
E018
E018
E018
E018
E018
E018
E018
E018
E018
E018
E018
ENDCHAR
STARTCHAR char111
ENCODING 111
SWIDTH 24 0
DWIDTH 19 0
BBX 15 18 2 0
BITMAP
07E0
1FF0
3EF8
783C
701C
700E
E00E
E00E
E00E
E00E
E00E
E00E
F00E
701C
783C
3EF8
1FF0
07E0
ENDCHAR
STARTCHAR char112
ENCODING 112
SWIDTH 24 0
DWIDTH 19 0
BBX 14 25 3 -7
BITMAP
E7C0
EFF0
FFF8
F838
F03C
E01C
E01C
E01C
E01C
E01C
E01C
E01C
E01C
F03C
F038
FFF8
EFF0
E7C0
E000
E000
E000
E000
E000
E000
E000
ENDCHAR
STARTCHAR char113
ENCODING 113
SWIDTH 24 0
DWIDTH 19 0
BBX 14 25 2 -7
BITMAP
0F8C
1FEC
3EEC
783C
701C
701C
E01C
E00C
E00C
E00C
E01C
E01C
701C
701C
783C
3EEC
1FEC
0F8C
000C
000C
000C
000C
000C
000C
000C
ENDCHAR
STARTCHAR char114
ENCODING 114
SWIDTH 24 0
DWIDTH 19 0
BBX 12 18 5 0
BITMAP
C3F0
CFF0
FFF0
F810
F000
E000
E000
E000
E000
E000
E000
E000
E000
E000
E000
E000
E000
E000
ENDCHAR
STARTCHAR char115
ENCODING 115
SWIDTH 24 0
DWIDTH 19 0
BBX 13 18 3 0
BITMAP
0FE0
3FF0
7DF0
7010
E000
E000
7000
7E00
3FE0
0FF0
00F8
0038
0038
0038
C078
FDF0
FFE0
3F80
ENDCHAR
STARTCHAR char116
ENCODING 116
SWIDTH 24 0
DWIDTH 19 0
BBX 14 24 2 0
BITMAP
0100
0700
0700
0700
0700
0700
FFFC
FFFC
0700
0700
0700
0700
0700
0700
0700
0700
0700
0700
0700
0700
0700
07C0
03FC
01FC
ENDCHAR
STARTCHAR char117
ENCODING 117
SWIDTH 24 0
DWIDTH 19 0
BBX 13 18 3 0
BITMAP
E018
E018
E018
E018
E018
E018
E018
E018
E018
E018
E038
E038
E038
E038
F078
7FD8
3F98
1F18
ENDCHAR
STARTCHAR char118
ENCODING 118
SWIDTH 24 0
DWIDTH 19 0
BBX 16 18 2 0
BITMAP
E007
E00E
E00E
700E
701C
701C
3818
3838
3838
1C30
1C70
0C70
0E60
0EE0
06E0
07C0
07C0
03C0
ENDCHAR
STARTCHAR char119
ENCODING 119
SWIDTH 24 0
DWIDTH 19 0
BBX 19 18 0 0
BITMAP
E000E0
E000E0
6000E0
7000C0
7001C0
70E1C0
70E1C0
30E1C0
38F180
39B380
39B380
199B80
1B1B00
1F1B00
1F1F00
0F0F00
0E0F00
0E0E00
ENDCHAR
STARTCHAR char120
ENCODING 120
SWIDTH 24 0
DWIDTH 19 0
BBX 17 18 1 0
BITMAP
700700
380E00
1C1E00
1C1C00
0E3800
077800
03F000
03E000
01C000
03E000
03F000
077000
0E3800
1E1C00
1C1C00
380E00
780700
F00780
ENDCHAR
STARTCHAR char121
ENCODING 121
SWIDTH 24 0
DWIDTH 19 0
BBX 16 25 2 -7
BITMAP
E007
E00E
700E
700E
701C
381C
381C
3838
1C38
1C30
0C70
0E70
0EE0
07E0
07E0
07C0
03C0
03C0
0380
0380
0700
0700
1E00
7E00
7800
ENDCHAR
STARTCHAR char122
ENCODING 122
SWIDTH 24 0
DWIDTH 19 0
BBX 13 18 3 0
BITMAP
7FF8
7FF8
0038
0078
0070
00E0
01C0
03C0
0780
0700
0E00
1C00
3C00
3800
7000
E000
FFF8
FFF8
ENDCHAR
STARTCHAR char123
ENCODING 123
SWIDTH 24 0
DWIDTH 19 0
BBX 13 30 2 -4
BITMAP
00F8
01F8
03E0
0380
0380
0380
0380
0380
0380
0380
0380
0780
0700
0F00
FE00
FC00
3F00
0700
0700
0380
0380
0380
0380
0380
0380
0380
0380
03E0
01F8
00F8
ENDCHAR
STARTCHAR char124
ENCODING 124
SWIDTH 24 0
DWIDTH 19 0
BBX 3 32 8 -8
BITMAP
E0
E0
E0
E0
E0
E0
E0
E0
E0
E0
E0
E0
E0
E0
E0
E0
E0
E0
E0
E0
E0
E0
E0
E0
E0
E0
E0
E0
E0
E0
E0
E0
ENDCHAR
STARTCHAR char125
ENCODING 125
SWIDTH 24 0
DWIDTH 19 0
BBX 13 30 4 -4
BITMAP
F800
FE00
3E00
0E00
0600
0700
0700
0700
0700
0700
0700
0700
0700
07C0
03F8
01F8
03F0
0780
0700
0700
0700
0700
0700
0700
0700
0700
0E00
3E00
FE00
F800
ENDCHAR
STARTCHAR char126
ENCODING 126
SWIDTH 24 0
DWIDTH 19 0
BBX 17 7 1 6
BITMAP
3F0380
3F8380
73C380
61C300
60FF00
E07E00
E03C00
ENDCHAR
STARTCHAR char160
ENCODING 160
SWIDTH 24 0
DWIDTH 19 0
BBX 0 0 0 0
BITMAP
ENDCHAR
STARTCHAR char161
ENCODING 161
SWIDTH 24 0
DWIDTH 19 0
BBX 5 24 7 -1
BITMAP
70
F8
F8
F8
70
00
00
00
30
30
30
70
70
70
78
78
78
78
78
78
78
78
78
78
ENDCHAR
STARTCHAR char162
ENCODING 162
SWIDTH 24 0
DWIDTH 19 0
BBX 14 27 3 -4
BITMAP
00C0
00C0
00C0
00C0
00C0
07F8
1FFC
3ECC
38C4
70C0
70C0
F0C0
E0C0
E0C0
E0C0
E0C0
70C0
70C0
78C0
38C4
1FFC
0FFC
07F0
00C0
00C0
00C0
00C0
ENDCHAR
STARTCHAR char163
ENCODING 163
SWIDTH 24 0
DWIDTH 19 0
BBX 15 23 2 0
BITMAP
00FC
03FE
07FE
0F02
0F00
0E00
0E00
0E00
0E00
0E00
0E00
7FF8
7FF8
0E00
0E00
0E00
0E00
0E00
0E00
0E00
0E00
FFFE
FFFE
ENDCHAR
STARTCHAR char164
ENCODING 164
SWIDTH 24 0
DWIDTH 19 0
BBX 14 15 3 3
BITMAP
4008
E00C
779C
3FF8
1EF0
3830
3030
3018
3030
3830
1EF0
3FF8
779C
E00C
4008
ENDCHAR
STARTCHAR char165
ENCODING 165
SWIDTH 24 0
DWIDTH 19 0
BBX 18 23 1 0
BITMAP
E003C0
F00780
700700
380F00
3C0E00
1C1C00
0E1C00
0E3800
7F7F00
7F7F00
03E000
03E000
01C000
7FFF00
7FFF00
01C000
01C000
01C000
01C000
01C000
01C000
01C000
01C000
ENDCHAR
STARTCHAR char166
ENCODING 166
SWIDTH 24 0
DWIDTH 19 0
BBX 3 28 8 -5
BITMAP
E0
E0
E0
E0
E0
E0
E0
E0
E0
E0
E0
E0
00
00
00
00
E0
E0
E0
E0
E0
E0
E0
E0
E0
E0
E0
E0
ENDCHAR
STARTCHAR char167
ENCODING 167
SWIDTH 24 0
DWIDTH 19 0
BBX 13 27 3 -4
BITMAP
0FC0
3FF0
3EF0
7010
7000
7000
3800
3C00
1F00
77C0
61E0
E0F0
E038
E038
7018
7838
3E38
0FF0
03C0
01E0
00F0
0070
0070
4070
7FF0
7FE0
1F80
ENDCHAR
STARTCHAR char168
ENCODING 168
SWIDTH 24 0
DWIDTH 19 0
BBX 9 3 5 21
BITMAP
E380
E380
E380
ENDCHAR
STARTCHAR char169
ENCODING 169
SWIDTH 24 0
DWIDTH 19 0
BBX 19 20 0 2
BITMAP
01F000
07FE00
1E0F00
380380
30F1C0
63FCC0
470460
CE0060
CC0020
CC0020
CC0020
CC0020
CE0060
470460
63FCC0
31F8C0
380380
1C0700
0FFE00
01F800
ENDCHAR
STARTCHAR char170
ENCODING 170
SWIDTH 24 0
DWIDTH 19 0
BBX 11 15 4 9
BITMAP
7F80
71C0
40C0
00E0
0060
3FE0
7060
E060
E0E0
E0E0
71E0
3F60
0000
0000
7FE0
ENDCHAR
STARTCHAR char171
ENCODING 171
SWIDTH 24 0
DWIDTH 19 0
BBX 15 15 1 2
BITMAP
0102
0306
070E
0F1E
1C38
3870
70E0
E1C0
F0E0
3870
1C38
0E1C
070E
0306
0102
ENDCHAR
STARTCHAR char172
ENCODING 172
SWIDTH 24 0
DWIDTH 19 0
BBX 17 7 1 6
BITMAP
FFFF80
FFFF80
000380
000380
000380
000380
000380
ENDCHAR
STARTCHAR char173
ENCODING 173
SWIDTH 24 0
DWIDTH 19 0
BBX 8 2 6 8
BITMAP
FF
FF
ENDCHAR
STARTCHAR char174
ENCODING 174
SWIDTH 24 0
DWIDTH 19 0
BBX 19 20 0 2
BITMAP
01F000
07FE00
1E0F00
380380
3001C0
63F0C0
431C60
C30C60
C30C20
C31C20
C3F020
C33020
C31860
431C60
630CC0
3306C0
380380
1C0700
0FFE00
01F800
ENDCHAR
STARTCHAR char175
ENCODING 175
SWIDTH 24 0
DWIDTH 19 0
BBX 9 2 5 22
BITMAP
FF80
FF80
ENDCHAR
STARTCHAR char176
ENCODING 176
SWIDTH 24 0
DWIDTH 19 0
BBX 10 10 5 14
BITMAP
3E00
7F00
F780
C180
C0C0
C0C0
C180
F780
7F00
3E00
ENDCHAR
STARTCHAR char177
ENCODING 177
SWIDTH 24 0
DWIDTH 19 0
BBX 17 18 1 0
BITMAP
01C000
01C000
01C000
01C000
01C000
FFFF80
FFFF80
01C000
01C000
01C000
01C000
01C000
01C000
000000
000000
000000
FFFF80
FFFF80
ENDCHAR
STARTCHAR char178
ENCODING 178
SWIDTH 24 0
DWIDTH 19 0
BBX 9 14 5 18
BITMAP
1000
FE00
8300
0380
0380
0380
0300
0600
0E00
1C00
3800
7000
E000
FF80
ENDCHAR
STARTCHAR char179
ENCODING 179
SWIDTH 24 0
DWIDTH 19 0
BBX 9 14 5 18
BITMAP
0800
7F00
8380
0180
0180
0300
1E00
0700
0180
0180
0180
0180
E700
FE00
ENDCHAR
STARTCHAR char180
ENCODING 180
SWIDTH 24 0
DWIDTH 19 0
BBX 8 6 7 20
BITMAP
0F
0E
1C
38
70
E0
ENDCHAR
STARTCHAR char181
ENCODING 181
SWIDTH 24 0
DWIDTH 19 0
BBX 15 25 3 -7
BITMAP
C038
C038
C038
C038
C038
C038
C038
C038
C038
C038
C038
C038
E038
E078
F078
FFFE
DFDE
CF9E
C000
C000
C000
C000
C000
C000
C000
ENDCHAR
STARTCHAR char182
ENCODING 182
SWIDTH 24 0
DWIDTH 19 0
BBX 14 27 2 -4
BITMAP
0FFC
3FFC
7F8C
FF8C
FF8C
FF8C
FF8C
FF8C
FF8C
FF8C
FF8C
7F8C
3F8C
078C
018C
018C
018C
018C
018C
018C
018C
018C
018C
018C
018C
018C
018C
ENDCHAR
STARTCHAR char183
ENCODING 183
SWIDTH 24 0
DWIDTH 19 0
BBX 5 5 7 9
BITMAP
70
F8
F8
F8
70
ENDCHAR
STARTCHAR char184
ENCODING 184
SWIDTH 24 0
DWIDTH 19 0
BBX 7 6 6 -6
BITMAP
18
0C
0E
DE
FC
F8
ENDCHAR
STARTCHAR char185
ENCODING 185
SWIDTH 24 0
DWIDTH 19 0
BBX 9 13 5 18
BITMAP
7C00
FC00
8C00
0C00
0C00
0C00
0C00
0C00
0C00
0C00
0C00
7F80
7F80
ENDCHAR
STARTCHAR char186
ENCODING 186
SWIDTH 24 0
DWIDTH 19 0
BBX 11 16 4 8
BITMAP
1F00
79C0
60E0
E060
C060
C060
C060
C060
E060
60E0
71C0
1F80
0000
0000
0000
FFE0
ENDCHAR
STARTCHAR char187
ENCODING 187
SWIDTH 24 0
DWIDTH 19 0
BBX 14 15 4 2
BITMAP
8200
8100
C180
E1C0
70E0
3870
1C3C
0E1C
1E3C
3C78
70F0
E1C0
C180
8100
8200
ENDCHAR
STARTCHAR char188
ENCODING 188
SWIDTH 24 0
DWIDTH 19 0
BBX 17 31 0 -4
BITMAP
060000
7E0000
760000
060000
060000
060000
060000
060000
060000
060000
060000
060000
3FC000
3FC180
001F80
01FC00
1FC000
FC0000
400E00
000E00
001E00
003600
006600
006600
00C600
018600
01FF80
01FF80
000600
000600
000600
ENDCHAR
STARTCHAR char189
ENCODING 189
SWIDTH 24 0
DWIDTH 19 0
BBX 17 31 0 -4
BITMAP
060000
7E0000
760000
060000
060000
060000
060000
060000
060000
060000
060000
060000
3FC000
3FC180
001F80
00FE00
0FE000
FF0000
707E00
00FF00
008380
000180
000380
000300
000700
000E00
001C00
003000
006000
00FF80
00FF80
ENDCHAR
STARTCHAR char190
ENCODING 190
SWIDTH 24 0
DWIDTH 19 0
BBX 17 31 0 -4
BITMAP
1F0000
3FC000
21C000
00E000
00C000
01C000
0F8000
0FC000
00C000
00E000
00E000
40E000
3FC000
3F0180
001F80
01FC00
1FC000
FC0000
400E00
000E00
001E00
003600
006600
006600
00C600
018600
01FF80
01FF80
000600
000600
000600
ENDCHAR
STARTCHAR char191
ENCODING 191
SWIDTH 24 0
DWIDTH 19 0
BBX 12 24 3 0
BITMAP
0380
0780
07C0
0780
0380
0000
0380
0380
0380
0700
0700
0F00
0E00
1C00
3800
7000
F000
E000
E000
E010
F030
7FF0
3FF0
1FC0
ENDCHAR
STARTCHAR char192
ENCODING 192
SWIDTH 24 0
DWIDTH 19 0
BBX 18 29 1 0
BITMAP
070000
038000
018000
00E000
000000
000000
01E000
03E000
03E000
037000
077000
077000
073800
0E3800
0E3800
0E1C00
1C1C00
1C1C00
1C1C00
1C0E00
3FFE00
3FFE00
3FFF00
700700
700700
700780
F00380
E00380
E003C0
ENDCHAR
STARTCHAR char193
ENCODING 193
SWIDTH 24 0
DWIDTH 19 0
BBX 18 29 1 0
BITMAP
007800
006000
00C000
01C000
000000
000000
01E000
03E000
03E000
037000
077000
077000
073800
0E3800
0E3800
0E1C00
1C1C00
1C1C00
1C1C00
1C0E00
3FFE00
3FFE00
3FFF00
700700
700700
700780
F00380
E00380
E003C0
ENDCHAR
STARTCHAR char194
ENCODING 194
SWIDTH 24 0
DWIDTH 19 0
BBX 18 29 1 0
BITMAP
01E000
036000
073000
0E1800
000000
000000
01E000
03E000
03E000
037000
077000
077000
073800
0E3800
0E3800
0E1C00
1C1C00
1C1C00
1C1C00
1C0E00
3FFE00
3FFE00
3FFF00
700700
700700
700780
F00380
E00380
E003C0
ENDCHAR
STARTCHAR char195
ENCODING 195
SWIDTH 24 0
DWIDTH 19 0
BBX 18 28 1 0
BITMAP
0F8C00
0FF800
1CF800
000000
000000
01E000
03E000
03E000
037000
077000
077000
073800
0E3800
0E3800
0E1C00
1C1C00
1C1C00
1C1C00
1C0E00
3FFE00
3FFE00
3FFF00
700700
700700
700780
F00380
E00380
E003C0
ENDCHAR
STARTCHAR char196
ENCODING 196
SWIDTH 24 0
DWIDTH 19 0
BBX 18 29 1 0
BITMAP
0E3800
0E3800
0E3800
000000
000000
000000
01E000
03E000
03E000
037000
077000
077000
073800
0E3800
0E3800
0E1C00
1C1C00
1C1C00
1C1C00
1C0E00
3FFE00
3FFE00
3FFF00
700700
700700
700780
F00380
E00380
E003C0
ENDCHAR
STARTCHAR char197
ENCODING 197
SWIDTH 24 0
DWIDTH 19 0
BBX 18 30 1 0
BITMAP
01E000
07F000
077000
0E1800
0C1800
0C1800
063800
03F000
03E000
03E000
077000
077000
077000
073800
0E3800
0E3800
0E1C00
1C1C00
1C1C00
1C1C00
3C0E00
3FFE00
3FFE00
3FFF00
700700
700700
700780
F00380
E00380
E003C0
ENDCHAR
STARTCHAR char198
ENCODING 198
SWIDTH 24 0
DWIDTH 19 0
BBX 18 23 0 0
BITMAP
03FFC0
03FFC0
033800
073800
073800
073800
063800
0E3800
0E3800
0C3800
1C3FC0
1C3FC0
1C3800
183800
383800
3FF800
3FF800
303800
703800
703800
703800
E03FC0
E03FC0
ENDCHAR
STARTCHAR char199
ENCODING 199
SWIDTH 24 0
DWIDTH 19 0
BBX 15 30 2 -7
BITMAP
03F8
0FFE
1FBE
3C06
3800
7800
7000
7000
F000
F000
E000
E000
E000
F000
F000
7000
7000
7800
3800
3C02
1FBE
0FFE
03F8
0060
0030
0030
0030
03F0
03F0
03E0
ENDCHAR
STARTCHAR char200
ENCODING 200
SWIDTH 24 0
DWIDTH 19 0
BBX 14 29 3 0
BITMAP
1C00
0E00
0700
0380
0000
0000
FFFC
FFFC
E000
E000
E000
E000
E000
E000
E000
E000
FFF8
FFF8
E000
E000
E000
E000
E000
E000
E000
E000
E000
FFFC
FFFC
ENDCHAR
STARTCHAR char201
ENCODING 201
SWIDTH 24 0
DWIDTH 19 0
BBX 14 29 3 0
BITMAP
01E0
0180
0300
0700
0000
0000
FFFC
FFFC
E000
E000
E000
E000
E000
E000
E000
E000
FFF8
FFF8
E000
E000
E000
E000
E000
E000
E000
E000
E000
FFFC
FFFC
ENDCHAR
STARTCHAR char202
ENCODING 202
SWIDTH 24 0
DWIDTH 19 0
BBX 14 29 3 0
BITMAP
0780
0FC0
1CC0
3870
0000
0000
FFFC
FFFC
E000
E000
E000
E000
E000
E000
E000
E000
FFF8
FFF8
E000
E000
E000
E000
E000
E000
E000
E000
E000
FFFC
FFFC
ENDCHAR
STARTCHAR char203
ENCODING 203
SWIDTH 24 0
DWIDTH 19 0
BBX 14 29 3 0
BITMAP
38F0
38F0
38F0
0000
0000
0000
FFFC
FFFC
E000
E000
E000
E000
E000
E000
E000
E000
FFF8
FFF8
E000
E000
E000
E000
E000
E000
E000
E000
E000
FFFC
FFFC
ENDCHAR
STARTCHAR char204
ENCODING 204
SWIDTH 24 0
DWIDTH 19 0
BBX 13 29 3 0
BITMAP
1C00
0E00
0700
0380
0000
0000
FFF8
FFF8
0700
0700
0700
0700
0700
0700
0700
0700
0700
0700
0700
0700
0700
0700
0700
0700
0700
0700
0700
FFF8
FFF8
ENDCHAR
STARTCHAR char205
ENCODING 205
SWIDTH 24 0
DWIDTH 19 0
BBX 13 29 3 0
BITMAP
01E0
0180
0300
0700
0000
0000
FFF8
FFF8
0700
0700
0700
0700
0700
0700
0700
0700
0700
0700
0700
0700
0700
0700
0700
0700
0700
0700
0700
FFF8
FFF8
ENDCHAR
STARTCHAR char206
ENCODING 206
SWIDTH 24 0
DWIDTH 19 0
BBX 13 29 3 0
BITMAP
0780
0D80
18C0
3860
0000
0000
FFF8
FFF8
0700
0700
0700
0700
0700
0700
0700
0700
0700
0700
0700
0700
0700
0700
0700
0700
0700
0700
0700
FFF8
FFF8
ENDCHAR
STARTCHAR char207
ENCODING 207
SWIDTH 24 0
DWIDTH 19 0
BBX 13 29 3 0
BITMAP
38E0
38E0
38E0
0000
0000
0000
FFF8
FFF8
0700
0700
0700
0700
0700
0700
0700
0700
0700
0700
0700
0700
0700
0700
0700
0700
0700
0700
0700
FFF8
FFF8
ENDCHAR
STARTCHAR char208
ENCODING 208
SWIDTH 24 0
DWIDTH 19 0
BBX 17 23 0 0
BITMAP
3FE000
3FF800
39FC00
381E00
380F00
380700
380780
380380
380380
380380
FF8380
FF8380
380380
380380
380380
380380
380780
380700
380F00
381E00
38FC00
3FF800
3FE000
ENDCHAR
STARTCHAR char209
ENCODING 209
SWIDTH 24 0
DWIDTH 19 0
BBX 15 29 2 0
BITMAP
1F18
1FF0
39F0
0000
0000
0000
F00E
F80E
F80E
FC0E
FC0E
EC0E
EE0E
E60E
E70E
E70E
E38E
E38E
E18E
E1CE
E0CE
E0EE
E0EE
E06E
E07E
E03E
E03E
E03E
E01E
ENDCHAR
STARTCHAR char210
ENCODING 210
SWIDTH 24 0
DWIDTH 19 0
BBX 15 30 2 0
BITMAP
0E00
0700
0300
0180
00C0
0000
0000
07E0
1FF0
3EF8
783C
701C
701E
F00E
E00E
E00E
E00E
E00E
E00E
E00E
E00E
E00E
E00E
F00E
701E
701C
783C
3EF8
1FF0
07E0
ENDCHAR
STARTCHAR char211
ENCODING 211
SWIDTH 24 0
DWIDTH 19 0
BBX 15 30 2 0
BITMAP
0070
00E0
01C0
0180
0300
0000
0000
07E0
1FF0
3EF8
783C
701C
701E
F00E
E00E
E00E
E00E
E00E
E00E
E00E
E00E
E00E
E00E
F00E
701E
701C
783C
3EF8
1FF0
07E0
ENDCHAR
STARTCHAR char212
ENCODING 212
SWIDTH 24 0
DWIDTH 19 0
BBX 15 30 2 0
BITMAP
0380
03C0
0660
0C30
1838
0000
0000
07E0
1FF0
3EF8
783C
701C
701E
F00E
E00E
E00E
E00E
E00E
E00E
E00E
E00E
E00E
E00E
F00E
701E
701C
783C
3EF8
1FF0
07E0
ENDCHAR
STARTCHAR char213
ENCODING 213
SWIDTH 24 0
DWIDTH 19 0
BBX 15 30 2 0
BITMAP
0E18
1FB8
1BF0
30E0
0000
0000
0000
07E0
1FF0
3EF8
783C
701C
701E
F00E
E00E
E00E
E00E
E00E
E00E
E00E
E00E
E00E
E00E
F00E
701E
701C
783C
3EF8
1FF0
07E0
ENDCHAR
STARTCHAR char214
ENCODING 214
SWIDTH 24 0
DWIDTH 19 0
BBX 15 29 2 0
BITMAP
1C70
1C70
1C70
0000
0000
0000
07E0
1FF0
3EF8
783C
701C
701E
F00E
E00E
E00E
E00E
E00E
E00E
E00E
E00E
E00E
E00E
F00E
701E
701C
783C
3EF8
1FF0
07E0
ENDCHAR
STARTCHAR char215
ENCODING 215
SWIDTH 24 0
DWIDTH 19 0
BBX 15 14 2 3
BITMAP
600C
F01E
783C
3C78
1EF0
0FE0
07C0
07C0
0FE0
1EF0
3C78
783C
F01E
600C
ENDCHAR
STARTCHAR char216
ENCODING 216
SWIDTH 24 0
DWIDTH 19 0
BBX 19 25 0 -1
BITMAP
000040
01F8E0
07FCC0
0FBF80
1E0F80
1C0700
1C0780
3C0F80
381F80
381B80
383380
386380
386380
38C380
398380
3B0380
3B0380
3E0380
3C0780
1C0700
3E0F00
3FBE00
67FC00
E1F800
400000
ENDCHAR
STARTCHAR char217
ENCODING 217
SWIDTH 24 0
DWIDTH 19 0
BBX 15 30 2 0
BITMAP
0E00
0700
0300
0180
01C0
0000
0000
E00E
E00E
E00E
E00E
E00E
E00E
E00E
E00E
E00E
E00E
E00E
E00E
E00E
E00E
E00E
E00E
E00E
F00E
701E
701C
3EFC
1FF8
0FE0
ENDCHAR
STARTCHAR char218
ENCODING 218
SWIDTH 24 0
DWIDTH 19 0
BBX 15 30 2 0
BITMAP
00E0
00E0
01C0
0380
0700
0000
0000
E00E
E00E
E00E
E00E
E00E
E00E
E00E
E00E
E00E
E00E
E00E
E00E
E00E
E00E
E00E
E00E
E00E
F00E
701E
701C
3EFC
1FF8
0FE0
ENDCHAR
STARTCHAR char219
ENCODING 219
SWIDTH 24 0
DWIDTH 19 0
BBX 15 30 2 0
BITMAP
0380
07C0
0EE0
0C70
1830
0000
0000
E00E
E00E
E00E
E00E
E00E
E00E
E00E
E00E
E00E
E00E
E00E
E00E
E00E
E00E
E00E
E00E
E00E
F00E
701E
701C
3EFC
1FF8
0FE0
ENDCHAR
STARTCHAR char220
ENCODING 220
SWIDTH 24 0
DWIDTH 19 0
BBX 15 29 2 0
BITMAP
1C70
1C70
1C70
0000
0000
0000
E00E
E00E
E00E
E00E
E00E
E00E
E00E
E00E
E00E
E00E
E00E
E00E
E00E
E00E
E00E
E00E
E00E
F00E
701E
701C
3EFC
1FF8
0FE0
ENDCHAR
STARTCHAR char221
ENCODING 221
SWIDTH 24 0
DWIDTH 19 0
BBX 18 29 1 0
BITMAP
007000
00E000
00C000
038000
000000
000000
E003C0
F00780
700700
380F00
380E00
1C1C00
1E1C00
0E3800
073800
077000
03F000
03E000
01C000
01C000
01C000
01C000
01C000
01C000
01C000
01C000
01C000
01C000
01C000
ENDCHAR
STARTCHAR char222
ENCODING 222
SWIDTH 24 0
DWIDTH 19 0
BBX 15 23 3 0
BITMAP
E000
E000
E000
E000
FFE0
FFF8
E1FC
E01E
E01E
E00E
E00E
E00E
E01E
E01E
E1FC
FFF8
FFE0
E000
E000
E000
E000
E000
E000
ENDCHAR
STARTCHAR char223
ENCODING 223
SWIDTH 24 0
DWIDTH 19 0
BBX 15 24 3 0
BITMAP
1FC0
3FE0
7DF0
F078
E038
E038
E0F8
E1C0
E380
E700
E700
E700
E380
E3E0
E0F0
E07C
E01C
E00E
E00E
E00E
E01E
EF7C
EFF8
EFF0
ENDCHAR
STARTCHAR char224
ENCODING 224
SWIDTH 24 0
DWIDTH 19 0
BBX 16 27 2 0
BITMAP
3C00
1C00
0E00
0700
0380
01C0
0000
0000
0000
0FE0
7FF0
7EF8
401C
001C
000C
000E
1FFE
3FFE
780E
F00E
E01E
E01E
E01E
F03E
7DFE
3FEE
1FCF
ENDCHAR
STARTCHAR char225
ENCODING 225
SWIDTH 24 0
DWIDTH 19 0
BBX 16 27 2 0
BITMAP
0038
0070
00E0
01C0
0180
0700
0000
0000
0000
0FE0
7FF0
7EF8
601C
001C
000C
000E
1FFE
3FFE
780E
F00E
E01E
E01E
E01E
F03E
7DFE
3FEE
1FCF
ENDCHAR
STARTCHAR char226
ENCODING 226
SWIDTH 24 0
DWIDTH 19 0
BBX 16 27 2 0
BITMAP
0180
03C0
07C0
0EE0
0C70
1838
0000
0000
0000
0FE0
7FF0
7EF8
401C
001C
000C
000E
1FFE
3FFE
780E
F00E
E01E
E01E
E01E
F03E
7DFE
3FEE
1FCF
ENDCHAR
STARTCHAR char227
ENCODING 227
SWIDTH 24 0
DWIDTH 19 0
BBX 16 26 2 0
BITMAP
0E18
1F18
1BB8
19F0
18F0
0000
0000
0000
0FE0
7FF0
7EF8
401C
001C
000C
000E
1FFE
3FFE
780E
F00E
E01E
E01E
E01E
F03E
7DFE
3FEE
1FCF
ENDCHAR
STARTCHAR char228
ENCODING 228
SWIDTH 24 0
DWIDTH 19 0
BBX 16 24 2 0
BITMAP
1C70
1C70
1C70
0000
0000
0000
0FE0
7FF0
7EF8
401C
001C
000C
000E
1FFE
3FFE
780E
F00E
E01E
E01E
E01E
F03E
7DFE
3FEE
1FCF
ENDCHAR
STARTCHAR char229
ENCODING 229
SWIDTH 24 0
DWIDTH 19 0
BBX 16 29 2 0
BITMAP
03C0
07E0
0EE0
0C30
1830
1830
0C70
0FE0
07C0
0000
0000
0FE0
7FF0
7EF8
401C
001C
000C
000E
1FFE
3FFE
780E
F00E
E01E
E01E
E01E
F03E
7DFE
3FEE
1FCF
ENDCHAR
STARTCHAR char230
ENCODING 230
SWIDTH 24 0
DWIDTH 19 0
BBX 18 18 1 0
BITMAP
3E3E00
7F7F00
77F780
81E180
01C1C0
00C1C0
00C1C0
1FFFC0
7FFFC0
FDC000
E1C000
C1C000
C1C000
C1C000
E1E040
FFFB80
7F7F80
3E1F00
ENDCHAR
STARTCHAR char231
ENCODING 231
SWIDTH 24 0
DWIDTH 19 0
BBX 13 25 3 -7
BITMAP
07E0
1FF8
3F78
7808
F000
E000
E000
E000
E000
E000
E000
E000
E000
F000
7808
3F78
1FF8
0FF0
00C0
00C0
0060
00E0
0DE0
0FC0
0F80
ENDCHAR
STARTCHAR char232
ENCODING 232
SWIDTH 24 0
DWIDTH 19 0
BBX 15 27 2 0
BITMAP
1C00
0C00
0E00
0700
0380
01C0
0000
0000
0000
07E0
1FF8
3FFC
781C
700E
E00E
E00E
FFFE
FFFE
E000
E000
E000
F000
7000
7806
3F7E
1FFE
07F0
ENDCHAR
STARTCHAR char233
ENCODING 233
SWIDTH 24 0
DWIDTH 19 0
BBX 15 27 2 0
BITMAP
0038
0070
00E0
00C0
0180
0380
0000
0000
0000
07E0
1FF8
3FFC
781C
700E
E00E
E00E
FFFE
FFFE
E000
E000
E000
E000
7000
7806
3F7E
1FFE
07F0
ENDCHAR
STARTCHAR char234
ENCODING 234
SWIDTH 24 0
DWIDTH 19 0
BBX 15 27 2 0
BITMAP
0180
03C0
07C0
0660
0C70
1838
0000
0000
0000
07E0
1FF8
3FFC
781C
700E
E00E
E00E
FFFE
FFFE
E000
E000
E000
E000
7000
7806
3F7E
1FFE
07F0
ENDCHAR
STARTCHAR char235
ENCODING 235
SWIDTH 24 0
DWIDTH 19 0
BBX 15 24 2 0
BITMAP
1C78
1C78
1C78
0000
0000
0000
07E0
1FF8
3FFC
781C
700E
E00E
E00E
FFFE
FFFE
E000
E000
E000
E000
7000
7806
3F7E
1FFE
07F0
ENDCHAR
STARTCHAR char236
ENCODING 236
SWIDTH 24 0
DWIDTH 19 0
BBX 14 26 3 0
BITMAP
F000
3800
1800
1C00
0E00
0700
0000
0000
7F00
7F00
0700
0700
0700
0700
0700
0700
0700
0700
0700
0700
0700
0700
0780
03C0
01FC
00FC
ENDCHAR
STARTCHAR char237
ENCODING 237
SWIDTH 24 0
DWIDTH 19 0
BBX 13 26 4 0
BITMAP
00F0
01C0
0180
0380
0700
0E00
0000
0000
FE00
FE00
0E00
0E00
0E00
0E00
0E00
0E00
0E00
0E00
0E00
0E00
0E00
0E00
0F00
0780
03F8
01F8
ENDCHAR
STARTCHAR char238
ENCODING 238
SWIDTH 24 0
DWIDTH 19 0
BBX 13 26 4 0
BITMAP
0E00
1E00
3F00
3380
6180
E0C0
0000
0000
FE00
FE00
0E00
0E00
0E00
0E00
0E00
0E00
0E00
0E00
0E00
0E00
0E00
0E00
0F00
0780
03F8
01F8
ENDCHAR
STARTCHAR char239
ENCODING 239
SWIDTH 24 0
DWIDTH 19 0
BBX 13 24 4 0
BITMAP
71C0
71C0
71C0
0000
0000
0000
FE00
FE00
0E00
0E00
0E00
0E00
0E00
0E00
0E00
0E00
0E00
0E00
0E00
0E00
0F00
0780
03F8
01F8
ENDCHAR
STARTCHAR char240
ENCODING 240
SWIDTH 24 0
DWIDTH 19 0
BBX 15 24 2 0
BITMAP
1E00
0F38
07E0
3FC0
31E0
00E0
07F0
1FF8
3F78
781C
701C
700E
E00E
E00E
E00E
E00E
E00E
E00E
700E
701C
783C
3EF8
1FF0
07E0
ENDCHAR
STARTCHAR char241
ENCODING 241
SWIDTH 24 0
DWIDTH 19 0
BBX 13 24 3 0
BITMAP
1C30
3F30
37E0
61C0
0000
0000
E3E0
EFF0
FFF8
F038
F038
E038
E018
E018
E018
E018
E018
E018
E018
E018
E018
E018
E018
E018
ENDCHAR
STARTCHAR char242
ENCODING 242
SWIDTH 24 0
DWIDTH 19 0
BBX 15 27 2 0
BITMAP
3800
1C00
0E00
0700
0380
01C0
0000
0000
0000
07E0
1FF0
3EF8
783C
701C
F00E
E00E
E00E
E00E
E00E
E00E
E00E
700E
701C
783C
3EF8
1FF0
07E0
ENDCHAR
STARTCHAR char243
ENCODING 243
SWIDTH 24 0
DWIDTH 19 0
BBX 15 27 2 0
BITMAP
0038
0070
00E0
01C0
0180
0700
0000
0000
0000
07E0
1FF0
3EF8
783C
701C
F00E
E00E
E00E
E00E
E00E
E00E
E00E
700E
701C
783C
3EF8
1FF0
07E0
ENDCHAR
STARTCHAR char244
ENCODING 244
SWIDTH 24 0
DWIDTH 19 0
BBX 15 27 2 0
BITMAP
0380
0380
07C0
0EE0
0C70
1838
0000
0000
0000
07E0
1FF0
3EF8
783C
701C
F00E
E00E
E00E
E00E
E00E
E00E
E00E
700E
701C
783C
3EF8
1FF0
07E0
ENDCHAR
STARTCHAR char245
ENCODING 245
SWIDTH 24 0
DWIDTH 19 0
BBX 15 24 2 0
BITMAP
0F18
1FF0
3BF0
0000
0000
0000
07E0
1FF0
3EF8
783C
701C
F00E
E00E
E00E
E00E
E00E
E00E
E00E
700E
701C
783C
3EF8
1FF0
07E0
ENDCHAR
STARTCHAR char246
ENCODING 246
SWIDTH 24 0
DWIDTH 19 0
BBX 15 24 2 0
BITMAP
1C70
1C70
1C70
0000
0000
0000
07E0
1FF0
3EF8
783C
701C
F00E
E00E
E00E
E00E
E00E
E00E
E00E
700E
701C
783C
3EF8
1FF0
07E0
ENDCHAR
STARTCHAR char247
ENCODING 247
SWIDTH 24 0
DWIDTH 19 0
BBX 17 16 1 2
BITMAP
01E000
01E000
01E000
01E000
000000
000000
000000
FFFF80
FFFF80
000000
000000
000000
01E000
01E000
01E000
01E000
ENDCHAR
STARTCHAR char248
ENCODING 248
SWIDTH 24 0
DWIDTH 19 0
BBX 17 20 1 -1
BITMAP
000180
03F180
0FFB00
1F7F00
3C1E00
381E00
783F00
703700
706700
70C700
71C700
738700
770700
3E0700
3C0E00
3C1E00
3F7C00
6FF800
E3F000
C00000
ENDCHAR
STARTCHAR char249
ENCODING 249
SWIDTH 24 0
DWIDTH 19 0
BBX 13 26 3 0
BITMAP
7800
1C00
0C00
0600
0300
0380
0000
0000
E018
E018
E018
E018
E018
E018
E018
E018
E018
E018
E038
E038
E038
E038
F078
7FD8
3F98
1F18
ENDCHAR
STARTCHAR char250
ENCODING 250
SWIDTH 24 0
DWIDTH 19 0
BBX 13 26 3 0
BITMAP
00F0
00E0
01C0
0380
0700
0E00
0000
0000
E018
E018
E018
E018
E018
E018
E018
E018
E018
E018
E038
E038
E038
E038
F078
7FD8
3F98
1F18
ENDCHAR
STARTCHAR char251
ENCODING 251
SWIDTH 24 0
DWIDTH 19 0
BBX 13 26 3 0
BITMAP
0700
0F80
0DC0
18C0
3860
3070
0000
0000
E018
E018
E018
E018
E018
E018
E018
E018
E018
E018
E038
E038
E038
E038
F078
7FD8
3F98
1F18
ENDCHAR
STARTCHAR char252
ENCODING 252
SWIDTH 24 0
DWIDTH 19 0
BBX 13 24 3 0
BITMAP
38E0
38E0
38E0
0000
0000
0000
E018
E018
E018
E018
E018
E018
E018
E018
E018
E018
E038
E038
E038
E038
F078
7FD8
3F98
1F18
ENDCHAR
STARTCHAR char253
ENCODING 253
SWIDTH 24 0
DWIDTH 19 0
BBX 16 33 2 -7
BITMAP
0038
0070
00E0
00C0
01C0
0380
0700
0000
E007
E00E
700E
700E
701C
381C
381C
3838
1C38
1C30
0C70
0E70
0EE0
07E0
07E0
07C0
03C0
03C0
0380
0380
0700
0700
1E00
7E00
7800
ENDCHAR
STARTCHAR char254
ENCODING 254
SWIDTH 24 0
DWIDTH 19 0
BBX 14 31 3 -7
BITMAP
E000
E000
E000
E000
E000
E000
E7C0
EFF0
FFF8
F038
F03C
E01C
E01C
E01C
E01C
E01C
E01C
E01C
E01C
F03C
F038
FFF8
EFF0
E7C0
E000
E000
E000
E000
E000
E000
E000
ENDCHAR
STARTCHAR char255
ENCODING 255
SWIDTH 24 0
DWIDTH 19 0
BBX 16 30 2 -7
BITMAP
1C70
1C70
1C70
0000
0000
E007
E00E
700E
700E
701C
381C
381C
3838
1C38
1C30
0C70
0E70
0EE0
07E0
07E0
07C0
03C0
03C0
0380
0380
0700
0700
1E00
7E00
7800
ENDCHAR
STARTCHAR char256
ENCODING 256
SWIDTH 24 0
DWIDTH 19 0
BBX 18 28 1 0
BITMAP
0FF800
0FF800
000000
000000
000000
01E000
03E000
03E000
037000
077000
077000
073800
0E3800
0E3800
0E1C00
1C1C00
1C1C00
1C1C00
1C0E00
3FFE00
3FFE00
3FFF00
700700
700700
700780
F00380
E00380
E003C0
ENDCHAR
STARTCHAR char257
ENCODING 257
SWIDTH 24 0
DWIDTH 19 0
BBX 16 23 2 0
BITMAP
1FF0
1FF0
0000
0000
0000
0FE0
7FF0
7EF8
401C
001C
000C
000E
1FFE
3FFE
780E
F00E
E01E
E01E
E01E
F03E
7DFE
3FEE
1FCF
ENDCHAR
STARTCHAR char258
ENCODING 258
SWIDTH 24 0
DWIDTH 19 0
BBX 18 29 1 0
BITMAP
0C0C00
0C1800
0FF800
03F000
000000
000000
01E000
03E000
03E000
037000
077000
077000
073800
0E3800
0E3800
0E1C00
1C1C00
1C1C00
1C1C00
1C0E00
3FFE00
3FFE00
3FFF00
700700
700700
700780
F00380
E00380
E003C0
ENDCHAR
STARTCHAR char259
ENCODING 259
SWIDTH 24 0
DWIDTH 19 0
BBX 16 24 2 0
BITMAP
1838
1FF0
0FE0
0000
0000
0000
0FE0
7FF0
7EF8
401C
001C
000C
000E
1FFE
3FFE
780E
F00E
E01E
E01E
E01E
F03E
7DFE
3FEE
1FCF
ENDCHAR
STARTCHAR char260
ENCODING 260
SWIDTH 24 0
DWIDTH 19 0
BBX 18 30 1 -7
BITMAP
01E000
03E000
03E000
037000
077000
077000
073800
0E3800
0E3800
0E3C00
1E1C00
1C1C00
1C1C00
1C0E00
380E00
3FFE00
3FFF00
7FFF00
700700
700780
F00380
E00380
E003C0
000300
000600
000600
000600
000740
0007C0
0003C0
ENDCHAR
STARTCHAR char261
ENCODING 261
SWIDTH 24 0
DWIDTH 19 0
BBX 17 24 2 -6
BITMAP
0FE000
7FF800
7EFC00
401C00
001C00
000E00
000E00
1FFE00
3FFE00
780E00
F00E00
E01E00
E01E00
E01E00
F03E00
7DFE00
3FEE00
1F8500
000C00
001800
001800
001F80
001F80
000F80
ENDCHAR
STARTCHAR char262
ENCODING 262
SWIDTH 24 0
DWIDTH 19 0
BBX 15 30 2 0
BITMAP
0038
0070
00E0
00C0
0180
0000
0000
03F8
0FFE
1FBE
3C06
3800
7800
7000
7000
F000
F000
E000
E000
E000
F000
F000
7000
7000
7800
3800
3C02
1FBE
0FFE
03F8
ENDCHAR
STARTCHAR char263
ENCODING 263
SWIDTH 24 0
DWIDTH 19 0
BBX 13 27 3 0
BITMAP
0038
0070
00E0
01C0
0180
0700
0000
0000
0000
07E0
1FF8
3F78
7808
F000
E000
E000
E000
E000
E000
E000
E000
E000
F000
7808
3F78
1FF8
07E0
ENDCHAR
STARTCHAR char264
ENCODING 264
SWIDTH 24 0
DWIDTH 19 0
BBX 15 30 2 0
BITMAP
01C0
03E0
0770
0638
0C18
0000
0000
03F8
0FFE
1FBE
3C06
3800
7800
7000
7000
F000
F000
E000
E000
E000
F000
F000
7000
7000
7800
3800
3C02
1FBE
0FFE
03F8
ENDCHAR
STARTCHAR char265
ENCODING 265
SWIDTH 24 0
DWIDTH 19 0
BBX 13 27 3 0
BITMAP
0300
0780
07C0
0CC0
1C60
3830
0000
0000
0000
07E0
1FF8
3F78
7808
F000
E000
E000
E000
E000
E000
E000
E000
E000
F000
7808
3F78
1FF8
07E0
ENDCHAR
STARTCHAR char266
ENCODING 266
SWIDTH 24 0
DWIDTH 19 0
BBX 15 29 2 0
BITMAP
01C0
01C0
01C0
0000
0000
0000
03F8
0FFE
1FBE
3C06
3800
7800
7000
7000
F000
F000
E000
E000
E000
F000
F000
7000
7000
7800
3800
3C02
1FBE
0FFE
03F8
ENDCHAR
STARTCHAR char267
ENCODING 267
SWIDTH 24 0
DWIDTH 19 0
BBX 13 24 3 0
BITMAP
0380
0380
0380
0000
0000
0000
07E0
1FF8
3F78
7808
F000
E000
E000
E000
E000
E000
E000
E000
E000
F000
7808
3F78
1FF8
07E0
ENDCHAR
STARTCHAR char268
ENCODING 268
SWIDTH 24 0
DWIDTH 19 0
BBX 15 30 2 0
BITMAP
0C0C
0618
0330
01E0
00E0
0000
0000
03F8
0FFE
1FBE
3C06
3800
7800
7000
7000
F000
F000
E000
E000
E000
F000
F000
7000
7000
7800
3800
3C02
1FBE
0FFE
03F8
ENDCHAR
STARTCHAR char269
ENCODING 269
SWIDTH 24 0
DWIDTH 19 0
BBX 13 27 3 0
BITMAP
1838
1C30
0C60
06C0
07C0
0380
0000
0000
0000
07E0
1FF8
3F78
7808
F000
E000
E000
E000
E000
E000
E000
E000
E000
F000
7808
3F78
1FF8
07E0
ENDCHAR
STARTCHAR char270
ENCODING 270
SWIDTH 24 0
DWIDTH 19 0
BBX 15 29 2 0
BITMAP
3060
18C0
0D80
0700
0000
0000
FF80
FFE0
E7F0
E078
E03C
E01C
E01E
E00E
E00E
E00E
E00E
E00E
E00E
E00E
E00E
E00E
E01E
E01C
E03C
E078
E3F0
FFE0
FF80
ENDCHAR
STARTCHAR char271
ENCODING 271
SWIDTH 24 0
DWIDTH 19 0
BBX 20 24 1 0
BITMAP
000EF0
000EE0
000EE0
000EC0
000EC0
000FC0
07CE00
1FEE00
3EFE00
383E00
701E00
701E00
700E00
F00E00
F00E00
E00E00
F00E00
700E00
701E00
701E00
383E00
3EFE00
1FEE00
07CE00
ENDCHAR
STARTCHAR char272
ENCODING 272
SWIDTH 24 0
DWIDTH 19 0
BBX 17 23 0 0
BITMAP
3FE000
3FF800
39FC00
381E00
380F00
380700
380780
380380
380380
380380
FF8380
FF8380
380380
380380
380380
380380
380780
380700
380F00
381E00
38FC00
3FF800
3FE000
ENDCHAR
STARTCHAR char273
ENCODING 273
SWIDTH 24 0
DWIDTH 19 0
BBX 17 24 2 0
BITMAP
001C00
01FF80
01FF80
001C00
001C00
001C00
0F9C00
1FDC00
3FFC00
703C00
701C00
E01C00
E01C00
E01C00
E01C00
E01C00
E01C00
E01C00
E01C00
701C00
703C00
3FFC00
1FEC00
0F8C00
ENDCHAR
STARTCHAR char274
ENCODING 274
SWIDTH 24 0
DWIDTH 19 0
BBX 14 28 3 0
BITMAP
3FF0
3FF0
0000
0000
0000
FFFC
FFFC
E000
E000
E000
E000
E000
E000
E000
E000
FFF8
FFF8
E000
E000
E000
E000
E000
E000
E000
E000
E000
FFFC
FFFC
ENDCHAR
STARTCHAR char275
ENCODING 275
SWIDTH 24 0
DWIDTH 19 0
BBX 15 23 2 0
BITMAP
0FF8
0FF8
0000
0000
0000
07E0
1FF8
3FFC
781C
700E
E00E
E00E
FFFE
FFFE
E000
E000
E000
F000
7000
7806
3F7E
1FFE
07F0
ENDCHAR
STARTCHAR char276
ENCODING 276
SWIDTH 24 0
DWIDTH 19 0
BBX 14 29 3 0
BITMAP
3030
1870
1FE0
07C0
0000
0000
FFFC
FFFC
E000
E000
E000
E000
E000
E000
E000
E000
FFF8
FFF8
E000
E000
E000
E000
E000
E000
E000
E000
E000
FFFC
FFFC
ENDCHAR
STARTCHAR char277
ENCODING 277
SWIDTH 24 0
DWIDTH 19 0
BBX 15 24 2 0
BITMAP
1818
0FF0
07E0
0000
0000
0000
07E0
1FF8
3FFC
781C
700E
E00E
E00E
FFFE
FFFE
E000
E000
E000
E000
7000
7806
3F7E
1FFE
07F0
ENDCHAR
STARTCHAR char278
ENCODING 278
SWIDTH 24 0
DWIDTH 19 0
BBX 14 29 3 0
BITMAP
0780
0780
0780
0000
0000
0000
FFFC
FFFC
E000
E000
E000
E000
E000
E000
E000
E000
FFF8
FFF8
E000
E000
E000
E000
E000
E000
E000
E000
E000
FFFC
FFFC
ENDCHAR
STARTCHAR char279
ENCODING 279
SWIDTH 24 0
DWIDTH 19 0
BBX 15 24 2 0
BITMAP
0380
0380
0380
0000
0000
0000
07E0
1FF8
3FFC
781C
700E
E00E
E00E
FFFE
FFFE
E000
E000
E000
F000
7000
7806
3F7E
1FFE
07F0
ENDCHAR
STARTCHAR char280
ENCODING 280
SWIDTH 24 0
DWIDTH 19 0
BBX 14 30 3 -7
BITMAP
FFFC
FFFC
E000
E000
E000
E000
E000
E000
E000
E000
FFF8
FFF8
E000
E000
E000
E000
E000
E000
E000
E000
E000
FFFC
FFFC
0030
0060
0060
00E0
00FC
007C
003C
ENDCHAR
STARTCHAR char281
ENCODING 281
SWIDTH 24 0
DWIDTH 19 0
BBX 15 25 2 -7
BITMAP
07E0
1FF0
3FF8
781C
700E
F00E
E00E
E00E
E006
FFFE
FFFE
E000
E000
7000
7802
3F7E
1FFE
07F8
0060
0060
0060
00E0
00F4
007C
003C
ENDCHAR
STARTCHAR char282
ENCODING 282
SWIDTH 24 0
DWIDTH 19 0
BBX 14 29 3 0
BITMAP
3870
0CE0
0FC0
0780
0000
0000
FFFC
FFFC
E000
E000
E000
E000
E000
E000
E000
E000
FFF8
FFF8
E000
E000
E000
E000
E000
E000
E000
E000
E000
FFFC
FFFC
ENDCHAR
STARTCHAR char283
ENCODING 283
SWIDTH 24 0
DWIDTH 19 0
BBX 15 27 2 0
BITMAP
1818
0C38
0670
0760
03C0
01C0
0000
0000
0000
07E0
1FF8
3FFC
781C
700E
E00E
E00E
FFFE
FFFE
E000
E000
E000
F000
7000
7806
3F7E
1FFE
07F0
ENDCHAR
STARTCHAR char284
ENCODING 284
SWIDTH 24 0
DWIDTH 19 0
BBX 15 30 2 0
BITMAP
01C0
03E0
0770
0638
0C18
0000
0000
03F0
0FFC
1F3C
3C04
7802
7000
F000
E000
E000
E000
E000
E07E
E07E
E00E
E00E
E00E
F00E
700E
700E
380E
1F7E
0FFC
03F0
ENDCHAR
STARTCHAR char285
ENCODING 285
SWIDTH 24 0
DWIDTH 19 0
BBX 15 33 2 -7
BITMAP
01C0
03C0
07E0
0670
0C30
1C18
0000
0000
07CE
1FEE
3EFE
383E
701E
701E
700E
E00E
E00E
E00E
E00E
700E
701E
701E
383E
3EFE
1FEE
07CE
000E
000C
001C
201C
3EF8
3FF0
0FE0
ENDCHAR
STARTCHAR char286
ENCODING 286
SWIDTH 24 0
DWIDTH 19 0
BBX 15 29 2 0
BITMAP
1818
0C38
0FF0
03E0
0000
0000
03F0
0FFC
1F3C
3C04
7802
7000
F000
E000
E000
E000
E000
E07E
E07E
E00E
E00E
E00E
F00E
700E
780E
380E
3F7E
0FFC
03F0
ENDCHAR
STARTCHAR char287
ENCODING 287
SWIDTH 24 0
DWIDTH 19 0
BBX 15 31 2 -7
BITMAP
1818
1C38
0FF0
07E0
0000
0000
07CE
1FEE
3EFE
383E
701E
701E
700E
E00E
E00E
E00E
E00E
700E
701E
701E
383E
3EFE
1FEE
07CE
000E
000C
001C
201C
3EF8
3FF0
0FC0
ENDCHAR
STARTCHAR char288
ENCODING 288
SWIDTH 24 0
DWIDTH 19 0
BBX 15 29 2 0
BITMAP
01C0
01C0
01C0
0000
0000
0000
03F0
0FFC
1F3C
3C04
7802
7000
F000
E000
E000
E000
E000
E07E
E07E
E00E
E00E
E00E
F00E
700E
780E
380E
3F7E
0FFC
03F0
ENDCHAR
STARTCHAR char289
ENCODING 289
SWIDTH 24 0
DWIDTH 19 0
BBX 15 31 2 -7
BITMAP
03C0
03C0
03C0
0000
0000
0000
07CE
1FEE
3EFE
783E
701E
701E
700E
E00E
E00E
E00E
E00E
700E
701E
701E
383E
3EFE
1FEE
07CE
000E
000C
001C
201C
3C78
3FF0
1FE0
ENDCHAR
STARTCHAR char290
ENCODING 290
SWIDTH 24 0
DWIDTH 19 0
BBX 15 31 2 -8
BITMAP
03F0
0FFC
1F3C
3C04
7802
7000
F000
E000
E000
E000
E000
E07E
E07E
E00E
E00E
E00E
F00E
700E
780E
380E
3F7E
0FFC
03F0
0000
0000
0000
00F0
01E0
01C0
01C0
0380
ENDCHAR
STARTCHAR char291
ENCODING 291
SWIDTH 24 0
DWIDTH 19 0
BBX 15 32 2 -7
BITMAP
0060
00E0
01E0
01C0
03C0
0000
0000
07CE
1FEE
3EFE
783E
701E
701E
700E
E00E
E00E
E00E
E00E
700E
701E
701E
383E
3EFE
1FEE
07CE
000E
000C
001C
201C
3C78
3FF0
1FE0
ENDCHAR
STARTCHAR char292
ENCODING 292
SWIDTH 24 0
DWIDTH 19 0
BBX 15 29 2 0
BITMAP
03C0
06C0
0E60
1C30
0000
0000
E00E
E00E
E00E
E00E
E00E
E00E
E00E
E00E
E00E
FFFE
FFFE
FFFE
E00E
E00E
E00E
E00E
E00E
E00E
E00E
E00E
E00E
E00E
E00E
ENDCHAR
STARTCHAR char293
ENCODING 293
SWIDTH 24 0
DWIDTH 19 0
BBX 13 29 3 0
BITMAP
01E0
0360
0730
0E18
0000
E000
E000
E000
E000
E000
E000
E3E0
EFF0
FFF8
F038
F038
E038
E018
E018
E018
E018
E018
E018
E018
E018
E018
E018
E018
E018
ENDCHAR
STARTCHAR char294
ENCODING 294
SWIDTH 24 0
DWIDTH 19 0
BBX 19 23 0 0
BITMAP
380380
380380
380380
FFFFE0
FFFFE0
380380
380380
380380
380380
380380
3FFF80
3FFF80
380380
380380
380380
380380
380380
380380
380380
380380
380380
380380
380380
ENDCHAR
STARTCHAR char295
ENCODING 295
SWIDTH 24 0
DWIDTH 19 0
BBX 15 24 1 0
BITMAP
3800
3800
FFC0
FFC0
3800
3800
38F8
3BFC
3FFE
3C0E
3C0E
380E
3806
3806
3806
3806
3806
3806
3806
3806
3806
3806
3806
3806
ENDCHAR
STARTCHAR char296
ENCODING 296
SWIDTH 24 0
DWIDTH 19 0
BBX 13 29 3 0
BITMAP
3E30
3FE0
73E0
0000
0000
0000
FFF8
FFF8
0700
0700
0700
0700
0700
0700
0700
0700
0700
0700
0700
0700
0700
0700
0700
0700
0700
0700
0700
FFF8
FFF8
ENDCHAR
STARTCHAR char297
ENCODING 297
SWIDTH 24 0
DWIDTH 19 0
BBX 13 24 4 0
BITMAP
38C0
7CC0
FFC0
C380
0000
0000
FE00
FE00
0E00
0E00
0E00
0E00
0E00
0E00
0E00
0E00
0E00
0E00
0E00
0E00
0F00
0780
03F8
01F8
ENDCHAR
STARTCHAR char298
ENCODING 298
SWIDTH 24 0
DWIDTH 19 0
BBX 13 28 3 0
BITMAP
3FF0
3FF0
0000
0000
0000
FFF8
FFF8
0700
0700
0700
0700
0700
0700
0700
0700
0700
0700
0700
0700
0700
0700
0700
0700
0700
0700
0700
FFF8
FFF8
ENDCHAR
STARTCHAR char299
ENCODING 299
SWIDTH 24 0
DWIDTH 19 0
BBX 13 23 4 0
BITMAP
FFC0
FFC0
0000
0000
0000
FE00
FE00
0E00
0E00
0E00
0E00
0E00
0E00
0E00
0E00
0E00
0E00
0E00
0E00
0F00
0780
03F8
01F8
ENDCHAR
STARTCHAR char300
ENCODING 300
SWIDTH 24 0
DWIDTH 19 0
BBX 13 29 3 0
BITMAP
3070
3860
1FE0
0F80
0000
0000
FFF8
FFF8
0700
0700
0700
0700
0700
0700
0700
0700
0700
0700
0700
0700
0700
0700
0700
0700
0700
0700
0700
FFF8
FFF8
ENDCHAR
STARTCHAR char301
ENCODING 301
SWIDTH 24 0
DWIDTH 19 0
BBX 13 24 4 0
BITMAP
60C0
7FC0
3F80
0000
0000
0000
FE00
FE00
0E00
0E00
0E00
0E00
0E00
0E00
0E00
0E00
0E00
0E00
0E00
0E00
0F00
0780
03F8
01F8
ENDCHAR
STARTCHAR char302
ENCODING 302
SWIDTH 24 0
DWIDTH 19 0
BBX 13 30 3 -7
BITMAP
FFF8
FFF8
0700
0700
0700
0700
0700
0700
0700
0700
0700
0700
0700
0700
0700
0700
0700
0700
0700
0700
0700
FFF8
FFF8
0300
0600
0600
0600
0740
07C0
03C0
ENDCHAR
STARTCHAR char303
ENCODING 303
SWIDTH 24 0
DWIDTH 19 0
BBX 13 30 4 -6
BITMAP
0E00
0E00
0E00
0E00
0000
0000
FE00
FE00
0E00
0E00
0E00
0E00
0E00
0E00
0E00
0E00
0E00
0E00
0E00
0E00
0F00
0780
03F8
01F8
00C0
00C0
0180
01F8
00F8
00F8
ENDCHAR
STARTCHAR char304
ENCODING 304
SWIDTH 24 0
DWIDTH 19 0
BBX 13 29 3 0
BITMAP
0700
0700
0700
0000
0000
0000
FFF8
FFF8
0700
0700
0700
0700
0700
0700
0700
0700
0700
0700
0700
0700
0700
0700
0700
0700
0700
0700
0700
FFF8
FFF8
ENDCHAR
STARTCHAR char305
ENCODING 305
SWIDTH 24 0
DWIDTH 19 0
BBX 13 18 4 0
BITMAP
FE00
FE00
0E00
0E00
0E00
0E00
0E00
0E00
0E00
0E00
0E00
0E00
0E00
0E00
0F00
0780
03F8
01F8
ENDCHAR
STARTCHAR char306
ENCODING 306
SWIDTH 24 0
DWIDTH 19 0
BBX 15 23 2 0
BITMAP
E1FE
E1FE
E00E
E00E
E00E
E00E
E00E
E00E
E00E
E00E
E00E
E00E
E00E
E00E
E00E
E00E
E00E
000E
000E
001E
FFFC
FFF8
FFE0
ENDCHAR
STARTCHAR char307
ENCODING 307
SWIDTH 24 0
DWIDTH 19 0
BBX 14 31 3 -7
BITMAP
E03C
E03C
E03C
E03C
0000
0000
E3FC
E3FC
E01C
E01C
E01C
E01C
E01C
E01C
E01C
E01C
E01C
E01C
E01C
E01C
E01C
E01C
E01C
E01C
001C
0018
0038
0038
00F8
1FF0
1FE0
ENDCHAR
STARTCHAR char308
ENCODING 308
SWIDTH 24 0
DWIDTH 19 0
BBX 16 30 2 0
BITMAP
0038
007C
00EE
01C6
0183
0000
0000
0FF8
0FF8
0038
0038
0038
0038
0038
0038
0038
0038
0038
0038
0038
0038
0038
0038
0038
0038
8078
C070
FBF0
FFE0
3F80
ENDCHAR
STARTCHAR char309
ENCODING 309
SWIDTH 24 0
DWIDTH 19 0
BBX 13 33 4 -7
BITMAP
0380
0380
07C0
06E0
0C60
1C30
1838
0000
7F80
7F80
0380
0380
0380
0380
0380
0380
0380
0380
0380
0380
0380
0380
0380
0380
0380
0380
0380
0380
0380
0380
0F00
FE00
FC00
ENDCHAR
STARTCHAR char310
ENCODING 310
SWIDTH 24 0
DWIDTH 19 0
BBX 17 31 2 -8
BITMAP
E00780
E00E00
E01E00
E03C00
E07800
E0F000
E1E000
E3C000
E78000
EF0000
FF0000
FF8000
FBC000
F1E000
E0E000
E0F000
E07800
E03800
E03C00
E01E00
E00E00
E00F00
E00780
000000
000000
000000
01E000
01C000
01C000
038000
038000
ENDCHAR
STARTCHAR char311
ENCODING 311
SWIDTH 24 0
DWIDTH 19 0
BBX 15 32 4 -8
BITMAP
E000
E000
E000
E000
E000
E000
E03C
E070
E0E0
E1C0
E380
E700
EE00
FE00
FF00
F780
E380
E1C0
E1E0
E0E0
E070
E078
E03C
E01E
0000
0000
0000
03C0
0780
0700
0600
0E00
ENDCHAR
STARTCHAR char312
ENCODING 312
SWIDTH 24 0
DWIDTH 19 0
BBX 15 18 3 0
BITMAP
E03C
E070
E0E0
E1C0
E380
E700
EE00
FE00
FF00
F380
E3C0
E1C0
E0E0
E0F0
E078
E038
E03C
E01E
ENDCHAR
STARTCHAR char313
ENCODING 313
SWIDTH 24 0
DWIDTH 19 0
BBX 15 29 3 0
BITMAP
1C00
3800
3000
E000
0000
0000
F000
F000
F000
F000
F000
F000
F000
F000
F000
F000
F000
F000
F000
F000
F000
F000
F000
F000
F000
F000
FFFE
FFFE
FFFE
ENDCHAR
STARTCHAR char314
ENCODING 314
SWIDTH 24 0
DWIDTH 19 0
BBX 14 30 2 0
BITMAP
01C0
0380
0700
0600
0E00
0000
FF00
FF00
0700
0700
0700
0700
0700
0700
0700
0700
0700
0700
0700
0700
0700
0700
0700
0700
0700
0700
0780
03C0
01FC
00FC
ENDCHAR
STARTCHAR char315
ENCODING 315
SWIDTH 24 0
DWIDTH 19 0
BBX 15 31 3 -8
BITMAP
F000
F000
F000
F000
F000
F000
F000
F000
F000
F000
F000
F000
F000
F000
F000
F000
F000
F000
F000
F000
FFFE
FFFE
FFFE
0000
0000
0000
03C0
0380
0380
0700
0700
ENDCHAR
STARTCHAR char316
ENCODING 316
SWIDTH 24 0
DWIDTH 19 0
BBX 14 32 2 -8
BITMAP
FF00
FF00
0700
0700
0700
0700
0700
0700
0700
0700
0700
0700
0700
0700
0700
0700
0700
0700
0700
0700
0780
03C0
01FC
00FC
0000
0000
0000
03C0
0780
0700
0600
0E00
ENDCHAR
STARTCHAR char317
ENCODING 317
SWIDTH 24 0
DWIDTH 19 0
BBX 15 23 3 0
BITMAP
F0E0
F0E0
F0E0
F0C0
F1C0
F1C0
F000
F000
F000
F000
F000
F000
F000
F000
F000
F000
F000
F000
F000
F000
FFFE
FFFE
FFFE
ENDCHAR
STARTCHAR char318
ENCODING 318
SWIDTH 24 0
DWIDTH 19 0
BBX 16 24 2 0
BITMAP
FF07
FF07
0706
070E
070E
070C
0700
0700
0700
0700
0700
0700
0700
0700
0700
0700
0700
0700
0700
0700
0780
03C0
01FC
00FC
ENDCHAR
STARTCHAR char319
ENCODING 319
SWIDTH 24 0
DWIDTH 19 0
BBX 15 23 3 0
BITMAP
F000
F000
F000
F000
F000
F000
F000
F000
F000
F000
F000
F0E0
F0E0
F0E0
F000
F000
F000
F000
F000
F000
FFFE
FFFE
FFFE
ENDCHAR
STARTCHAR char320
ENCODING 320
SWIDTH 24 0
DWIDTH 19 0
BBX 13 24 3 0
BITMAP
FE00
FE00
0E00
0E00
0E00
0E00
0E00
0E00
0E00
0E00
0E00
0E00
0E38
0E38
0E38
0E00
0E00
0E00
0E00
0600
0700
07C0
03F8
01F8
ENDCHAR
STARTCHAR char321
ENCODING 321
SWIDTH 24 0
DWIDTH 19 0
BBX 18 23 0 0
BITMAP
1E0000
1E0000
1E0000
1E0000
1E0000
1E0000
1E1000
1E3800
1EF000
1FC000
1F8000
1E0000
3E0000
7E0000
FE0000
5E0000
1E0000
1E0000
1E0000
1E0000
1FFFC0
1FFFC0
1FFFC0
ENDCHAR
STARTCHAR char322
ENCODING 322
SWIDTH 24 0
DWIDTH 19 0
BBX 15 24 1 0
BITMAP
7F80
7F80
0380
0380
0380
0380
0384
039E
03BC
03F0
03E0
0780
0F80
3F80
7B80
E380
4380
0380
0380
0380
03C0
01E0
00FE
007E
ENDCHAR
STARTCHAR char323
ENCODING 323
SWIDTH 24 0
DWIDTH 19 0
BBX 15 29 2 0
BITMAP
0070
00E0
01C0
0380
0000
0000
F00E
F80E
F80E
FC0E
FC0E
EC0E
EE0E
E60E
E70E
E70E
E38E
E38E
E18E
E1CE
E0CE
E0EE
E0EE
E06E
E07E
E03E
E03E
E03E
E01E
ENDCHAR
STARTCHAR char324
ENCODING 324
SWIDTH 24 0
DWIDTH 19 0
BBX 13 27 3 0
BITMAP
0070
00E0
00E0
01C0
0380
0700
0600
0000
0000
E3E0
EFF0
FFF8
F038
F038
E038
E018
E018
E018
E018
E018
E018
E018
E018
E018
E018
E018
E018
ENDCHAR
STARTCHAR char325
ENCODING 325
SWIDTH 24 0
DWIDTH 19 0
BBX 15 31 2 -8
BITMAP
F00E
F80E
F80E
FC0E
FC0E
EC0E
EE0E
E60E
E70E
E70E
E38E
E38E
E18E
E1CE
E0CE
E0EE
E0EE
E06E
E07E
E03E
E03E
E03E
E01E
0000
0000
0000
03C0
0380
0380
0700
0700
ENDCHAR
STARTCHAR char326
ENCODING 326
SWIDTH 24 0
DWIDTH 19 0
BBX 13 26 3 -8
BITMAP
E3E0
EFF0
FFF8
F038
F038
E038
E018
E018
E018
E018
E018
E018
E018
E018
E018
E018
E018
E018
0000
0000
0000
0780
0700
0700
0600
0E00
ENDCHAR
STARTCHAR char327
ENCODING 327
SWIDTH 24 0
DWIDTH 19 0
BBX 15 29 2 0
BITMAP
1C38
0670
07E0
03C0
0000
0000
F00E
F80E
F80E
FC0E
FC0E
EC0E
EE0E
E60E
E70E
E70E
E38E
E38E
E18E
E1CE
E0CE
E0EE
E0EE
E06E
E07E
E03E
E03E
E03E
E01E
ENDCHAR
STARTCHAR char328
ENCODING 328
SWIDTH 24 0
DWIDTH 19 0
BBX 13 27 3 0
BITMAP
7060
3060
18C0
1DC0
0F80
0700
0700
0000
0000
E3E0
EFF0
FFF8
F038
F038
E038
E018
E018
E018
E018
E018
E018
E018
E018
E018
E018
E018
E018
ENDCHAR
STARTCHAR char329
ENCODING 329
SWIDTH 24 0
DWIDTH 19 0
BBX 19 24 0 0
BITMAP
380000
380000
380000
780000
780000
700000
731F00
E3BFC0
E3FFC0
03C1E0
0380E0
0380E0
0380E0
0380E0
0380E0
0380E0
0380E0
0380E0
0380E0
0380E0
0380E0
0380E0
0380E0
0380E0
ENDCHAR
STARTCHAR char330
ENCODING 330
SWIDTH 24 0
DWIDTH 19 0
BBX 15 30 2 -7
BITMAP
E1F0
E7F8
EFFC
E81C
F01E
F00E
F00E
F00E
E00E
E00E
E00E
E00E
E00E
E00E
E00E
E00E
E00E
E00E
E00E
E00E
E00E
E00E
E00E
000E
000E
000E
001E
007C
03F8
03F0
ENDCHAR
STARTCHAR char331
ENCODING 331
SWIDTH 24 0
DWIDTH 19 0
BBX 13 25 3 -7
BITMAP
E3E0
EFF0
FFF8
F038
F038
E038
E018
E018
E018
E018
E018
E018
E018
E018
E018
E018
E018
E018
0018
0038
0038
0038
00F8
07F0
07C0
ENDCHAR
STARTCHAR char332
ENCODING 332
SWIDTH 24 0
DWIDTH 19 0
BBX 15 29 2 0
BITMAP
1FF0
1FF0
0000
0000
0000
0000
07E0
1FF0
3EF8
783C
701C
701E
F00E
E00E
E00E
E00E
E00E
E00E
E00E
E00E
E00E
E00E
F00E
701E
701C
783C
3EF8
1FF0
07C0
ENDCHAR
STARTCHAR char333
ENCODING 333
SWIDTH 24 0
DWIDTH 19 0
BBX 15 23 2 0
BITMAP
1FF0
1FF0
0000
0000
0000
07E0
1FF0
3EF8
783C
701C
F00E
E00E
E00E
E00E
E00E
E00E
E00E
F00E
701C
783C
3EF8
1FF0
07E0
ENDCHAR
STARTCHAR char334
ENCODING 334
SWIDTH 24 0
DWIDTH 19 0
BBX 15 29 2 0
BITMAP
1838
1C70
0FF0
07C0
0000
0000
07E0
1FF0
3EF8
783C
701C
701E
F00E
E00E
E00E
E00E
E00E
E00E
E00E
E00E
E00E
E00E
F00E
701E
701C
783C
3EF8
1FF0
07E0
ENDCHAR
STARTCHAR char335
ENCODING 335
SWIDTH 24 0
DWIDTH 19 0
BBX 15 24 2 0
BITMAP
1838
1FF0
0FE0
0000
0000
0000
07E0
1FF0
3EF8
783C
701C
F00E
E00E
E00E
E00E
E00E
E00E
E00E
700E
701C
783C
3EF8
1FF0
07E0
ENDCHAR
STARTCHAR char336
ENCODING 336
SWIDTH 24 0
DWIDTH 19 0
BBX 15 30 2 0
BITMAP
039C
0738
0630
1CE0
0000
0000
0000
07E0
1FF0
3EF8
783C
701C
701E
F00E
E00E
E00E
E00E
E00E
E00E
E00E
E00E
E00E
E00E
F00E
701E
701C
783C
3EF8
1FF0
07C0
ENDCHAR
STARTCHAR char337
ENCODING 337
SWIDTH 24 0
DWIDTH 19 0
BBX 15 27 2 0
BITMAP
039C
0318
0738
0630
0C60
1CE0
0000
0000
0000
07E0
1FF0
3EF8
783C
701C
F00E
E00E
E00E
E00E
E00E
E00E
E00E
F00E
701C
783C
3EF8
1FF0
07E0
ENDCHAR
STARTCHAR char338
ENCODING 338
SWIDTH 24 0
DWIDTH 19 0
BBX 18 23 1 0
BITMAP
07FFC0
1FFFC0
3F7000
787000
707000
707000
F07000
E07000
E07000
E07000
E07F80
E07F80
E07000
E07000
E07000
E07000
707000
707000
707000
787000
3F7000
1FFFC0
07FFC0
ENDCHAR
STARTCHAR char339
ENCODING 339
SWIDTH 24 0
DWIDTH 19 0
BBX 19 18 0 0
BITMAP
1F0F00
3FFFC0
7FFBC0
70F0C0
60E0E0
E0E0E0
E060E0
E07FE0
E07FE0
E06000
E06000
E06000
E06000
60F000
70F020
7FFDE0
3FBFE0
1F0F80
ENDCHAR
STARTCHAR char340
ENCODING 340
SWIDTH 24 0
DWIDTH 19 0
BBX 17 29 2 0
BITMAP
01E000
018000
038000
070000
000000
000000
FFC000
FFF000
E1F800
E03C00
E01C00
E01E00
E01E00
E01E00
E01C00
E03C00
E1F800
FFE000
FFE000
E0F000
E03800
E03C00
E01C00
E01E00
E00E00
E00F00
E00700
E00780
E00380
ENDCHAR
STARTCHAR char341
ENCODING 341
SWIDTH 24 0
DWIDTH 19 0
BBX 12 27 5 0
BITMAP
00E0
01C0
0380
0300
0700
0E00
1C00
0000
0000
C3F0
CFF0
FFF0
F810
F000
E000
E000
E000
E000
E000
E000
E000
E000
E000
E000
E000
E000
E000
ENDCHAR
STARTCHAR char342
ENCODING 342
SWIDTH 24 0
DWIDTH 19 0
BBX 17 31 2 -8
BITMAP
FFC000
FFF000
E1F800
E03C00
E01C00
E01E00
E01E00
E01E00
E01C00
E03C00
E1F800
FFE000
FFE000
E0F000
E03800
E03C00
E01C00
E01E00
E00E00
E00F00
E00700
E00780
E00380
000000
000000
000000
01E000
01C000
01C000
018000
038000
ENDCHAR
STARTCHAR char343
ENCODING 343
SWIDTH 24 0
DWIDTH 19 0
BBX 13 26 4 -8
BITMAP
61F8
67F8
7FF8
7C08
7800
7000
7000
7000
7000
7000
7000
7000
7000
7000
7000
7000
7000
7000
0000
0000
0000
7800
7000
E000
E000
C000
ENDCHAR
STARTCHAR char344
ENCODING 344
SWIDTH 24 0
DWIDTH 19 0
BBX 17 29 2 0
BITMAP
387000
1CC000
0FC000
078000
000000
000000
FFC000
FFF000
E1F800
E03C00
E01C00
E01E00
E01E00
E01E00
E01C00
E03C00
E1F800
FFE000
FFE000
E0F000
E03800
E03C00
E01C00
E01E00
E00E00
E00F00
E00700
E00780
E00380
ENDCHAR
STARTCHAR char345
ENCODING 345
SWIDTH 24 0
DWIDTH 19 0
BBX 12 27 5 0
BITMAP
C0C0
61C0
3180
3B00
1F00
1E00
0C00
0000
0000
C3F0
CFF0
FFF0
F810
F000
E000
E000
E000
E000
E000
E000
E000
E000
E000
E000
E000
E000
E000
ENDCHAR
STARTCHAR char346
ENCODING 346
SWIDTH 24 0
DWIDTH 19 0
BBX 15 30 2 0
BITMAP
0070
00E0
01C0
0180
0300
0000
0000
07F0
1FFC
3EFC
700C
F000
E000
E000
E000
F000
7E00
3FE0
1FF8
01FC
003E
001E
000E
000E
000E
800E
C01E
FCFC
FFF8
1FE0
ENDCHAR
STARTCHAR char347
ENCODING 347
SWIDTH 24 0
DWIDTH 19 0
BBX 13 27 3 0
BITMAP
0070
00E0
00C0
01C0
0380
0700
0000
0000
0000
0FE0
3FF0
7DF0
7010
E000
E000
7000
7C00
3FE0
0FF0
00F8
0038
0038
0038
C078
FDF0
FFE0
3F80
ENDCHAR
STARTCHAR char348
ENCODING 348
SWIDTH 24 0
DWIDTH 19 0
BBX 15 30 2 0
BITMAP
0380
03C0
0660
0C30
1838
0000
0000
07F0
1FFC
3FFC
700C
F000
E000
E000
E000
F000
7E00
3FE0
1FF8
01FC
003E
001E
000E
000E
000E
800E
C01E
FCFC
FFF8
1FE0
ENDCHAR
STARTCHAR char349
ENCODING 349
SWIDTH 24 0
DWIDTH 19 0
BBX 13 27 3 0
BITMAP
0300
0780
0F80
1CC0
18E0
3070
0000
0000
0000
0FE0
3FF0
7CF0
7010
E000
E000
7000
7C00
3FE0
0FF0
00F8
0038
0038
0038
C078
FDF0
FFE0
3F80
ENDCHAR
STARTCHAR char350
ENCODING 350
SWIDTH 24 0
DWIDTH 19 0
BBX 15 30 2 -7
BITMAP
07F0
1FFC
3FFC
700C
F000
E000
E000
E000
F000
7E00
3FE0
1FF8
01FC
003E
001E
000E
000E
000E
800E
C01E
FCFC
FFF8
1FE0
00C0
00C0
00C0
00E0
0DE0
0FC0
0F80
ENDCHAR
STARTCHAR char351
ENCODING 351
SWIDTH 24 0
DWIDTH 19 0
BBX 13 25 3 -7
BITMAP
0FE0
3FF0
7CF0
7010
E000
E000
7000
7C00
3FC0
0FF0
00F8
0038
0038
0038
C078
F9F0
FFE0
3F80
0180
0180
0180
01C0
1BC0
1F80
1F00
ENDCHAR
STARTCHAR char352
ENCODING 352
SWIDTH 24 0
DWIDTH 19 0
BBX 15 30 2 0
BITMAP
1838
0C70
0660
03C0
0380
0000
0000
07F0
1FFC
3FFC
700C
F000
E000
E000
E000
F000
7E00
3FE0
1FF8
01FC
003E
001E
000E
000E
000E
800E
C01E
FCFC
FFF8
1FE0
ENDCHAR
STARTCHAR char353
ENCODING 353
SWIDTH 24 0
DWIDTH 19 0
BBX 13 27 3 0
BITMAP
3070
3860
18C0
0DC0
0F80
0700
0000
0000
0000
0FE0
3FF0
7CF0
7010
E000
E000
7000
7C00
3FC0
0FF0
00F8
0038
0038
0038
C078
F9F0
FFE0
3F80
ENDCHAR
STARTCHAR char354
ENCODING 354
SWIDTH 24 0
DWIDTH 19 0
BBX 18 30 1 -7
BITMAP
FFFFC0
FFFFC0
01C000
01C000
01C000
01C000
01C000
01C000
01C000
01C000
01C000
01C000
01C000
01C000
01C000
01C000
01C000
01C000
01C000
01C000
01C000
01C000
01C000
00C000
004000
006000
006000
05E000
07E000
07C000
ENDCHAR
STARTCHAR char355
ENCODING 355
SWIDTH 24 0
DWIDTH 19 0
BBX 14 30 2 -6
BITMAP
0100
0700
0700
0700
0700
0700
FFFC
FFFC
0700
0700
0700
0700
0700
0700
0700
0700
0700
0700
0700
0700
0700
07E0
03FC
00FC
0060
0060
0060
06F0
07E0
07C0
ENDCHAR
STARTCHAR char356
ENCODING 356
SWIDTH 24 0
DWIDTH 19 0
BBX 18 29 1 0
BITMAP
0E1C00
073000
03E000
01E000
000000
000000
FFFFC0
FFFFC0
01C000
01C000
01C000
01C000
01C000
01C000
01C000
01C000
01C000
01C000
01C000
01C000
01C000
01C000
01C000
01C000
01C000
01C000
01C000
01C000
01C000
ENDCHAR
STARTCHAR char357
ENCODING 357
SWIDTH 24 0
DWIDTH 19 0
BBX 14 26 2 0
BITMAP
001C
0018
0038
0338
0738
0730
0700
0700
FFFC
FFFC
0700
0700
0700
0700
0700
0700
0700
0700
0700
0700
0700
0700
0700
07C0
03FC
01FC
ENDCHAR
STARTCHAR char358
ENCODING 358
SWIDTH 24 0
DWIDTH 19 0
BBX 18 23 1 0
BITMAP
FFFFC0
FFFFC0
01C000
01C000
01C000
01C000
01C000
01C000
01C000
01C000
01C000
01C000
1FFC00
1FFC00
01C000
01C000
01C000
01C000
01C000
01C000
01C000
01C000
01C000
ENDCHAR
STARTCHAR char359
ENCODING 359
SWIDTH 24 0
DWIDTH 19 0
BBX 14 24 2 0
BITMAP
0100
0700
0700
0700
0700
0700
FFFC
FFFC
0700
0700
0700
0700
7FE0
7FE0
0700
0700
0700
0700
0700
0700
0700
07C0
03FC
01FC
ENDCHAR
STARTCHAR char360
ENCODING 360
SWIDTH 24 0
DWIDTH 19 0
BBX 15 30 2 0
BITMAP
0E18
1FB8
1BF0
30E0
0000
0000
0000
E00E
E00E
E00E
E00E
E00E
E00E
E00E
E00E
E00E
E00E
E00E
E00E
E00E
E00E
E00E
E00E
E00E
F00E
701E
701C
3EFC
1FF8
0FE0
ENDCHAR
STARTCHAR char361
ENCODING 361
SWIDTH 24 0
DWIDTH 19 0
BBX 13 24 3 0
BITMAP
1C30
3F30
37E0
61C0
0000
0000
E018
E018
E018
E018
E018
E018
E018
E018
E018
E018
E038
E038
E038
E038
F078
7FD8
3F98
1F18
ENDCHAR
STARTCHAR char362
ENCODING 362
SWIDTH 24 0
DWIDTH 19 0
BBX 15 29 2 0
BITMAP
1FF0
1FF0
0000
0000
0000
0000
E00E
E00E
E00E
E00E
E00E
E00E
E00E
E00E
E00E
E00E
E00E
E00E
E00E
E00E
E00E
E00E
E00E
F00E
701E
701C
3EFC
1FF8
0FE0
ENDCHAR
STARTCHAR char363
ENCODING 363
SWIDTH 24 0
DWIDTH 19 0
BBX 13 23 3 0
BITMAP
3FE0
3FE0
0000
0000
0000
E018
E018
E018
E018
E018
E018
E018
E018
E018
E018
E038
E038
E038
E038
F078
7FD8
3F98
1F18
ENDCHAR
STARTCHAR char364
ENCODING 364
SWIDTH 24 0
DWIDTH 19 0
BBX 15 29 2 0
BITMAP
1838
1C70
0FF0
07C0
0000
0000
E00E
E00E
E00E
E00E
E00E
E00E
E00E
E00E
E00E
E00E
E00E
E00E
E00E
E00E
E00E
E00E
E00E
F00E
701E
701C
3EFC
1FF8
0FE0
ENDCHAR
STARTCHAR char365
ENCODING 365
SWIDTH 24 0
DWIDTH 19 0
BBX 13 24 3 0
BITMAP
3070
3FE0
1FC0
0000
0000
0000
E018
E018
E018
E018
E018
E018
E018
E018
E018
E018
E038
E038
E038
E038
F078
7FD8
3FD8
1F18
ENDCHAR
STARTCHAR char366
ENCODING 366
SWIDTH 24 0
DWIDTH 19 0
BBX 15 30 2 0
BITMAP
03C0
07E0
0EF0
0C30
1830
0C30
0C70
EFEE
E7CE
E00E
E00E
E00E
E00E
E00E
E00E
E00E
E00E
E00E
E00E
E00E
E00E
E00E
E00E
E00E
F00E
701E
701C
3EFC
1FF8
0FE0
ENDCHAR
STARTCHAR char367
ENCODING 367
SWIDTH 24 0
DWIDTH 19 0
BBX 13 28 3 0
BITMAP
0780
0FC0
1DE0
1860
1860
1860
1DE0
0FC0
0780
0000
E018
E018
E018
E018
E018
E018
E018
E018
E018
E018
E038
E038
E038
E038
F078
7FD8
3F98
1F18
ENDCHAR
STARTCHAR char368
ENCODING 368
SWIDTH 24 0
DWIDTH 19 0
BBX 15 29 2 0
BITMAP
039C
0738
0630
1CE0
0000
0000
E00E
E00E
E00E
E00E
E00E
E00E
E00E
E00E
E00E
E00E
E00E
E00E
E00E
E00E
E00E
E00E
E00E
F00E
701E
701C
3EFC
1FF8
0FE0
ENDCHAR
STARTCHAR char369
ENCODING 369
SWIDTH 24 0
DWIDTH 19 0
BBX 13 26 3 0
BITMAP
0738
0630
0E70
0C60
18C0
39C0
0000
0000
E018
E018
E018
E018
E018
E018
E018
E018
E018
E018
E038
E038
E038
E038
F078
7FD8
3F98
1F18
ENDCHAR
STARTCHAR char370
ENCODING 370
SWIDTH 24 0
DWIDTH 19 0
BBX 15 30 2 -7
BITMAP
E00E
E00E
E00E
E00E
E00E
E00E
E00E
E00E
E00E
E00E
E00E
E00E
E00E
E00E
E00E
E00E
E00E
F00E
701E
701C
3EFC
1FF8
0FE0
0300
0300
0600
0600
07E0
07E0
03E0
ENDCHAR
STARTCHAR char371
ENCODING 371
SWIDTH 24 0
DWIDTH 19 0
BBX 16 25 3 -7
BITMAP
E018
E018
E018
E018
E018
E018
E018
E018
E018
E018
E038
E038
E038
E038
F078
7FD8
3F98
1F18
0018
0018
0030
0030
003F
003F
001F
ENDCHAR
STARTCHAR char372
ENCODING 372
SWIDTH 24 0
DWIDTH 19 0
BBX 19 29 0 0
BITMAP
00F000
01B000
039800
070C00
000000
000000
E000E0
E000E0
E000E0
6000E0
7000E0
7000C0
70E1C0
70F1C0
71F1C0
71F1C0
31B1C0
31B1C0
39B980
3B9980
3B1B80
3B1B80
3B1B80
1B1F80
1F0F00
1E0F00
1E0F00
1E0F00
1E0700
ENDCHAR
STARTCHAR char373
ENCODING 373
SWIDTH 24 0
DWIDTH 19 0
BBX 19 26 0 0
BITMAP
00E000
00F000
01B000
039800
031C00
060E00
000000
000000
E000E0
E000E0
6000E0
7000C0
7001C0
70E1C0
70E1C0
30E1C0
38F180
39B380
39B380
199B80
1B1B00
1F1B00
1F1F00
0F0F00
0E0F00
0E0E00
ENDCHAR
STARTCHAR char374
ENCODING 374
SWIDTH 24 0
DWIDTH 19 0
BBX 18 29 1 0
BITMAP
01E000
036000
073000
0E1800
000000
000000
E003C0
F00780
700700
380F00
380E00
1C1C00
1E1C00
0E3800
073800
077000
03F000
03E000
01C000
01C000
01C000
01C000
01C000
01C000
01C000
01C000
01C000
01C000
01C000
ENDCHAR
STARTCHAR char375
ENCODING 375
SWIDTH 24 0
DWIDTH 19 0
BBX 16 33 2 -7
BITMAP
0180
03C0
07C0
06E0
0C70
1C30
1818
0000
E007
E00E
700E
700E
701C
381C
381C
3838
1C38
1C30
0C70
0E70
0EE0
07E0
07E0
07C0
03C0
0380
0380
0380
0700
0700
1E00
7E00
7800
ENDCHAR
STARTCHAR char376
ENCODING 376
SWIDTH 24 0
DWIDTH 19 0
BBX 18 29 1 0
BITMAP
0E3800
0E3800
0E3800
000000
000000
000000
E003C0
F00780
700700
380F00
380E00
1C1C00
1E1C00
0E3800
073800
077000
03F000
03E000
01C000
01C000
01C000
01C000
01C000
01C000
01C000
01C000
01C000
01C000
01C000
ENDCHAR
STARTCHAR char377
ENCODING 377
SWIDTH 24 0
DWIDTH 19 0
BBX 16 29 2 0
BITMAP
00E0
01C0
0380
0700
0000
0000
FFFE
FFFE
000E
001C
003C
0038
0070
00F0
00E0
01C0
03C0
0380
0700
0F00
0E00
1C00
3C00
3800
7000
7000
E000
FFFF
FFFF
ENDCHAR
STARTCHAR char378
ENCODING 378
SWIDTH 24 0
DWIDTH 19 0
BBX 13 26 3 0
BITMAP
0038
0070
00E0
00C0
0180
0380
0000
0000
7FF8
7FF8
0038
0078
0070
00E0
01C0
03C0
0780
0700
0E00
1C00
3C00
3800
7000
E000
FFF8
FFF8
ENDCHAR
STARTCHAR char379
ENCODING 379
SWIDTH 24 0
DWIDTH 19 0
BBX 16 29 2 0
BITMAP
0380
0380
0380
0000
0000
0000
FFFE
FFFE
000E
001C
003C
0038
0070
00F0
00E0
01C0
03C0
0380
0700
0F00
0E00
1C00
3C00
3800
7000
7000
E000
FFFF
FFFF
ENDCHAR
STARTCHAR char380
ENCODING 380
SWIDTH 24 0
DWIDTH 19 0
BBX 13 23 3 0
BITMAP
0700
0700
0700
0000
0000
7FF8
7FF8
0038
0078
0070
00E0
01C0
03C0
0780
0700
0E00
1C00
3C00
3800
7000
E000
FFF8
FFF8
ENDCHAR
STARTCHAR char381
ENCODING 381
SWIDTH 24 0
DWIDTH 19 0
BBX 16 29 2 0
BITMAP
3870
1CC0
0FC0
0780
0000
0000
FFFE
FFFE
000E
001C
003C
0038
0070
00F0
00E0
01C0
03C0
0380
0700
0F00
0E00
1C00
3C00
3800
7000
7000
E000
FFFF
FFFF
ENDCHAR
STARTCHAR char382
ENCODING 382
SWIDTH 24 0
DWIDTH 19 0
BBX 13 26 3 0
BITMAP
3070
18E0
1CC0
0D80
0780
0700
0000
0000
7FF8
7FF8
0038
0078
0070
00E0
01C0
03C0
0780
0700
0E00
1C00
3C00
3800
7000
E000
FFF8
FFF8
ENDCHAR
STARTCHAR char383
ENCODING 383
SWIDTH 24 0
DWIDTH 19 0
BBX 14 28 4 -4
BITMAP
01FC
03FC
07C0
0700
0700
0700
FF00
FF00
0700
0700
0700
0700
0700
0700
0700
0700
0700
0700
0700
0700
0700
0700
0700
0700
0700
0700
0700
0700
ENDCHAR
STARTCHAR char402
ENCODING 402
SWIDTH 24 0
DWIDTH 19 0
BBX 19 31 0 -7
BITMAP
0007C0
000FE0
001F60
003C00
003800
003800
003800
003000
007000
007000
007000
07FF80
07FF80
006000
006000
00E000
00E000
00E000
00E000
00E000
01C000
01C000
01C000
01C000
01C000
038000
038000
078000
FF0000
FE0000
FC0000
ENDCHAR
STARTCHAR char416
ENCODING 416
SWIDTH 24 0
DWIDTH 19 0
BBX 19 24 0 0
BITMAP
0000C0
07E060
1FFCE0
3EFFC0
381FC0
701E00
700E00
700E00
F00F00
F00F00
E00F00
E00F00
E00F00
E00F00
E00F00
F00E00
F00E00
700E00
700E00
701C00
381C00
3EF800
1FF000
07E000
ENDCHAR
STARTCHAR char417
ENCODING 417
SWIDTH 24 0
DWIDTH 19 0
BBX 19 18 0 0
BITMAP
07E0E0
1FF860
3FFC60
381FE0
700FC0
700E00
700E00
700E00
F00E00
F00E00
700E00
700E00
700E00
700E00
381C00
3FFC00
1FF800
07E000
ENDCHAR
STARTCHAR char420
ENCODING 420
SWIDTH 24 0
DWIDTH 19 0
BBX 19 23 0 0
BITMAP
3FFE00
7FFF80
FF0FC0
EF01E0
EF01E0
EF00E0
0F00E0
0F00E0
0F00E0
0F01E0
0F03C0
0FFF80
0FFF00
0F0000
0F0000
0F0000
0F0000
0F0000
0F0000
0F0000
0F0000
0F0000
0F0000
ENDCHAR
STARTCHAR char431
ENCODING 431
SWIDTH 24 0
DWIDTH 19 0
BBX 19 24 0 0
BITMAP
000060
E00E60
E00E60
E00FE0
E00FC0
E00E00
E00E00
E00E00
E00E00
E00E00
E00E00
E00E00
E00E00
E00E00
E00E00
E00E00
E00E00
E00E00
E00E00
701C00
701C00
7EF800
3FF000
0FE000
ENDCHAR
STARTCHAR char432
ENCODING 432
SWIDTH 24 0
DWIDTH 19 0
BBX 18 18 1 0
BITMAP
C03880
C038C0
C039C0
C03F80
C03F80
C03800
C03800
C03800
C03800
C03800
C03800
C03800
E03800
E07800
E07800
FFF800
7FB800
3E3800
ENDCHAR
STARTCHAR char486
ENCODING 486
SWIDTH 24 0
DWIDTH 19 0
BBX 15 30 2 0
BITMAP
0C0C
0618
0330
01E0
00E0
0000
0000
03F0
0FFC
1F3C
3C04
7802
7000
F000
E000
E000
E000
E000
E07E
E07E
E00E
E00E
E00E
F00E
700E
780E
380E
3F7E
0FFC
03F0
ENDCHAR
STARTCHAR char487
ENCODING 487
SWIDTH 24 0
DWIDTH 19 0
BBX 15 33 2 -7
BITMAP
1C18
0C30
0660
07E0
03C0
01C0
0000
0000
07CE
1FEE
3EFE
783E
701E
701E
700E
E00E
E00E
E00E
E00E
700E
701E
701E
383E
3EFE
1FEE
07CE
000E
000C
001C
201C
3C78
3FF0
1FE0
ENDCHAR
STARTCHAR char510
ENCODING 510
SWIDTH 24 0
DWIDTH 19 0
BBX 19 31 0 -1
BITMAP
001C00
003800
007000
00E000
00C000
000000
000040
01F0E0
07FCC0
0FBF80
1E0F80
1C0700
1C0780
3C0F80
381F80
383B80
383380
386380
38E380
38C380
398380
3B0380
3F0380
3E0380
3C0780
1C0700
3E0F00
3FBE00
67FC00
E1F800
400000
ENDCHAR
STARTCHAR char511
ENCODING 511
SWIDTH 24 0
DWIDTH 19 0
BBX 17 28 1 -1
BITMAP
001C00
003800
007000
00E000
00C000
038000
000000
000000
000180
03F180
0FFB00
1F7F00
3C1E00
381E00
783F00
703700
706700
70C700
71C700
738700
770700
3E0700
3C0E00
3C1E00
3F7C00
6FF800
E3F000
C00000
ENDCHAR
STARTCHAR char536
ENCODING 536
SWIDTH 24 0
DWIDTH 19 0
BBX 15 31 2 -8
BITMAP
07F0
1FFC
3EFC
700C
F000
E000
E000
E000
F000
7E00
3FE0
1FF8
01FC
003E
001E
000E
000E
000E
800E
C01E
FCFC
FFF8
1FE0
0000
0000
0000
03C0
0780
0700
0700
0E00
ENDCHAR
STARTCHAR char537
ENCODING 537
SWIDTH 24 0
DWIDTH 19 0
BBX 13 26 3 -8
BITMAP
0FE0
3FF0
7DF0
7010
E000
E000
7000
7C00
3FE0
0FF0
00F8
0038
0038
0038
C078
FDF0
FFE0
3F80
0000
0000
0000
0780
0F00
0E00
0E00
1C00
ENDCHAR
STARTCHAR char538
ENCODING 538
SWIDTH 24 0
DWIDTH 19 0
BBX 18 30 1 -7
BITMAP
FFFFC0
FFFFC0
01C000
01C000
01C000
01C000
01C000
01C000
01C000
01C000
01C000
01C000
01C000
01C000
01C000
01C000
01C000
01C000
01C000
01C000
01C000
01C000
01C000
00C000
006000
006000
007000
06F000
07E000
07C000
ENDCHAR
STARTCHAR char539
ENCODING 539
SWIDTH 24 0
DWIDTH 19 0
BBX 14 30 2 -6
BITMAP
0100
0700
0700
0700
0700
0700
FFFC
FFFC
0700
0700
0700
0700
0700
0700
0700
0700
0700
0700
0700
0700
0700
07C0
03FC
007C
0020
0030
0030
0378
03F0
03E0
ENDCHAR
STARTCHAR char710
ENCODING 710
SWIDTH 24 0
DWIDTH 19 0
BBX 10 6 5 20
BITMAP
1C00
1E00
3600
7300
6380
C1C0
ENDCHAR
STARTCHAR char711
ENCODING 711
SWIDTH 24 0
DWIDTH 19 0
BBX 10 6 5 20
BITMAP
C1C0
6380
7300
3600
1E00
1C00
ENDCHAR
STARTCHAR char728
ENCODING 728
SWIDTH 24 0
DWIDTH 19 0
BBX 10 5 5 21
BITMAP
C0C0
C180
F780
7F00
3E00
ENDCHAR
STARTCHAR char729
ENCODING 729
SWIDTH 24 0
DWIDTH 19 0
BBX 3 3 8 21
BITMAP
E0
E0
E0
ENDCHAR
STARTCHAR char730
ENCODING 730
SWIDTH 24 0
DWIDTH 19 0
BBX 9 9 5 20
BITMAP
1E00
7F00
7780
E180
C180
E180
7700
7F00
1E00
ENDCHAR
STARTCHAR char731
ENCODING 731
SWIDTH 24 0
DWIDTH 19 0
BBX 5 6 7 -6
BITMAP
60
C0
C0
E8
F8
78
ENDCHAR
STARTCHAR char732
ENCODING 732
SWIDTH 24 0
DWIDTH 19 0
BBX 11 4 4 21
BITMAP
7C60
7EE0
67C0
C380
ENDCHAR
STARTCHAR char733
ENCODING 733
SWIDTH 24 0
DWIDTH 19 0
BBX 11 6 5 20
BITMAP
1CE0
18C0
39C0
3180
6300
E700
ENDCHAR
STARTCHAR char768
ENCODING 768
SWIDTH 24 0
DWIDTH 19 0
BBX 8 6 -15 20
BITMAP
F0
70
38
1C
0C
07
ENDCHAR
STARTCHAR char769
ENCODING 769
SWIDTH 24 0
DWIDTH 19 0
BBX 8 6 -12 20
BITMAP
0F
1C
1C
38
70
E0
ENDCHAR
STARTCHAR char771
ENCODING 771
SWIDTH 24 0
DWIDTH 19 0
BBX 11 4 -15 21
BITMAP
7CE0
7FC0
C7C0
C380
ENDCHAR
STARTCHAR char777
ENCODING 777
SWIDTH 24 0
DWIDTH 19 0
BBX 7 7 -13 20
BITMAP
FC
FC
8E
0E
0C
18
38
ENDCHAR
STARTCHAR char803
ENCODING 803
SWIDTH 24 0
DWIDTH 19 0
BBX 3 3 -11 -6
BITMAP
E0
E0
E0
ENDCHAR
STARTCHAR char900
ENCODING 900
SWIDTH 24 0
DWIDTH 19 0
BBX 8 6 7 20
BITMAP
0F
0E
1C
38
70
E0
ENDCHAR
STARTCHAR char901
ENCODING 901
SWIDTH 24 0
DWIDTH 19 0
BBX 11 9 4 21
BITMAP
00E0
01C0
0380
0700
0600
0E00
E1C0
E1C0
E1C0
ENDCHAR
STARTCHAR char902
ENCODING 902
SWIDTH 24 0
DWIDTH 19 0
BBX 20 23 -1 0
BITMAP
0F7800
1CF800
18F800
30DC00
71DC00
E1DC00
01CE00
038E00
038E00
038700
070700
070700
070700
070380
0FFF80
0FFF80
0FFFC0
1C01C0
1C01C0
1C01E0
3C00E0
3800E0
3800F0
ENDCHAR
STARTCHAR char904
ENCODING 904
SWIDTH 24 0
DWIDTH 19 0
BBX 23 23 -4 0
BITMAP
0F7FFE
0E7FFE
1C7000
387000
707000
E07000
007000
007000
007000
007000
007FFE
007FFE
007000
007000
007000
007000
007000
007000
007000
007000
007000
007FFE
007FFE
ENDCHAR
STARTCHAR char905
ENCODING 905
SWIDTH 24 0
DWIDTH 19 0
BBX 24 23 -5 0
BITMAP
0F7007
0E7007
1C7007
387007
707007
E07007
007007
007007
007007
007007
007FFF
007FFF
007007
007007
007007
007007
007007
007007
007007
007007
007007
007007
007007
ENDCHAR
STARTCHAR char906
ENCODING 906
SWIDTH 24 0
DWIDTH 19 0
BBX 21 23 -3 0
BITMAP
0EFFF8
1CFFF8
380700
700700
E00700
C00700
000700
000700
000700
000700
000700
000700
000700
000700
000700
000700
000700
000700
000700
000700
000700
00FFF8
00FFF8
ENDCHAR
STARTCHAR char908
ENCODING 908
SWIDTH 24 0
DWIDTH 19 0
BBX 21 24 -3 0
BITMAP
001F00
0F7FC0
1CFBE0
39E0F0
31C070
61C078
83C038
038038
038038
038038
038038
038038
038038
038038
038038
038038
038038
03C038
01C078
01C070
01E0F0
00FBE0
007FC0
001F00
ENDCHAR
STARTCHAR char910
ENCODING 910
SWIDTH 24 0
DWIDTH 19 0
BBX 26 23 -7 0
BITMAP
0EF00780
1CFC0FC0
397E1FC0
700F3BC0
600739C0
C0077000
0003F000
0003E000
0003E000
0001E000
0001C000
0001C000
0001C000
0001C000
0001C000
0001C000
0001C000
0001C000
0001C000
0001C000
0001C000
0001C000
0001C000
ENDCHAR
STARTCHAR char911
ENCODING 911
SWIDTH 24 0
DWIDTH 19 0
BBX 22 23 -3 0
BITMAP
0F1F00
1C7FC0
38FBE0
31C0F0
73C070
E38038
038038
070038
070038
07001C
07001C
07003C
07003C
070038
078038
038038
038070
01C070
01C0E0
00E0E0
07F1FC
07F1FC
07F1FC
ENDCHAR
STARTCHAR char912
ENCODING 912
SWIDTH 24 0
DWIDTH 19 0
BBX 11 30 4 0
BITMAP
00E0
01C0
0380
0700
0600
0C00
E1C0
E1C0
E1C0
0000
0000
0000
7E00
7E00
0E00
0E00
0E00
0E00
0E00
0E00
0E00
0E00
0E00
0E00
0E00
0E00
0E00
0780
07E0
01E0
ENDCHAR
STARTCHAR char913
ENCODING 913
SWIDTH 24 0
DWIDTH 19 0
BBX 18 23 1 0
BITMAP
01E000
03E000
03E000
037000
077000
077000
073800
0E3800
0E3800
0E1C00
1C1C00
1C1C00
1C1C00
1C0E00
3FFE00
3FFE00
3FFF00
700700
700700
700780
F00380
E00380
E003C0
ENDCHAR
STARTCHAR char914
ENCODING 914
SWIDTH 24 0
DWIDTH 19 0
BBX 15 23 3 0
BITMAP
FFC0
FFF0
E1F8
E03C
E01C
E01C
E01C
E03C
E038
E1F8
FFE0
FFF0
E078
E01C
E01C
E00E
E00E
E01E
E01E
E01C
E1FC
FFF8
FFC0
ENDCHAR
STARTCHAR char915
ENCODING 915
SWIDTH 24 0
DWIDTH 19 0
BBX 15 23 3 0
BITMAP
FFFE
FFFE
F000
F000
F000
F000
F000
F000
F000
F000
F000
F000
F000
F000
F000
F000
F000
F000
F000
F000
F000
F000
F000
ENDCHAR
STARTCHAR char916
ENCODING 916
SWIDTH 24 0
DWIDTH 19 0
BBX 18 23 1 0
BITMAP
01E000
03E000
03E000
037000
077000
077000
073800
0E3800
0E3800
0E1C00
1C1C00
1C1C00
1C1C00
1C0E00
380E00
380E00
380700
700700
700700
700780
FFFF80
FFFF80
FFFFC0
ENDCHAR
STARTCHAR char917
ENCODING 917
SWIDTH 24 0
DWIDTH 19 0
BBX 14 23 3 0
BITMAP
FFFC
FFFC
E000
E000
E000
E000
E000
E000
E000
E000
FFF8
FFF8
E000
E000
E000
E000
E000
E000
E000
E000
E000
FFFC
FFFC
ENDCHAR
STARTCHAR char918
ENCODING 918
SWIDTH 24 0
DWIDTH 19 0
BBX 16 23 2 0
BITMAP
FFFE
FFFE
000E
001C
003C
0038
0070
00F0
00E0
01C0
03C0
0380
0700
0F00
0E00
1C00
3C00
3800
7000
7000
E000
FFFF
FFFF
ENDCHAR
STARTCHAR char919
ENCODING 919
SWIDTH 24 0
DWIDTH 19 0
BBX 15 23 2 0
BITMAP
E00E
E00E
E00E
E00E
E00E
E00E
E00E
E00E
E00E
E00E
FFFE
FFFE
E00E
E00E
E00E
E00E
E00E
E00E
E00E
E00E
E00E
E00E
E00E
ENDCHAR
STARTCHAR char920
ENCODING 920
SWIDTH 24 0
DWIDTH 19 0
BBX 18 22 1 0
BITMAP
03F000
0FF800
1F7E00
3C0E00
780700
700780
F00380
E00380
E00380
E003C0
E7F3C0
E7F3C0
E003C0
E00380
E00380
F00380
700700
780700
380E00
1F7C00
0FF800
03E000
ENDCHAR
STARTCHAR char921
ENCODING 921
SWIDTH 24 0
DWIDTH 19 0
BBX 13 23 3 0
BITMAP
FFF8
FFF8
0700
0700
0700
0700
0700
0700
0700
0700
0700
0700
0700
0700
0700
0700
0700
0700
0700
0700
0700
FFF8
FFF8
ENDCHAR
STARTCHAR char922
ENCODING 922
SWIDTH 24 0
DWIDTH 19 0
BBX 17 23 2 0
BITMAP
E00780
E00E00
E01E00
E03C00
E07800
E0F000
E1E000
E3C000
E78000
EF0000
FF0000
FF8000
FBC000
F1E000
E0E000
E0F000
E07800
E03800
E03C00
E01E00
E00E00
E00F00
E00780
ENDCHAR
STARTCHAR char923
ENCODING 923
SWIDTH 24 0
DWIDTH 19 0
BBX 18 23 1 0
BITMAP
01E000
03E000
03E000
037000
077000
077000
073800
0E3800
0E3800
0E3C00
1C1C00
1C1C00
1C1C00
1C0E00
380E00
380E00
380700
700700
700700
700780
F00380
E00380
E003C0
ENDCHAR
STARTCHAR char924
ENCODING 924
SWIDTH 24 0
DWIDTH 19 0
BBX 17 23 1 0
BITMAP
F80F80
F80F80
F80F80
FC1F80
EC1B80
EC1B80
E63B80
E63380
E73380
E37380
E36380
E3E380
E1E380
E1C380
E1C380
E00380
E00380
E00380
E00380
E00380
E00380
E00380
E00380
ENDCHAR
STARTCHAR char925
ENCODING 925
SWIDTH 24 0
DWIDTH 19 0
BBX 15 23 2 0
BITMAP
F00E
F80E
F80E
FC0E
FC0E
EC0E
EE0E
E60E
E70E
E70E
E38E
E38E
E18E
E1CE
E0CE
E0EE
E0EE
E06E
E07E
E03E
E03E
E03E
E01E
ENDCHAR
STARTCHAR char926
ENCODING 926
SWIDTH 24 0
DWIDTH 19 0
BBX 15 23 2 0
BITMAP
FFFE
FFFE
0000
0000
0000
0000
0000
0000
0000
0000
1FF0
1FF0
0000
0000
0000
0000
0000
0000
0000
0000
0000
FFFE
FFFE
ENDCHAR
STARTCHAR char927
ENCODING 927
SWIDTH 24 0
DWIDTH 19 0
BBX 15 24 2 0
BITMAP
07E0
1FF0
3EF8
783C
701C
701E
F00E
E00E
E00E
E00E
E00E
E00E
E00E
E00E
E00E
E00E
E00E
F00E
701E
701C
783C
3EF8
1FF0
07E0
ENDCHAR
STARTCHAR char928
ENCODING 928
SWIDTH 24 0
DWIDTH 19 0
BBX 15 23 2 0
BITMAP
FFFE
FFFE
E00E
E00E
E00E
E00E
E00E
E00E
E00E
E00E
E00E
E00E
E00E
E00E
E00E
E00E
E00E
E00E
E00E
E00E
E00E
E00E
E00E
ENDCHAR
STARTCHAR char929
ENCODING 929
SWIDTH 24 0
DWIDTH 19 0
BBX 14 23 3 0
BITMAP
FFC0
FFF0
E1F8
E03C
E01C
E01C
E01C
E01C
E01C
E03C
E07C
FFF8
FFE0
E000
E000
E000
E000
E000
E000
E000
E000
E000
E000
ENDCHAR
STARTCHAR char931
ENCODING 931
SWIDTH 24 0
DWIDTH 19 0
BBX 16 23 2 0
BITMAP
FFFF
FFFF
E000
7000
7800
3C00
1C00
0E00
0700
0780
03C0
01C0
03C0
0780
0700
0E00
1C00
3C00
7800
7000
E000
FFFF
FFFF
ENDCHAR
STARTCHAR char932
ENCODING 932
SWIDTH 24 0
DWIDTH 19 0
BBX 18 23 1 0
BITMAP
FFFFC0
FFFFC0
01C000
01C000
01C000
01C000
01C000
01C000
01C000
01C000
01C000
01C000
01C000
01C000
01C000
01C000
01C000
01C000
01C000
01C000
01C000
01C000
01C000
ENDCHAR
STARTCHAR char933
ENCODING 933
SWIDTH 24 0
DWIDTH 19 0
BBX 18 23 1 0
BITMAP
F00780
FC1FC0
FE3FC0
0E3BC0
077180
077000
036000
03E000
03E000
03C000
01C000
01C000
01C000
01C000
01C000
01C000
01C000
01C000
01C000
01C000
01C000
01C000
01C000
ENDCHAR
STARTCHAR char934
ENCODING 934
SWIDTH 24 0
DWIDTH 19 0
BBX 15 23 2 0
BITMAP
0FF0
0FF0
0380
0380
07C0
3FF8
7FFC
7BBE
F39E
E38E
E38E
E38E
E38E
E38E
F39E
7BBE
7FFC
3FF8
07C0
0380
0380
0FF0
0FF0
ENDCHAR
STARTCHAR char935
ENCODING 935
SWIDTH 24 0
DWIDTH 19 0
BBX 19 23 0 0
BITMAP
7801C0
3C03C0
1C0380
0E0700
0E0F00
070E00
079C00
039C00
01F800
01F000
00F000
00F000
01F000
03F800
039C00
071C00
0F0E00
0E0F00
1E0700
1C0380
380380
7801C0
F001E0
ENDCHAR
STARTCHAR char936
ENCODING 936
SWIDTH 24 0
DWIDTH 19 0
BBX 15 23 2 0
BITMAP
E38E
E38E
E38E
E38E
E38E
E38E
E38E
E38E
E38E
E38E
F38E
739E
739C
7BBC
3FF8
1FF0
0FE0
0380
0380
0380
0FF0
0FF0
0FF0
ENDCHAR
STARTCHAR char937
ENCODING 937
SWIDTH 24 0
DWIDTH 19 0
BBX 17 23 1 0
BITMAP
03E000
0FF800
1F7C00
3C1E00
380F00
700700
700700
700380
F00380
E00380
E00380
E00380
F00380
700380
700780
700700
700700
380E00
380E00
1C1C00
0E3800
FE3F80
FE3F80
ENDCHAR
STARTCHAR char938
ENCODING 938
SWIDTH 24 0
DWIDTH 19 0
BBX 13 29 3 0
BITMAP
38E0
38E0
38E0
0000
0000
0000
FFF8
FFF8
0700
0700
0700
0700
0700
0700
0700
0700
0700
0700
0700
0700
0700
0700
0700
0700
0700
0700
0700
FFF8
FFF8
ENDCHAR
STARTCHAR char939
ENCODING 939
SWIDTH 24 0
DWIDTH 19 0
BBX 18 29 1 0
BITMAP
0E3800
0E3800
0E3800
000000
000000
000000
F00780
FC1FC0
FE3FC0
0E3BC0
077180
077000
036000
03E000
03E000
03C000
01C000
01C000
01C000
01C000
01C000
01C000
01C000
01C000
01C000
01C000
01C000
01C000
01C000
ENDCHAR
STARTCHAR char940
ENCODING 940
SWIDTH 24 0
DWIDTH 19 0
BBX 17 27 1 0
BITMAP
001C00
003800
007000
006000
00E000
01C000
038000
000000
000000
078380
1FE300
3FF700
787700
703600
F03E00
E03E00
E01C00
E01C00
E01C00
E01C00
E03C00
F03C00
703C00
787E00
3FEF00
1FE780
0FC380
ENDCHAR
STARTCHAR char941
ENCODING 941
SWIDTH 24 0
DWIDTH 19 0
BBX 14 27 3 0
BITMAP
0070
00E0
01C0
0180
0380
0700
0E00
0000
0000
0FF0
3FF8
7EF8
F000
E000
E000
7800
3FC0
1FC0
7800
E000
E000
E000
E000
F004
7E7C
3FFC
0FF0
ENDCHAR
STARTCHAR char942
ENCODING 942
SWIDTH 24 0
DWIDTH 19 0
BBX 13 33 3 -7
BITMAP
00F0
00E0
01C0
0380
0700
0E00
0000
0000
E3E0
EFF0
FFF8
F038
F038
E038
E018
E018
E018
E018
E018
E018
E018
E018
E018
E018
E018
E018
0018
0018
0018
0018
0018
0018
0018
ENDCHAR
STARTCHAR char943
ENCODING 943
SWIDTH 24 0
DWIDTH 19 0
BBX 10 26 5 0
BITMAP
03C0
0380
0700
0E00
1C00
3800
0000
0000
FC00
FC00
1C00
1C00
1C00
1C00
1C00
1C00
1C00
1C00
1C00
1C00
1C00
1C00
1C00
0F00
0FC0
03C0
ENDCHAR
STARTCHAR char944
ENCODING 944
SWIDTH 24 0
DWIDTH 19 0
BBX 17 30 1 0
BITMAP
001C00
003800
007000
00E000
00C000
01C000
1C3800
1C3800
1C3800
000000
000000
000000
FC1E00
FC0E00
1C0700
1C0700
1C0700
1C0300
1C0380
1C0380
1C0380
1C0780
1C0700
1C0700
1C0700
1C0E00
1C1E00
0F7C00
0FF800
03E000
ENDCHAR
STARTCHAR char945
ENCODING 945
SWIDTH 24 0
DWIDTH 19 0
BBX 17 18 1 0
BITMAP
078380
1FE300
3FF700
787700
703600
F03E00
E03E00
E01C00
E01C00
E01C00
E01C00
E03C00
F03C00
703C00
787E00
3FEF00
1FE780
0FC380
ENDCHAR
STARTCHAR char946
ENCODING 946
SWIDTH 24 0
DWIDTH 19 0
BBX 16 31 2 -7
BITMAP
0FC0
1FF0
3EF8
7038
701C
E01C
E01C
E01C
E038
E078
E3F0
E7E0
E7F8
E03C
E00E
E00E
E006
E007
E00E
F00E
FC1E
FFFC
FFF8
E7E0
E000
E000
E000
E000
E000
E000
E000
ENDCHAR
STARTCHAR char947
ENCODING 947
SWIDTH 24 0
DWIDTH 19 0
BBX 17 25 1 -7
BITMAP
E00380
F00380
780700
380700
1C0700
1C0E00
0C0E00
0E0E00
0E1C00
071C00
073800
073800
03B800
03F000
03F000
01F000
01E000
01E000
00E000
00E000
00E000
00E000
00E000
00E000
00E000
ENDCHAR
STARTCHAR char948
ENCODING 948
SWIDTH 24 0
DWIDTH 19 0
BBX 15 24 2 0
BITMAP
07F0
1FF8
3E78
7800
7800
3800
3FE0
1FF8
3EF8
783C
701C
F00E
E00E
E00E
E00E
E00E
E00E
E00E
F00E
701C
783C
3EF8
1FF0
07E0
ENDCHAR
STARTCHAR char949
ENCODING 949
SWIDTH 24 0
DWIDTH 19 0
BBX 14 18 3 0
BITMAP
0FF0
3FF8
7EF8
F000
E000
E000
7800
3FC0
1FC0
7E00
F000
E000
E000
E000
F004
7E7C
3FFC
0FF0
ENDCHAR
STARTCHAR char950
ENCODING 950
SWIDTH 24 0
DWIDTH 19 0
BBX 15 31 2 -7
BITMAP
7FFE
7FFE
007C
00F8
03E0
07C0
0F00
0E00
1C00
3800
3800
7000
7000
6000
6000
E000
E000
F000
7000
7000
7800
3E00
1FF0
07F8
007C
001C
000C
000C
003C
0038
0030
ENDCHAR
STARTCHAR char951
ENCODING 951
SWIDTH 24 0
DWIDTH 19 0
BBX 13 25 3 -7
BITMAP
E3E0
EFF0
FFF8
F038
F038
E038
E018
E018
E018
E018
E018
E018
E018
E018
E018
E018
E018
E018
0018
0018
0018
0018
0018
0018
0018
ENDCHAR
STARTCHAR char952
ENCODING 952
SWIDTH 24 0
DWIDTH 19 0
BBX 15 23 2 0
BITMAP
07C0
1FF0
3EF8
383C
701C
701C
700E
E00E
E00E
E00E
FFFE
FFFE
E00E
E00E
E00E
F00E
701E
701C
701C
383C
3EF8
1FF0
07C0
ENDCHAR
STARTCHAR char953
ENCODING 953
SWIDTH 24 0
DWIDTH 19 0
BBX 10 18 5 0
BITMAP
FC00
FC00
1C00
1C00
1C00
1C00
1C00
1C00
1C00
1C00
1C00
1C00
1C00
1C00
1C00
0F00
0FC0
03C0
ENDCHAR
STARTCHAR char954
ENCODING 954
SWIDTH 24 0
DWIDTH 19 0
BBX 15 18 3 0
BITMAP
E03C
E070
E0E0
E1C0
E380
E700
EE00
FE00
FF00
F380
E3C0
E1C0
E0E0
E0F0
E078
E038
E03C
E01E
ENDCHAR
STARTCHAR char955
ENCODING 955
SWIDTH 24 0
DWIDTH 19 0
BBX 17 24 1 0
BITMAP
1E0000
1F0000
0F8000
038000
01C000
01C000
01E000
00E000
01E000
01F000
03F000
03F000
07B800
073800
0F3C00
0E1C00
0E1C00
1C0E00
1C0E00
380E00
380700
700700
700780
E00380
ENDCHAR
STARTCHAR char956
ENCODING 956
SWIDTH 24 0
DWIDTH 19 0
BBX 15 25 3 -7
BITMAP
E018
E018
E018
E018
E018
E018
E018
E018
E018
E018
E018
E038
E038
E038
F078
FFFE
FFDE
E78E
E000
E000
E000
E000
E000
E000
E000
ENDCHAR
STARTCHAR char957
ENCODING 957
SWIDTH 24 0
DWIDTH 19 0
BBX 15 18 2 0
BITMAP
E038
E018
701C
700C
700E
780E
380E
380E
380E
1C1C
1C1C
1C38
0E38
0E70
0EE0
0FE0
07C0
0780
ENDCHAR
STARTCHAR char958
ENCODING 958
SWIDTH 24 0
DWIDTH 19 0
BBX 15 31 2 -7
BITMAP
3FFC
3FFC
07F8
1E00
3800
3000
7000
7000
3800
3C00
1FF0
0FF0
0FF0
1FC0
3C00
7800
7000
7000
E000
7000
7000
7C00
3FE0
0FFC
00FC
000E
000E
000E
001C
003C
0030
ENDCHAR
STARTCHAR char959
ENCODING 959
SWIDTH 24 0
DWIDTH 19 0
BBX 15 18 2 0
BITMAP
07E0
1FF0
3EF8
783C
701C
F00E
E00E
E00E
E00E
E00E
E00E
E00E
F00E
701C
783C
3EF8
1FF0
07E0
ENDCHAR
STARTCHAR char960
ENCODING 960
SWIDTH 24 0
DWIDTH 19 0
BBX 17 18 1 0
BITMAP
FFFF80
FFFF80
380E00
380E00
380E00
380E00
380E00
380E00
380E00
380E00
380E00
380E00
380E00
380E00
380E00
380F80
380F80
380780
ENDCHAR
STARTCHAR char961
ENCODING 961
SWIDTH 24 0
DWIDTH 19 0
BBX 14 25 3 -7
BITMAP
0FC0
3FE0
3FF0
7038
F038
E01C
E01C
E01C
E01C
E01C
E01C
E01C
E01C
F038
F038
FFF0
FFF0
E7C0
E000
E000
E000
E000
E000
E000
E000
ENDCHAR
STARTCHAR char962
ENCODING 962
SWIDTH 24 0
DWIDTH 19 0
BBX 13 25 3 -7
BITMAP
07E0
1FF8
3F78
7808
F000
E000
E000
E000
E000
E000
E000
E000
E000
E000
7000
7800
3FC0
0FF0
01F0
0038
0038
0038
0070
00F0
00C0
ENDCHAR
STARTCHAR char963
ENCODING 963
SWIDTH 24 0
DWIDTH 19 0
BBX 15 18 2 0
BITMAP
0FFE
1FFE
3FF0
7078
F038
E01C
E01C
E00E
E00E
E00E
E00E
E00E
E01C
701C
783C
3EF8
1FF0
0FC0
ENDCHAR
STARTCHAR char964
ENCODING 964
SWIDTH 24 0
DWIDTH 19 0
BBX 15 18 2 0
BITMAP
FFFE
FFFE
0380
0380
0380
0380
0380
0380
0380
0380
0380
0380
0380
0380
0380
01E0
01F8
0078
ENDCHAR
STARTCHAR char965
ENCODING 965
SWIDTH 24 0
DWIDTH 19 0
BBX 17 18 1 0
BITMAP
FC1E00
FC0E00
1C0700
1C0700
1C0700
1C0300
1C0380
1C0380
1C0380
1C0780
1C0700
1C0700
1C0700
1C0E00
1C1E00
0F7C00
0FF800
03E000
ENDCHAR
STARTCHAR char966
ENCODING 966
SWIDTH 24 0
DWIDTH 19 0
BBX 17 25 1 -7
BITMAP
047800
1CFE00
3DFE00
79C700
71C700
F1C380
E1C380
E1C380
E1C380
E1C380
E1C380
E1C380
71C380
71C700
79CF00
3FFE00
1FFC00
07F800
01C000
01C000
01C000
01C000
01C000
01C000
01C000
ENDCHAR
STARTCHAR char967
ENCODING 967
SWIDTH 24 0
DWIDTH 19 0
BBX 17 25 1 -7
BITMAP
F00700
FC0E00
3C0E00
0E1C00
0E1C00
063800
073800
077000
03F000
03F000
01E000
01E000
01C000
01C000
03E000
03E000
076000
077000
0E7000
0E3800
1C3800
1C3C00
1C1F00
380F80
780780
ENDCHAR
STARTCHAR char968
ENCODING 968
SWIDTH 24 0
DWIDTH 19 0
BBX 15 25 2 -7
BITMAP
E38E
E38E
E38E
E38E
E38E
E38E
E38E
E38E
E38E
E38E
E38E
E38E
E38E
739E
7B9C
3FF8
1FF8
0FE0
0380
0380
0380
0380
0380
0380
0380
ENDCHAR
STARTCHAR char969
ENCODING 969
SWIDTH 24 0
DWIDTH 19 0
BBX 17 18 1 0
BITMAP
380E00
780700
700700
700700
700380
E00380
E00380
E1C380
E1C380
E1C380
E1C380
E1C380
E1C380
E1C380
71E780
7FFF00
3F7F00
1E3E00
ENDCHAR
STARTCHAR char970
ENCODING 970
SWIDTH 24 0
DWIDTH 19 0
BBX 10 24 5 0
BITMAP
E380
E380
E380
0000
0000
0000
FC00
FC00
1C00
1C00
1C00
1C00
1C00
1C00
1C00
1C00
1C00
1C00
1C00
1C00
1C00
0F00
0FC0
03C0
ENDCHAR
STARTCHAR char971
ENCODING 971
SWIDTH 24 0
DWIDTH 19 0
BBX 17 24 1 0
BITMAP
0E3800
0E3800
0E3800
000000
000000
000000
FC1E00
FC0E00
1C0700
1C0700
1C0700
1C0300
1C0380
1C0380
1C0380
1C0780
1C0700
1C0700
1C0700
1C0E00
1C1E00
0F7C00
0FF800
03E000
ENDCHAR
STARTCHAR char972
ENCODING 972
SWIDTH 24 0
DWIDTH 19 0
BBX 15 27 2 0
BITMAP
0038
0070
00E0
01C0
0180
0700
0000
0000
0000
07E0
1FF0
3EF8
783C
701C
F00E
E00E
E00E
E00E
E00E
E00E
E00E
F00E
701C
783C
3EF8
1FF0
07E0
ENDCHAR
STARTCHAR char973
ENCODING 973
SWIDTH 24 0
DWIDTH 19 0
BBX 17 26 1 0
BITMAP
003C00
003800
007000
00E000
01C000
038000
000000
000000
FC1E00
FC0E00
1C0700
1C0700
1C0700
1C0300
1C0380
1C0380
1C0380
1C0780
1C0700
1C0700
1C0700
1C0E00
1C1E00
0F7C00
0FF800
03E000
ENDCHAR
STARTCHAR char974
ENCODING 974
SWIDTH 24 0
DWIDTH 19 0
BBX 17 27 1 0
BITMAP
001C00
003800
007000
006000
00E000
01C000
038000
000000
000000
380E00
780700
700700
700700
700380
E00380
E00380
E1C380
E1C380
E1C380
E1C380
E1C380
E1C380
E1C380
71E780
7FFF00
3F7F00
1E3E00
ENDCHAR
STARTCHAR char1012
ENCODING 1012
SWIDTH 24 0
DWIDTH 19 0
BBX 15 24 2 0
BITMAP
07E0
1FF0
3EF8
783C
701C
701E
F00E
E00E
E00E
E00E
FFFE
FFFE
E00E
E00E
E00E
E00E
E00E
F00E
701E
701C
783C
3EF8
1FF0
07E0
ENDCHAR
STARTCHAR char1014
ENCODING 1014
SWIDTH 24 0
DWIDTH 19 0
BBX 13 18 3 0
BITMAP
FE00
FFC0
EFE0
00F0
0070
0038
0038
0038
FFF8
FFF8
0038
0038
0078
0070
00F0
EFE0
FFC0
FE00
ENDCHAR
STARTCHAR char1024
ENCODING 1024
SWIDTH 24 0
DWIDTH 19 0
BBX 14 29 3 0
BITMAP
1C00
0E00
0700
0380
0000
0000
FFFC
FFFC
E000
E000
E000
E000
E000
E000
E000
E000
FFF8
FFF8
E000
E000
E000
E000
E000
E000
E000
E000
E000
FFFC
FFFC
ENDCHAR
STARTCHAR char1025
ENCODING 1025
SWIDTH 24 0
DWIDTH 19 0
BBX 14 29 3 0
BITMAP
1C70
1C70
1C70
0000
0000
0000
FFFC
FFFC
E000
E000
E000
E000
E000
E000
E000
E000
FFF8
FFF8
E000
E000
E000
E000
E000
E000
E000
E000
E000
FFFC
FFFC
ENDCHAR
STARTCHAR char1026
ENCODING 1026
SWIDTH 24 0
DWIDTH 19 0
BBX 19 31 -1 -8
BITMAP
FFFC00
FFFC00
0E0000
0E0000
0E0000
0E0000
0E0000
0E0000
0E0000
0E7F00
0FFF80
0FFFC0
0F01C0
0F01E0
0E01E0
0E00E0
0E00E0
0E00E0
0E00E0
0E00E0
0E00E0
0E00E0
0E00E0
0000E0
0001E0
0001E0
0001C0
0001C0
002FC0
003F80
003E00
ENDCHAR
STARTCHAR char1027
ENCODING 1027
SWIDTH 24 0
DWIDTH 19 0
BBX 15 29 3 0
BITMAP
00F0
01C0
0180
0300
0000
0000
FFFE
FFFE
F000
F000
F000
F000
F000
F000
F000
F000
F000
F000
F000
F000
F000
F000
F000
F000
F000
F000
F000
F000
F000
ENDCHAR
STARTCHAR char1028
ENCODING 1028
SWIDTH 24 0
DWIDTH 19 0
BBX 15 23 2 0
BITMAP
03F8
0FFE
1FBE
3C06
3800
7000
7000
F000
F000
E000
FFF8
FFF8
E000
E000
F000
F000
7000
7000
7800
3C06
1FBE
0FFE
03F8
ENDCHAR
STARTCHAR char1029
ENCODING 1029
SWIDTH 24 0
DWIDTH 19 0
BBX 15 23 2 0
BITMAP
07F0
1FFC
3EFC
700C
F000
E000
E000
E000
F000
7E00
3FE0
1FF8
01FC
003E
001E
000E
000E
000E
800E
C01E
FCFC
FFF8
1FE0
ENDCHAR
STARTCHAR char1030
ENCODING 1030
SWIDTH 24 0
DWIDTH 19 0
BBX 13 23 3 0
BITMAP
FFF8
FFF8
0700
0700
0700
0700
0700
0700
0700
0700
0700
0700
0700
0700
0700
0700
0700
0700
0700
0700
0700
FFF8
FFF8
ENDCHAR
STARTCHAR char1031
ENCODING 1031
SWIDTH 24 0
DWIDTH 19 0
BBX 13 29 3 0
BITMAP
38E0
38E0
38E0
0000
0000
0000
FFF8
FFF8
0700
0700
0700
0700
0700
0700
0700
0700
0700
0700
0700
0700
0700
0700
0700
0700
0700
0700
0700
FFF8
FFF8
ENDCHAR
STARTCHAR char1032
ENCODING 1032
SWIDTH 24 0
DWIDTH 19 0
BBX 13 23 2 0
BITMAP
0FF8
0FF8
0038
0038
0038
0038
0038
0038
0038
0038
0038
0038
0038
0038
0038
0038
0038
0038
8078
C070
FBF0
FFE0
3F80
ENDCHAR
STARTCHAR char1033
ENCODING 1033
SWIDTH 24 0
DWIDTH 19 0
BBX 19 23 0 0
BITMAP
0FF800
0FF800
0E3800
0E3800
0E3800
0E3800
0E3800
0E3800
0E3800
0E3E00
0E3F80
0E3FC0
0E39E0
0E38E0
0E38E0
0E38E0
0E38E0
0E38E0
1C38E0
1C39E0
FC3FC0
F83F80
E03E00
ENDCHAR
STARTCHAR char1034
ENCODING 1034
SWIDTH 24 0
DWIDTH 19 0
BBX 18 23 1 0
BITMAP
E07000
E07000
E07000
E07000
E07000
E07000
E07000
E07000
E07000
E07000
FFFF00
FFFF80
E073C0
E071C0
E071C0
E071C0
E071C0
E071C0
E071C0
E073C0
E07F80
E07F00
E07C00
ENDCHAR
STARTCHAR char1035
ENCODING 1035
SWIDTH 24 0
DWIDTH 19 0
BBX 19 23 -1 0
BITMAP
FFFC00
FFFC00
0E0000
0E0000
0E0000
0E0000
0E0000
0E0000
0E0000
0EFF80
0FFFC0
0FC3C0
0F01C0
0E01E0
0E01E0
0E00E0
0E00E0
0E00E0
0E00E0
0E00E0
0E00E0
0E00E0
0E00E0
ENDCHAR
STARTCHAR char1036
ENCODING 1036
SWIDTH 24 0
DWIDTH 19 0
BBX 17 29 2 0
BITMAP
007000
00C000
01C000
038000
000000
000000
E00780
E00E00
E01E00
E03C00
E07800
E0F000
E1E000
E3C000
E78000
EF0000
FF0000
FF8000
FBC000
F1E000
E0E000
E0F000
E07800
E03800
E03C00
E01E00
E00E00
E00F00
E00780
ENDCHAR
STARTCHAR char1037
ENCODING 1037
SWIDTH 24 0
DWIDTH 19 0
BBX 15 29 2 0
BITMAP
0E00
0700
0380
01C0
0000
0000
E01E
E03E
E03E
E03E
E07E
E07E
E0EE
E0EE
E0CE
E1CE
E18E
E38E
E38E
E70E
E70E
E60E
EE0E
EE0E
FC0E
FC0E
F80E
F80E
F00E
ENDCHAR
STARTCHAR char1038
ENCODING 1038
SWIDTH 24 0
DWIDTH 19 0
BBX 16 29 2 0
BITMAP
1818
1C38
0FF0
07E0
0000
0000
F007
700F
700E
780E
381E
381C
1C1C
1C38
1E38
0E78
0E70
0770
07E0
07E0
03E0
03C0
01C0
0380
0380
0780
7F00
7E00
7C00
ENDCHAR
STARTCHAR char1039
ENCODING 1039
SWIDTH 24 0
DWIDTH 19 0
BBX 15 28 2 -5
BITMAP
E00E
E00E
E00E
E00E
E00E
E00E
E00E
E00E
E00E
E00E
E00E
E00E
E00E
E00E
E00E
E00E
E00E
E00E
E00E
E00E
FFFE
FFFE
FFFE
0380
0380
0380
0380
0380
ENDCHAR
STARTCHAR char1040
ENCODING 1040
SWIDTH 24 0
DWIDTH 19 0
BBX 18 23 1 0
BITMAP
01E000
03E000
03E000
037000
077000
077000
073800
0E3800
0E3800
0E1C00
1C1C00
1C1C00
1C1C00
1C0E00
3FFE00
3FFE00
3FFF00
700700
700700
700780
F00380
E00380
E003C0
ENDCHAR
STARTCHAR char1041
ENCODING 1041
SWIDTH 24 0
DWIDTH 19 0
BBX 15 23 3 0
BITMAP
FFFC
FFFC
E000
E000
E000
E000
E000
E000
E000
E000
FFF0
FFF8
E07C
E01C
E01E
E00E
E00E
E01E
E01E
E01C
E1FC
FFF8
FFE0
ENDCHAR
STARTCHAR char1042
ENCODING 1042
SWIDTH 24 0
DWIDTH 19 0
BBX 15 23 3 0
BITMAP
FFC0
FFF0
E1F8
E03C
E01C
E01C
E01C
E03C
E038
E1F8
FFE0
FFF0
E078
E01C
E01C
E00E
E00E
E01E
E01E
E01C
E1FC
FFF8
FFC0
ENDCHAR
STARTCHAR char1043
ENCODING 1043
SWIDTH 24 0
DWIDTH 19 0
BBX 15 23 3 0
BITMAP
FFFE
FFFE
F000
F000
F000
F000
F000
F000
F000
F000
F000
F000
F000
F000
F000
F000
F000
F000
F000
F000
F000
F000
F000
ENDCHAR
STARTCHAR char1044
ENCODING 1044
SWIDTH 24 0
DWIDTH 19 0
BBX 18 29 1 -6
BITMAP
1FFF00
1FFF00
1C0700
1C0700
1C0700
1C0700
1C0700
1C0700
1C0700
3C0700
3C0700
3C0700
380700
380700
380700
380700
380700
380700
380700
780700
780700
FFFFC0
FFFFC0
C001C0
C001C0
C001C0
C001C0
C001C0
C001C0
ENDCHAR
STARTCHAR char1045
ENCODING 1045
SWIDTH 24 0
DWIDTH 19 0
BBX 14 23 3 0
BITMAP
FFFC
FFFC
E000
E000
E000
E000
E000
E000
E000
E000
FFF8
FFF8
E000
E000
E000
E000
E000
E000
E000
E000
E000
FFFC
FFFC
ENDCHAR
STARTCHAR char1046
ENCODING 1046
SWIDTH 24 0
DWIDTH 19 0
BBX 19 23 0 0
BITMAP
F0E1E0
70E1C0
38E3C0
38E380
1CE780
1CE700
0EEF00
0EEE00
07FE00
07FC00
07FE00
0FFE00
0FFE00
0FF700
1DF700
1CE700
3CE380
38E380
38E380
78E1C0
70E1C0
70E1E0
F0E0E0
ENDCHAR
STARTCHAR char1047
ENCODING 1047
SWIDTH 24 0
DWIDTH 19 0
BBX 15 23 2 0
BITMAP
1FC0
7FF0
7DF8
803C
001C
001C
001C
001C
0078
0FF0
0FE0
01F8
003C
001C
000E
000E
000E
000E
001E
803C
FDF8
FFF0
3FC0
ENDCHAR
STARTCHAR char1048
ENCODING 1048
SWIDTH 24 0
DWIDTH 19 0
BBX 15 23 2 0
BITMAP
E01E
E03E
E03E
E03E
E07E
E07E
E0EE
E0EE
E0CE
E1CE
E18E
E38E
E38E
E70E
E70E
E60E
EE0E
EE0E
FC0E
FC0E
F80E
F80E
F00E
ENDCHAR
STARTCHAR char1049
ENCODING 1049
SWIDTH 24 0
DWIDTH 19 0
BBX 15 29 2 0
BITMAP
1838
1C70
0FF0
07C0
0000
0000
E01E
E03E
E03E
E03E
E07E
E07E
E0EE
E0EE
E0CE
E1CE
E18E
E38E
E38E
E70E
E70E
E60E
EE0E
EE0E
FC0E
FC0E
F80E
F80E
F00E
ENDCHAR
STARTCHAR char1050
ENCODING 1050
SWIDTH 24 0
DWIDTH 19 0
BBX 17 23 2 0
BITMAP
E00780
E00E00
E01E00
E03C00
E07800
E0F000
E1E000
E3C000
E78000
EF0000
FF0000
FF8000
FBC000
F1E000
E0E000
E0F000
E07800
E03800
E03C00
E01E00
E00E00
E00F00
E00780
ENDCHAR
STARTCHAR char1051
ENCODING 1051
SWIDTH 24 0
DWIDTH 19 0
BBX 17 23 0 0
BITMAP
07FF80
07FF80
070380
070380
070380
070380
070380
070380
070380
070380
0F0380
0F0380
0F0380
0F0380
0F0380
0F0380
0E0380
0E0380
0E0380
1E0380
7C0380
F80380
F00380
ENDCHAR
STARTCHAR char1052
ENCODING 1052
SWIDTH 24 0
DWIDTH 19 0
BBX 17 23 1 0
BITMAP
F80F80
F80F80
F80F80
FC1F80
EC1B80
EC1B80
E63B80
E63380
E63380
E37380
E36380
E3E380
E1E380
E1C380
E1C380
E00380
E00380
E00380
E00380
E00380
E00380
E00380
E00380
ENDCHAR
STARTCHAR char1053
ENCODING 1053
SWIDTH 24 0
DWIDTH 19 0
BBX 15 23 2 0
BITMAP
E00E
E00E
E00E
E00E
E00E
E00E
E00E
E00E
E00E
E00E
FFFE
FFFE
E00E
E00E
E00E
E00E
E00E
E00E
E00E
E00E
E00E
E00E
E00E
ENDCHAR
STARTCHAR char1054
ENCODING 1054
SWIDTH 24 0
DWIDTH 19 0
BBX 15 23 2 0
BITMAP
07E0
1FF0
3EF8
783C
701C
701E
F00E
E00E
E00E
E00E
E00E
E00E
E00E
E00E
E00E
E00E
F00E
701E
701C
783C
3EF8
1FF0
07C0
ENDCHAR
STARTCHAR char1055
ENCODING 1055
SWIDTH 24 0
DWIDTH 19 0
BBX 15 23 2 0
BITMAP
FFFE
FFFE
E00E
E00E
E00E
E00E
E00E
E00E
E00E
E00E
E00E
E00E
E00E
E00E
E00E
E00E
E00E
E00E
E00E
E00E
E00E
E00E
E00E
ENDCHAR
STARTCHAR char1056
ENCODING 1056
SWIDTH 24 0
DWIDTH 19 0
BBX 15 23 3 0
BITMAP
FFE0
FFF8
E1FC
E03C
E01E
E01E
E00E
E01E
E01E
E01C
E07C
FFF8
FFF0
E000
E000
E000
E000
E000
E000
E000
E000
E000
E000
ENDCHAR
STARTCHAR char1057
ENCODING 1057
SWIDTH 24 0
DWIDTH 19 0
BBX 15 23 2 0
BITMAP
03F8
0FFE
1FBE
3C06
3800
7800
7000
7000
F000
F000
E000
E000
E000
F000
F000
7000
7000
7800
3800
3C02
1FBE
0FFE
03F8
ENDCHAR
STARTCHAR char1058
ENCODING 1058
SWIDTH 24 0
DWIDTH 19 0
BBX 18 23 1 0
BITMAP
FFFFC0
FFFFC0
01C000
01C000
01C000
01C000
01C000
01C000
01C000
01C000
01C000
01C000
01C000
01C000
01C000
01C000
01C000
01C000
01C000
01C000
01C000
01C000
01C000
ENDCHAR
STARTCHAR char1059
ENCODING 1059
SWIDTH 24 0
DWIDTH 19 0
BBX 16 23 2 0
BITMAP
F007
700F
700E
780E
381E
381C
1C1C
1C38
1E38
0E78
0E70
0770
07E0
07E0
03E0
03C0
01C0
0380
0380
0780
7F00
7E00
7C00
ENDCHAR
STARTCHAR char1060
ENCODING 1060
SWIDTH 24 0
DWIDTH 19 0
BBX 17 23 1 0
BITMAP
01C000
01C000
0FF800
1FFE00
3FFF00
79CF00
71C780
F1C380
E1C380
E1C380
E1C380
E1C380
E1C380
E1C380
E1C380
F1C380
71C780
79C700
3FFF00
1FFE00
0FF800
01C000
01C000
ENDCHAR
STARTCHAR char1061
ENCODING 1061
SWIDTH 24 0
DWIDTH 19 0
BBX 19 23 0 0
BITMAP
7801C0
3C03C0
1C0380
0E0700
0E0F00
070E00
079C00
039C00
01F800
01F000
00F000
00F000
01F000
03F800
039C00
071C00
0F0E00
0E0F00
1E0700
1C0380
380380
7801C0
F001E0
ENDCHAR
STARTCHAR char1062
ENCODING 1062
SWIDTH 24 0
DWIDTH 19 0
BBX 17 28 2 -5
BITMAP
E01E00
E01E00
E01E00
E01E00
E01E00
E01E00
E01E00
E01E00
E01E00
E01E00
E01E00
E01E00
E01E00
E01E00
E01E00
E01E00
E01E00
E01E00
E01E00
E01E00
FFFF80
FFFF80
FFFF80
000380
000380
000380
000380
000380
ENDCHAR
STARTCHAR char1063
ENCODING 1063
SWIDTH 24 0
DWIDTH 19 0
BBX 15 23 2 0
BITMAP
E00E
E00E
E00E
E00E
E00E
E00E
E00E
E00E
E00E
F00E
703E
7FFE
3FFE
000E
000E
000E
000E
000E
000E
000E
000E
000E
000E
ENDCHAR
STARTCHAR char1064
ENCODING 1064
SWIDTH 24 0
DWIDTH 19 0
BBX 16 23 2 0
BITMAP
E387
E387
E387
E387
E387
E387
E387
E387
E387
E387
E387
E387
E387
E387
E387
E387
E387
E387
E387
E387
FFFF
FFFF
FFFF
ENDCHAR
STARTCHAR char1065
ENCODING 1065
SWIDTH 24 0
DWIDTH 19 0
BBX 18 28 1 -5
BITMAP
E1C700
E1C700
E1C700
E1C700
E1C700
E1C700
E1C700
E1C700
E1C700
E1C700
E1C700
E1C700
E1C700
E1C700
E1C700
E1C700
E1C700
E1C700
E1C700
E1C700
FFFFC0
FFFFC0
FFFFC0
0000C0
0000C0
0000C0
0000C0
0000C0
ENDCHAR
STARTCHAR char1066
ENCODING 1066
SWIDTH 24 0
DWIDTH 19 0
BBX 17 23 1 0
BITMAP
FE0000
FE0000
0E0000
0E0000
0E0000
0E0000
0E0000
0E0000
0E0000
0FF800
0FFE00
0E3F00
0E0F00
0E0780
0E0380
0E0380
0E0380
0E0380
0E0780
0E0F00
0E3F00
0FFE00
0FF800
ENDCHAR
STARTCHAR char1067
ENCODING 1067
SWIDTH 24 0
DWIDTH 19 0
BBX 17 23 1 0
BITMAP
E00380
E00380
E00380
E00380
E00380
E00380
E00380
E00380
E00380
FF0380
FF8380
E7C380
E1E380
E0E380
E0F380
E0F380
E0F380
E0F380
E0E380
E1E380
FFC380
FF8380
FE0380
ENDCHAR
STARTCHAR char1068
ENCODING 1068
SWIDTH 24 0
DWIDTH 19 0
BBX 15 23 3 0
BITMAP
E000
E000
E000
E000
E000
E000
E000
E000
E000
FFE0
FFF8
E1FC
E03C
E01E
E01E
E00E
E01E
E01E
E01E
E03C
FFFC
FFF8
FFE0
ENDCHAR
STARTCHAR char1069
ENCODING 1069
SWIDTH 24 0
DWIDTH 19 0
BBX 14 23 3 0
BITMAP
7F00
FFC0
FBE0
80F0
0078
0038
003C
003C
001C
001C
7FFC
7FFC
001C
001C
001C
003C
003C
0038
0078
80F0
F7E0
FFC0
7F00
ENDCHAR
STARTCHAR char1070
ENCODING 1070
SWIDTH 24 0
DWIDTH 19 0
BBX 18 23 1 0
BITMAP
E07C00
E0FE00
E1EF00
E3C700
E38380
E38380
E78380
E70380
E703C0
E701C0
FF01C0
FF01C0
E701C0
E703C0
E703C0
E70380
E38380
E38380
E38380
E38700
E1EF00
E0FE00
E07C00
ENDCHAR
STARTCHAR char1071
ENCODING 1071
SWIDTH 24 0
DWIDTH 19 0
BBX 16 23 1 0
BITMAP
07FF
1FFF
3F07
3807
7807
7007
7007
7007
7807
3807
3F07
1FFF
07FF
0707
0F07
0E07
1E07
1C07
3C07
3807
7007
7007
E007
ENDCHAR
STARTCHAR char1072
ENCODING 1072
SWIDTH 24 0
DWIDTH 19 0
BBX 16 18 2 0
BITMAP
0FE0
7FF0
7EF8
401C
001C
000C
000E
1FFE
3FFE
780E
F00E
E01E
E01E
E01E
F03E
7DFE
3FEE
1FCF
ENDCHAR
STARTCHAR char1073
ENCODING 1073
SWIDTH 24 0
DWIDTH 19 0
BBX 15 25 2 0
BITMAP
03F8
0FFC
1FE0
3C00
7800
7000
E000
E7E0
FFF0
FEF8
F83C
F01C
F00E
E00E
E00E
E00E
E00E
E00E
E00E
F00E
701C
783C
3EF8
1FF0
07E0
ENDCHAR
STARTCHAR char1074
ENCODING 1074
SWIDTH 24 0
DWIDTH 19 0
BBX 12 18 4 0
BITMAP
FF80
FFC0
E1E0
E0F0
E070
E070
E0E0
E1E0
FF80
FFE0
E0F0
E070
E070
E070
E070
E1F0
FFE0
FF80
ENDCHAR
STARTCHAR char1075
ENCODING 1075
SWIDTH 24 0
DWIDTH 19 0
BBX 12 18 5 0
BITMAP
FFF0
FFF0
E000
E000
E000
E000
E000
E000
E000
E000
E000
E000
E000
E000
E000
E000
E000
E000
ENDCHAR
STARTCHAR char1076
ENCODING 1076
SWIDTH 24 0
DWIDTH 19 0
BBX 16 23 2 -5
BITMAP
3FFC
3FFC
381C
381C
381C
381C
381C
381C
381C
381C
381C
381C
381C
381C
701C
701C
FFFF
FFFF
C007
C007
C007
C007
C007
ENDCHAR
STARTCHAR char1077
ENCODING 1077
SWIDTH 24 0
DWIDTH 19 0
BBX 15 18 2 0
BITMAP
07E0
1FF8
3FFC
781C
700E
E00E
E00E
FFFE
FFFE
E000
E000
E000
F000
7000
7806
3F7E
1FFE
07F0
ENDCHAR
STARTCHAR char1078
ENCODING 1078
SWIDTH 24 0
DWIDTH 19 0
BBX 17 18 1 0
BITMAP
F1C380
71C700
39C700
39CE00
1DDE00
1DDC00
0FF800
0FFC00
1FFC00
1FFC00
1BEE00
39CE00
39C600
71C700
71C700
71C300
E1C380
E1C380
ENDCHAR
STARTCHAR char1079
ENCODING 1079
SWIDTH 24 0
DWIDTH 19 0
BBX 14 18 3 0
BITMAP
7FC0
FFF0
FBF8
0038
0038
0038
0070
1FE0
1FC0
03F0
0038
0018
001C
001C
8038
FBF8
FFF0
7F80
ENDCHAR
STARTCHAR char1080
ENCODING 1080
SWIDTH 24 0
DWIDTH 19 0
BBX 13 18 3 0
BITMAP
E038
E038
E078
E0F8
E0F8
E1D8
E1D8
E398
E398
E718
EE18
EE18
FC18
FC18
F818
F018
F018
E018
ENDCHAR
STARTCHAR char1081
ENCODING 1081
SWIDTH 24 0
DWIDTH 19 0
BBX 13 25 3 0
BITMAP
3030
3060
38E0
1FC0
0F80
0000
0000
E038
E038
E078
E0F8
E0F8
E1D8
E1D8
E398
E398
E718
EE18
EE18
FC18
FC18
F818
F018
F018
E018
ENDCHAR
STARTCHAR char1082
ENCODING 1082
SWIDTH 24 0
DWIDTH 19 0
BBX 15 18 4 0
BITMAP
E03C
E070
E0E0
E1C0
E380
E700
EE00
FE00
FF00
F780
E380
E1C0
E1E0
E0F0
E070
E038
E03C
E01E
ENDCHAR
STARTCHAR char1083
ENCODING 1083
SWIDTH 24 0
DWIDTH 19 0
BBX 16 18 1 0
BITMAP
1FFF
1FFF
1C07
1C07
1C07
1C07
1C07
1C07
1C07
1C07
1C07
1C07
1C07
1C07
3C07
7807
F007
E007
ENDCHAR
STARTCHAR char1084
ENCODING 1084
SWIDTH 24 0
DWIDTH 19 0
BBX 17 18 1 0
BITMAP
E00380
F00380
F00780
F80780
F80F80
FC0F80
FC1D80
EE1D80
EE3980
E73980
E77180
E3E180
E3E180
E1C180
E00180
E00180
E00180
E00180
ENDCHAR
STARTCHAR char1085
ENCODING 1085
SWIDTH 24 0
DWIDTH 19 0
BBX 13 18 3 0
BITMAP
E038
E038
E038
E038
E038
E038
E038
E038
FFF8
FFF8
E038
E038
E038
E038
E038
E038
E038
E038
ENDCHAR
STARTCHAR char1086
ENCODING 1086
SWIDTH 24 0
DWIDTH 19 0
BBX 15 18 2 0
BITMAP
07E0
1FF0
3EF8
783C
701C
F00E
E00E
E00E
E00E
E00E
E00E
E00E
F00E
701C
783C
3EF8
1FF0
07E0
ENDCHAR
STARTCHAR char1087
ENCODING 1087
SWIDTH 24 0
DWIDTH 19 0
BBX 13 18 3 0
BITMAP
FFF8
FFF8
E038
E038
E038
E038
E038
E038
E038
E038
E038
E038
E038
E038
E038
E038
E038
E038
ENDCHAR
STARTCHAR char1088
ENCODING 1088
SWIDTH 24 0
DWIDTH 19 0
BBX 14 25 3 -7
BITMAP
E7C0
EFF0
FFF8
F038
F03C
E01C
E01C
E01C
E01C
E01C
E01C
E01C
E01C
F03C
F038
FFF8
EFF0
E7C0
E000
E000
E000
E000
E000
E000
E000
ENDCHAR
STARTCHAR char1089
ENCODING 1089
SWIDTH 24 0
DWIDTH 19 0
BBX 13 18 3 0
BITMAP
07E0
1FF8
3F78
7808
F000
E000
E000
E000
E000
E000
E000
E000
E000
F000
7808
3F78
1FF8
07E0
ENDCHAR
STARTCHAR char1090
ENCODING 1090
SWIDTH 24 0
DWIDTH 19 0
BBX 13 18 3 0
BITMAP
FFF8
FFF8
0700
0700
0700
0700
0700
0700
0700
0700
0700
0700
0700
0700
0700
0700
0700
0700
ENDCHAR
STARTCHAR char1091
ENCODING 1091
SWIDTH 24 0
DWIDTH 19 0
BBX 16 25 2 -7
BITMAP
E007
E007
700E
700E
700E
381C
381C
1C38
1C38
1C38
0E70
0E70
0E60
07E0
07E0
03C0
03C0
03C0
0380
0380
0780
0700
1F00
7E00
7C00
ENDCHAR
STARTCHAR char1092
ENCODING 1092
SWIDTH 24 0
DWIDTH 19 0
BBX 16 31 2 -7
BITMAP
0380
0380
0380
0380
0380
0380
0380
1FF0
3FFC
7BBC
F38E
E38E
E38E
E387
E387
E387
E387
E387
E38F
E38E
E38E
739E
7FFC
3FF8
0FE0
0380
0380
0380
0380
0380
0380
ENDCHAR
STARTCHAR char1093
ENCODING 1093
SWIDTH 24 0
DWIDTH 19 0
BBX 17 18 1 0
BITMAP
700700
380E00
1C1E00
1C1C00
0E3800
077800
03F000
03E000
01C000
03E000
03F000
077000
0E3800
1E1C00
1C1C00
380E00
780700
F00780
ENDCHAR
STARTCHAR char1094
ENCODING 1094
SWIDTH 24 0
DWIDTH 19 0
BBX 15 23 3 -5
BITMAP
E038
E038
E038
E038
E038
E038
E038
E038
E038
E038
E038
E038
E038
E038
E038
E038
FFFE
FFFE
0006
0006
0006
0006
0006
ENDCHAR
STARTCHAR char1095
ENCODING 1095
SWIDTH 24 0
DWIDTH 19 0
BBX 13 18 3 0
BITMAP
C038
C038
C038
C038
C038
C038
C038
E038
F078
7FF8
3FF8
0038
0038
0038
0038
0038
0038
0038
ENDCHAR
STARTCHAR char1096
ENCODING 1096
SWIDTH 24 0
DWIDTH 19 0
BBX 15 18 2 0
BITMAP
E386
E386
E386
E386
E386
E386
E386
E386
E386
E386
E386
E386
E386
E386
E386
E386
FFFE
FFFE
ENDCHAR
STARTCHAR char1097
ENCODING 1097
SWIDTH 24 0
DWIDTH 19 0
BBX 17 23 2 -5
BITMAP
C38E00
C38E00
C38E00
C38E00
C38E00
C38E00
C38E00
C38E00
C38E00
C38E00
C38E00
C38E00
C38E00
C38E00
C38E00
C38E00
FFFF80
FFFF80
000180
000180
000180
000180
000180
ENDCHAR
STARTCHAR char1098
ENCODING 1098
SWIDTH 24 0
DWIDTH 19 0
BBX 18 18 1 0
BITMAP
FE0000
FE0000
0E0000
0E0000
0E0000
0E0000
0E0000
0E0000
0FFE00
0FFF80
0E0780
0E03C0
0E01C0
0E03C0
0E0380
0E1F80
0FFF00
0FFC00
ENDCHAR
STARTCHAR char1099
ENCODING 1099
SWIDTH 24 0
DWIDTH 19 0
BBX 16 18 2 0
BITMAP
C007
C007
C007
C007
C007
C007
C007
C007
FF07
FFC7
C3C7
C1E7
C0E7
C0E7
C1E7
C7C7
FF87
FF07
ENDCHAR
STARTCHAR char1100
ENCODING 1100
SWIDTH 24 0
DWIDTH 19 0
BBX 13 18 4 0
BITMAP
C000
C000
C000
C000
C000
C000
C000
C000
FFE0
FFF0
C078
C038
C038
C038
C038
C1F8
FFF0
FFC0
ENDCHAR
STARTCHAR char1101
ENCODING 1101
SWIDTH 24 0
DWIDTH 19 0
BBX 13 18 4 0
BITMAP
7F00
FFC0
F7E0
80F0
0070
0078
0038
3FF8
3FF8
0038
0038
0038
0078
0070
80F0
F7E0
FFC0
7F00
ENDCHAR
STARTCHAR char1102
ENCODING 1102
SWIDTH 24 0
DWIDTH 19 0
BBX 17 18 2 0
BITMAP
E07800
E1FC00
E3FE00
E38700
E78700
E70780
E70380
E70380
FF0380
FF0380
E70380
E70380
E70780
E38700
E38700
E1FE00
E1FE00
E07800
ENDCHAR
STARTCHAR char1103
ENCODING 1103
SWIDTH 24 0
DWIDTH 19 0
BBX 13 18 3 0
BITMAP
0FF8
3FF8
7C38
7038
7038
6038
7038
7038
3C38
1FF8
0FF8
1C38
1C38
3838
3838
7038
6038
E038
ENDCHAR
STARTCHAR char1104
ENCODING 1104
SWIDTH 24 0
DWIDTH 19 0
BBX 15 27 2 0
BITMAP
3800
1C00
0E00
0600
0300
0180
0000
0000
0000
07E0
1FF8
3FFC
781C
700E
E00E
E00E
FFFE
FFFE
E000
E000
E000
F000
7000
7806
3F7E
1FFE
07F0
ENDCHAR
STARTCHAR char1105
ENCODING 1105
SWIDTH 24 0
DWIDTH 19 0
BBX 15 23 2 0
BITMAP
0E38
0E38
0E38
0000
0000
07E0
1FF8
3FFC
781C
700E
E00E
E00E
FFFE
FFFE
E000
E000
E000
F000
7000
7806
3F7E
1FFE
07F0
ENDCHAR
STARTCHAR char1106
ENCODING 1106
SWIDTH 24 0
DWIDTH 19 0
BBX 17 31 1 -7
BITMAP
1C0000
1C0000
1C0000
1C0000
1C0000
1C0000
FFF800
FFF800
1C0000
1C0000
1C0000
1C0000
1C7C00
1DFE00
1FDF00
1E0700
1E0380
1C0380
1C0380
1C0380
1C0380
1C0380
1C0380
1C0700
000700
000700
000E00
001E00
007C00
007800
004000
ENDCHAR
STARTCHAR char1107
ENCODING 1107
SWIDTH 24 0
DWIDTH 19 0
BBX 12 26 5 0
BITMAP
00F0
00E0
01C0
0380
0300
0E00
0000
0000
FFF0
FFF0
E000
E000
E000
E000
E000
E000
E000
E000
E000
E000
E000
E000
E000
E000
E000
E000
ENDCHAR
STARTCHAR char1108
ENCODING 1108
SWIDTH 24 0
DWIDTH 19 0
BBX 13 18 3 0
BITMAP
07E0
1FF8
3F78
7808
F000
E000
E000
FFE0
FFE0
E000
E000
E000
E000
F000
7808
3F78
1FF8
07E0
ENDCHAR
STARTCHAR char1109
ENCODING 1109
SWIDTH 24 0
DWIDTH 19 0
BBX 13 18 3 0
BITMAP
0FE0
3FF0
7DF0
7010
E000
E000
7000
7C00
3FE0
0FF0
00F8
0038
0038
0038
C078
FDF0
FFE0
3F80
ENDCHAR
STARTCHAR char1110
ENCODING 1110
SWIDTH 24 0
DWIDTH 19 0
BBX 12 25 4 0
BITMAP
1C00
1C00
1C00
1C00
0000
0000
0000
FC00
FC00
1C00
1C00
1C00
1C00
1C00
1C00
1C00
1C00
1C00
1C00
1C00
0C00
0E00
0F80
07F0
03F0
ENDCHAR
STARTCHAR char1111
ENCODING 1111
SWIDTH 24 0
DWIDTH 19 0
BBX 12 23 4 0
BITMAP
E380
E380
E380
0000
0000
FC00
FC00
1C00
1C00
1C00
1C00
1C00
1C00
1C00
1C00
1C00
1C00
1C00
0C00
0E00
0F80
07F0
03F0
ENDCHAR
STARTCHAR char1112
ENCODING 1112
SWIDTH 24 0
DWIDTH 19 0
BBX 9 31 4 -7
BITMAP
0380
0380
0380
0380
0000
0000
7F80
7F80
0380
0380
0380
0380
0380
0380
0380
0380
0380
0380
0380
0380
0380
0380
0380
0380
0380
0380
0380
0380
0F00
FF00
FC00
ENDCHAR
STARTCHAR char1113
ENCODING 1113
SWIDTH 24 0
DWIDTH 19 0
BBX 19 18 0 0
BITMAP
0FF800
0FF800
0E3800
0E3800
0E3800
0E3800
0E3800
0E3800
0E3F80
0E3FC0
0C39E0
0C38E0
0C38E0
1C38E0
1C38E0
783FE0
F83FC0
E03F00
ENDCHAR
STARTCHAR char1114
ENCODING 1114
SWIDTH 24 0
DWIDTH 19 0
BBX 17 18 2 0
BITMAP
C0E000
C0E000
C0E000
C0E000
C0E000
C0E000
C0E000
C0E000
FFFE00
FFFF00
C0E780
C0E380
C0E380
C0E380
C0E380
C0EF00
C0FF00
C0FC00
ENDCHAR
STARTCHAR char1115
ENCODING 1115
SWIDTH 24 0
DWIDTH 19 0
BBX 16 24 1 0
BITMAP
1C00
1C00
1C00
1C00
1C00
1C00
FFF8
FFF8
1C00
1C00
1C00
1C00
1CF8
1DFE
1FFE
1E07
1E07
1C07
1C07
1C07
1C07
1C07
1C07
1C07
ENDCHAR
STARTCHAR char1116
ENCODING 1116
SWIDTH 24 0
DWIDTH 19 0
BBX 15 26 4 0
BITMAP
00F0
01C0
01C0
0380
0700
0E00
0000
0000
E03C
E070
E0E0
E1C0
E380
E700
EE00
FE00
FF00
F780
E380
E1C0
E1E0
E0F0
E070
E038
E03C
E01E
ENDCHAR
STARTCHAR char1117
ENCODING 1117
SWIDTH 24 0
DWIDTH 19 0
BBX 13 26 3 0
BITMAP
3C00
0E00
0E00
0700
0380
01C0
0000
0000
E038
E038
E078
E0F8
E0F8
E1D8
E1D8
E398
E398
E718
EE18
EE18
FC18
FC18
F818
F018
F018
E018
ENDCHAR
STARTCHAR char1118
ENCODING 1118
SWIDTH 24 0
DWIDTH 19 0
BBX 16 31 2 -7
BITMAP
1818
1C30
0FF0
07E0
0000
0000
E007
E007
700E
700E
700E
381C
381C
1C38
1C38
1C38
0E70
0E70
0E60
07E0
07E0
03C0
03C0
03C0
0380
0380
0780
0700
1F00
7E00
7C00
ENDCHAR
STARTCHAR char1119
ENCODING 1119
SWIDTH 24 0
DWIDTH 19 0
BBX 13 22 3 -4
BITMAP
E038
E038
E038
E038
E038
E038
E038
E038
E038
E038
E038
E038
E038
E038
E038
E038
FFF8
FFF8
0700
0700
0700
0700
ENDCHAR
STARTCHAR char1122
ENCODING 1122
SWIDTH 24 0
DWIDTH 19 0
BBX 18 23 0 0
BITMAP
070000
070000
070000
FFFC00
FFFC00
070000
070000
070000
070000
07FC00
07FF00
073F80
070780
0703C0
0703C0
0701C0
0703C0
0703C0
0703C0
070780
07FF80
07FF00
07FC00
ENDCHAR
STARTCHAR char1123
ENCODING 1123
SWIDTH 24 0
DWIDTH 19 0
BBX 18 25 1 0
BITMAP
0E0000
0E0000
0E0000
0E0000
0E0000
0E0000
0E0000
FFF800
FFF800
0E0000
0E0000
0E0000
0E0000
0E0000
0E0000
0FFE00
0FFF00
0E0780
0E0380
0E03C0
0E0380
0E0380
0E1F80
0FFF00
0FFC00
ENDCHAR
STARTCHAR char1138
ENCODING 1138
SWIDTH 24 0
DWIDTH 19 0
BBX 15 23 2 0
BITMAP
07E0
1FF0
3EF8
783C
701C
701E
F00E
E00E
E00E
E00E
FFFE
FFFE
E00E
E00E
E00E
E00E
F00E
701E
701C
783C
3EF8
1FF0
07C0
ENDCHAR
STARTCHAR char1139
ENCODING 1139
SWIDTH 24 0
DWIDTH 19 0
BBX 15 18 2 0
BITMAP
07E0
1FF0
3EF8
783C
701C
F00E
E00E
E00E
FFFE
FFFE
E00E
E00E
F00E
701C
783C
3EF8
1FF0
07E0
ENDCHAR
STARTCHAR char1168
ENCODING 1168
SWIDTH 24 0
DWIDTH 19 0
BBX 15 28 3 0
BITMAP
000E
000E
000E
000E
000E
FFFE
FFFE
F000
F000
F000
F000
F000
F000
F000
F000
F000
F000
F000
F000
F000
F000
F000
F000
F000
F000
F000
F000
F000
ENDCHAR
STARTCHAR char1169
ENCODING 1169
SWIDTH 24 0
DWIDTH 19 0
BBX 12 23 5 0
BITMAP
0070
0070
0070
0070
0070
FFF0
FFF0
E000
E000
E000
E000
E000
E000
E000
E000
E000
E000
E000
E000
E000
E000
E000
E000
ENDCHAR
STARTCHAR char1170
ENCODING 1170
SWIDTH 24 0
DWIDTH 19 0
BBX 17 23 1 0
BITMAP
1FFF80
1FFF80
1C0000
1C0000
1C0000
1C0000
1C0000
1C0000
FFFC00
FFFC00
1C0000
1C0000
1C0000
1C0000
1C0000
1C0000
1C0000
1C0000
1C0000
1C0000
1C0000
1C0000
1C0000
ENDCHAR
STARTCHAR char1171
ENCODING 1171
SWIDTH 24 0
DWIDTH 19 0
BBX 14 18 3 0
BITMAP
3FFC
3FFC
3800
3800
3800
3800
3800
3800
FFE0
FFE0
3800
3800
3800
3800
3800
3800
3800
3800
ENDCHAR
STARTCHAR char1172
ENCODING 1172
SWIDTH 24 0
DWIDTH 19 0
BBX 14 30 3 -7
BITMAP
FFFC
FFFC
E000
E000
E000
E000
E000
E000
E000
E000
FFC0
FFF0
E1F8
E03C
E03C
E01C
E01C
E01C
E01C
E01C
E01C
E01C
E01C
001C
001C
001C
003C
00F8
03F0
03E0
ENDCHAR
STARTCHAR char1173
ENCODING 1173
SWIDTH 24 0
DWIDTH 19 0
BBX 13 25 4 -7
BITMAP
FFE0
FFE0
C000
C000
C000
C000
C000
C000
C000
FFE0
FFF0
C078
C038
C038
C038
C038
C038
C038
0038
0038
0038
0038
01F0
0FF0
0FC0
ENDCHAR
STARTCHAR char1174
ENCODING 1174
SWIDTH 24 0
DWIDTH 19 0
BBX 19 28 0 -5
BITMAP
F0E1E0
70E1C0
38E3C0
38E380
1CE780
1CE700
0EEF00
0EEE00
07FE00
07FC00
07FE00
0FFE00
0FFE00
1FF700
1CF700
1CE780
3CE380
38E380
38E3C0
78E1C0
70E1E0
70E1E0
E0E0E0
0000E0
0000E0
0000E0
0000E0
0000E0
ENDCHAR
STARTCHAR char1175
ENCODING 1175
SWIDTH 24 0
DWIDTH 19 0
BBX 18 23 1 -5
BITMAP
F1C380
71C700
39C700
39CE00
1DDE00
1DDC00
0FF800
0FFC00
1FFC00
1FFC00
1BEE00
39EE00
39C600
31C700
71C700
71C300
E1C3C0
E1C3C0
0001C0
0001C0
0001C0
0001C0
0001C0
ENDCHAR
STARTCHAR char1176
ENCODING 1176
SWIDTH 24 0
DWIDTH 19 0
BBX 15 30 2 -7
BITMAP
1FC0
7FF0
7DF8
403C
001C
001C
001C
001C
003C
0078
0FF0
0FE0
01F8
003C
001C
000E
000E
000E
001E
803C
FDFC
FFF8
3FE0
0100
0180
0180
01C0
1B80
1F80
1F00
ENDCHAR
STARTCHAR char1177
ENCODING 1177
SWIDTH 24 0
DWIDTH 19 0
BBX 14 25 3 -7
BITMAP
7F80
FFE0
FBF0
0078
0038
0038
0038
0070
1FE0
1FE0
03F0
0038
001C
001C
0038
F3F8
FFF0
7FC0
0200
0300
0300
0380
3780
3F00
3E00
ENDCHAR
STARTCHAR char1178
ENCODING 1178
SWIDTH 24 0
DWIDTH 19 0
BBX 17 28 2 -5
BITMAP
E00780
E00E00
E01C00
E03800
E07800
E0F000
E1E000
E3C000
E78000
EF0000
FF8000
FF8000
FBC000
F1E000
E0E000
E0F000
E07800
E03C00
E03C00
E01E00
E00F80
E00F80
E00780
000380
000380
000380
000380
000380
ENDCHAR
STARTCHAR char1179
ENCODING 1179
SWIDTH 24 0
DWIDTH 19 0
BBX 15 22 3 -4
BITMAP
E03C
E078
E0F0
E1E0
E3C0
E780
EF00
FF00
FF80
FB80
F1C0
E1E0
E0F0
E070
E038
E03E
E01E
E00E
000E
000E
000E
000E
ENDCHAR
STARTCHAR char1186
ENCODING 1186
SWIDTH 24 0
DWIDTH 19 0
BBX 18 28 1 -5
BITMAP
E00E00
E00E00
E00E00
E00E00
E00E00
E00E00
E00E00
E00E00
E00E00
E00E00
FFFE00
FFFE00
E00E00
E00E00
E00E00
E00E00
E00E00
E00E00
E00E00
E00E00
E00FC0
E00FC0
E00FC0
0001C0
0001C0
0001C0
0001C0
0001C0
ENDCHAR
STARTCHAR char1187
ENCODING 1187
SWIDTH 24 0
DWIDTH 19 0
BBX 16 22 3 -4
BITMAP
E038
E038
E038
E038
E038
E038
E038
E038
FFF8
FFF8
E038
E038
E038
E038
E038
E03F
E03F
E03F
0007
0007
0007
0007
ENDCHAR
STARTCHAR char1188
ENCODING 1188
SWIDTH 24 0
DWIDTH 19 0
BBX 16 23 3 0
BITMAP
E07F
E07F
E070
E070
E070
E070
E070
E070
E070
E070
FFF0
FFF0
E070
E070
E070
E070
E070
E070
E070
E070
E070
E070
E070
ENDCHAR
STARTCHAR char1189
ENCODING 1189
SWIDTH 24 0
DWIDTH 19 0
BBX 16 18 3 0
BITMAP
E07F
E07F
E070
E070
E070
E070
E070
E070
FFF0
FFF0
E070
E070
E070
E070
E070
E070
E070
E070
ENDCHAR
STARTCHAR char1194
ENCODING 1194
SWIDTH 24 0
DWIDTH 19 0
BBX 15 30 2 -7
BITMAP
03F8
0FFE
1FBE
3C06
3800
7800
7000
7000
F000
F000
E000
E000
E000
F000
F000
7000
7000
7800
3800
3C02
1FBE
0FFE
03F8
0060
0030
0030
0030
02F0
03F0
03E0
ENDCHAR
STARTCHAR char1195
ENCODING 1195
SWIDTH 24 0
DWIDTH 19 0
BBX 13 25 3 -7
BITMAP
07E0
1FF8
3F78
7808
F000
E000
E000
E000
E000
E000
E000
E000
E000
F000
7808
3F78
1FF8
07F0
00C0
00C0
0060
0060
0DE0
0FC0
0F80
ENDCHAR
STARTCHAR char1196
ENCODING 1196
SWIDTH 24 0
DWIDTH 19 0
BBX 18 28 1 -5
BITMAP
FFFFC0
FFFFC0
01C000
01C000
01C000
01C000
01C000
01C000
01C000
01C000
01C000
01C000
01C000
01C000
01C000
01C000
01C000
01C000
01C000
01C000
01FC00
01FC00
01FC00
003C00
003C00
003C00
003C00
003C00
ENDCHAR
STARTCHAR char1197
ENCODING 1197
SWIDTH 24 0
DWIDTH 19 0
BBX 13 22 3 -4
BITMAP
FFF8
FFF8
0700
0700
0700
0700
0700
0700
0700
0700
0700
0700
0700
0700
0700
07E0
07E0
07E0
00E0
00E0
00E0
00E0
ENDCHAR
STARTCHAR char1198
ENCODING 1198
SWIDTH 24 0
DWIDTH 19 0
BBX 18 23 1 0
BITMAP
E003C0
F00780
700700
380F00
380E00
1C1C00
1E1C00
0E3800
073800
077000
03F000
03E000
01C000
01C000
01C000
01C000
01C000
01C000
01C000
01C000
01C000
01C000
01C000
ENDCHAR
STARTCHAR char1199
ENCODING 1199
SWIDTH 24 0
DWIDTH 19 0
BBX 17 25 1 -7
BITMAP
F00380
700700
700700
380F00
380E00
380E00
1C1C00
1C1C00
0E1C00
0E3800
0E3800
073800
077000
037000
03E000
03E000
01E000
01C000
01C000
01C000
01C000
01C000
01C000
01C000
01C000
ENDCHAR
STARTCHAR char1200
ENCODING 1200
SWIDTH 24 0
DWIDTH 19 0
BBX 18 23 1 0
BITMAP
E003C0
F00780
700700
380F00
380E00
1C1C00
1E1C00
0E3800
073800
077000
03F000
03E000
01C000
01C000
1FFC00
1FFC00
01C000
01C000
01C000
01C000
01C000
01C000
01C000
ENDCHAR
STARTCHAR char1201
ENCODING 1201
SWIDTH 24 0
DWIDTH 19 0
BBX 17 25 1 -7
BITMAP
F00380
700700
700700
380F00
380E00
380E00
1C1C00
1C1C00
0E1C00
0E3800
0E3800
073800
077000
077000
03E000
03E000
01E000
01C000
01C000
0FF800
0FF800
01C000
01C000
01C000
01C000
ENDCHAR
STARTCHAR char1202
ENCODING 1202
SWIDTH 24 0
DWIDTH 19 0
BBX 19 28 0 -5
BITMAP
7801C0
3C03C0
1C0380
0E0700
0E0F00
070E00
079C00
039C00
01F800
01F000
00F000
00F000
01F800
03F800
039C00
071E00
0F0E00
0E0F00
1C0700
3C0380
3803E0
7801E0
F001E0
0000E0
0000E0
0000E0
0000E0
0000E0
ENDCHAR
STARTCHAR char1203
ENCODING 1203
SWIDTH 24 0
DWIDTH 19 0
BBX 17 22 1 -4
BITMAP
780780
380F00
1C0E00
0E1C00
0F3C00
073800
03F000
01E000
01E000
01E000
03F000
077800
073800
0E1C00
1C0E00
3C0F80
380780
700380
800380
000380
000380
000380
ENDCHAR
STARTCHAR char1210
ENCODING 1210
SWIDTH 24 0
DWIDTH 19 0
BBX 15 23 2 0
BITMAP
F000
F000
F000
F000
F000
F000
F000
F000
F000
F7F8
FFFC
FC1E
F80E
F00E
F00E
F00E
F00E
F00E
F00E
F00E
F00E
F00E
F00E
ENDCHAR
STARTCHAR char1211
ENCODING 1211
SWIDTH 24 0
DWIDTH 19 0
BBX 13 24 3 0
BITMAP
E000
E000
E000
E000
E000
E000
E3E0
EFF0
FFF8
F038
F038
E038
E018
E018
E018
E018
E018
E018
E018
E018
E018
E018
E018
E018
ENDCHAR
STARTCHAR char1216
ENCODING 1216
SWIDTH 24 0
DWIDTH 19 0
BBX 13 23 3 0
BITMAP
FFF8
FFF8
0700
0700
0700
0700
0700
0700
0700
0700
0700
0700
0700
0700
0700
0700
0700
0700
0700
0700
0700
FFF8
FFF8
ENDCHAR
STARTCHAR char1217
ENCODING 1217
SWIDTH 24 0
DWIDTH 19 0
BBX 19 29 0 0
BITMAP
060E00
071C00
03FC00
01F000
000000
000000
F0E1E0
70E1C0
38E3C0
38E380
1CE780
1CE700
0EEF00
0EEE00
07FE00
07FC00
07FE00
0FFE00
0FFE00
0FF700
1DF700
1CE700
3CE380
38E380
38E380
78E1C0
70E1C0
70E1E0
F0E0E0
ENDCHAR
STARTCHAR char1218
ENCODING 1218
SWIDTH 24 0
DWIDTH 19 0
BBX 17 25 1 0
BITMAP
0C1C00
0E1800
07F800
03F000
000000
000000
000000
F1C380
71C700
39C700
39CE00
1DDE00
1DDC00
0FF800
0FFC00
1FFC00
1FFC00
1BEE00
39CE00
39C600
71C700
71C700
71C300
E1C380
E1C380
ENDCHAR
STARTCHAR char1219
ENCODING 1219
SWIDTH 24 0
DWIDTH 19 0
BBX 17 30 2 -7
BITMAP
E00780
E00F00
E01E00
E03C00
E07800
E0F000
E1E000
E3C000
E78000
EF0000
EFE000
FFF000
F8F800
F03C00
E01C00
E01C00
E01E00
E01E00
E01E00
E01E00
E01E00
E01E00
E01E00
001E00
001C00
001C00
003C00
00F800
01F800
01E000
ENDCHAR
STARTCHAR char1220
ENCODING 1220
SWIDTH 24 0
DWIDTH 19 0
BBX 14 25 3 -7
BITMAP
E03C
E078
E070
E0E0
E1C0
E380
E700
EE00
FC00
FFF0
FFF8
E038
E01C
E01C
E01C
E01C
E01C
E01C
001C
001C
001C
0038
00F8
07F0
07E0
ENDCHAR
STARTCHAR char1223
ENCODING 1223
SWIDTH 24 0
DWIDTH 19 0
BBX 15 30 2 -7
BITMAP
E00E
E00E
E00E
E00E
E00E
E00E
E00E
E00E
E00E
E00E
FFFE
FFFE
E00E
E00E
E00E
E00E
E00E
E00E
E00E
E00E
E00E
E00E
E00E
000E
000E
001E
001C
00FC
01F8
01F0
ENDCHAR
STARTCHAR char1224
ENCODING 1224
SWIDTH 24 0
DWIDTH 19 0
BBX 14 25 3 -7
BITMAP
E01C
E01C
E01C
E01C
E01C
E01C
E01C
E01C
FFFC
FFFC
E01C
E01C
E01C
E01C
E01C
E01C
E01C
E01C
001C
001C
0018
0038
00F8
07F0
07E0
ENDCHAR
STARTCHAR char1227
ENCODING 1227
SWIDTH 24 0
DWIDTH 19 0
BBX 15 28 2 -5
BITMAP
E00E
E00E
E00E
E00E
E00E
E00E
E00E
E00E
E01E
F01E
787E
7FFE
3FCE
000E
000E
000E
000E
000E
000E
000E
00FE
00FE
00FE
00F0
00F0
00F0
00F0
00F0
ENDCHAR
STARTCHAR char1228
ENCODING 1228
SWIDTH 24 0
DWIDTH 19 0
BBX 13 22 3 -4
BITMAP
E038
E038
E038
E038
E038
E038
E038
E078
F0F8
7FF8
3FB8
0438
0038
0038
0038
01F8
01F8
01F8
01C0
01C0
01C0
01C0
ENDCHAR
STARTCHAR char1231
ENCODING 1231
SWIDTH 24 0
DWIDTH 19 0
BBX 3 25 7 0
BITMAP
E0
E0
E0
E0
E0
E0
E0
E0
E0
E0
E0
E0
E0
E0
E0
E0
E0
E0
E0
E0
E0
E0
E0
E0
E0
ENDCHAR
STARTCHAR char1232
ENCODING 1232
SWIDTH 24 0
DWIDTH 19 0
BBX 18 29 1 0
BITMAP
0C1C00
0E3800
07F800
03E000
000000
000000
01E000
03E000
03E000
037000
077000
077000
073800
0E3800
0E3800
0E1C00
1C1C00
1C1C00
1C1C00
1C0E00
3FFE00
3FFE00
3FFF00
700700
700700
700780
F00380
E00380
E003C0
ENDCHAR
STARTCHAR char1233
ENCODING 1233
SWIDTH 24 0
DWIDTH 19 0
BBX 16 26 2 0
BITMAP
1818
1830
1C70
0FF0
07C0
0000
0000
0000
0FE0
3FF8
3EFC
201C
000C
000E
000E
1FFE
3FFE
780E
F00E
E00E
E01E
E01E
703E
7DFE
3FEE
1FC7
ENDCHAR
STARTCHAR char1234
ENCODING 1234
SWIDTH 24 0
DWIDTH 19 0
BBX 18 29 1 0
BITMAP
0E3800
0E3800
0E3800
000000
000000
000000
01E000
03E000
03E000
037000
077000
077000
073800
0E3800
0E3800
0E1C00
1C1C00
1C1C00
1C1C00
1C0E00
3FFE00
3FFE00
3FFF00
700700
700700
700780
F00380
E00380
E003C0
ENDCHAR
STARTCHAR char1235
ENCODING 1235
SWIDTH 24 0
DWIDTH 19 0
BBX 16 25 2 0
BITMAP
1C70
1C70
1C70
0000
0000
0000
0000
0FE0
3FF8
3EFC
201C
000C
000E
000E
1FFE
3FFE
780E
F00E
E00E
E01E
E01E
703E
7DFE
3FEE
1FC7
ENDCHAR
STARTCHAR char1236
ENCODING 1236
SWIDTH 24 0
DWIDTH 19 0
BBX 18 23 0 0
BITMAP
03FFC0
03FFC0
033800
073800
073800
073800
063800
0E3800
0E3800
0C3800
1C3FC0
1C3FC0
1C3800
183800
383800
3FF800
3FF800
303800
703800
703800
703800
E03FC0
E03FC0
ENDCHAR
STARTCHAR char1237
ENCODING 1237
SWIDTH 24 0
DWIDTH 19 0
BBX 18 18 1 0
BITMAP
3E3E00
7F7F00
77F780
81E180
01C180
00C1C0
00C1C0
1FFFC0
7FFFC0
FDC000
E1C000
C1C000
C1C000
C1C000
E1E040
F7FB80
7F7F80
3E1F00
ENDCHAR
STARTCHAR char1238
ENCODING 1238
SWIDTH 24 0
DWIDTH 19 0
BBX 14 29 3 0
BITMAP
3030
3860
1FE0
0FC0
0000
0000
FFFC
FFFC
E000
E000
E000
E000
E000
E000
E000
E000
FFF8
FFF8
E000
E000
E000
E000
E000
E000
E000
E000
E000
FFFC
FFFC
ENDCHAR
STARTCHAR char1239
ENCODING 1239
SWIDTH 24 0
DWIDTH 19 0
BBX 15 26 2 0
BITMAP
1818
1818
1C30
0FF0
07E0
0000
0000
0000
07E0
1FF8
3FFC
781C
700E
E00E
E00E
FFFE
FFFE
E000
E000
E000
F000
7000
7806
3F7E
1FFE
07F0
ENDCHAR
STARTCHAR char1240
ENCODING 1240
SWIDTH 24 0
DWIDTH 19 0
BBX 15 23 2 0
BITMAP
0FE0
3FF0
3EF8
303C
001C
001E
000E
000E
000E
000E
FFFE
FFFE
E00E
E00E
E00E
E00E
F00E
701E
701C
783C
3EF8
1FF0
07E0
ENDCHAR
STARTCHAR char1241
ENCODING 1241
SWIDTH 24 0
DWIDTH 19 0
BBX 16 18 2 0
BITMAP
1FC0
7FF0
7FF8
401C
000E
000E
0006
0007
FFFF
FFFF
E007
E00E
600E
700E
781C
3EF8
1FF0
07C0
ENDCHAR
STARTCHAR char1242
ENCODING 1242
SWIDTH 24 0
DWIDTH 19 0
BBX 15 29 2 0
BITMAP
1C70
1C70
1C70
0000
0000
0000
0FE0
3FF0
3EF8
303C
001C
001E
000E
000E
000E
000E
FFFE
FFFE
E00E
E00E
E00E
E00E
F00E
701E
701C
783C
3EF8
1FF0
07E0
ENDCHAR
STARTCHAR char1243
ENCODING 1243
SWIDTH 24 0
DWIDTH 19 0
BBX 16 25 2 0
BITMAP
1C78
1C78
1C78
0000
0000
0000
0000
1FC0
7FF0
7FF8
401C
000E
000E
0006
0007
FFFF
FFFF
E007
E00E
600E
700E
781C
3EF8
1FF0
07C0
ENDCHAR
STARTCHAR char1244
ENCODING 1244
SWIDTH 24 0
DWIDTH 19 0
BBX 19 29 0 0
BITMAP
071C00
071C00
071C00
000000
000000
000000
F0E1E0
70E1C0
38E3C0
38E380
1CE780
1CE700
0EEF00
0EEE00
07FE00
07FC00
07FE00
0FFE00
0FFE00
0FF700
1DF700
1CE700
3CE380
38E380
38E380
78E1C0
70E1C0
70E1E0
F0E0E0
ENDCHAR
STARTCHAR char1245
ENCODING 1245
SWIDTH 24 0
DWIDTH 19 0
BBX 17 23 1 0
BITMAP
0E3800
0E3800
0E3800
000000
000000
F1C380
71C700
39C700
39CE00
1DDE00
1DDC00
0FF800
0FFC00
1FFC00
1FFC00
1BEE00
39CE00
39C600
71C700
71C700
71C300
E1C380
E1C380
ENDCHAR
STARTCHAR char1246
ENCODING 1246
SWIDTH 24 0
DWIDTH 19 0
BBX 15 29 2 0
BITMAP
1C70
1C70
1C70
0000
0000
0000
1FC0
7FF0
7DF8
803C
001C
001C
001C
001C
0078
0FF0
0FE0
01F8
003C
001C
000E
000E
000E
000E
001E
803C
FDF8
FFF0
3FC0
ENDCHAR
STARTCHAR char1247
ENCODING 1247
SWIDTH 24 0
DWIDTH 19 0
BBX 14 25 3 0
BITMAP
38E0
38E0
38E0
0000
0000
0000
0000
7FC0
FFF0
FBF8
0038
0038
0038
0070
1FE0
1FC0
03F0
0038
0018
001C
001C
8038
FBF8
FFF0
7F80
ENDCHAR
STARTCHAR char1248
ENCODING 1248
SWIDTH 24 0
DWIDTH 19 0
BBX 19 23 0 0
BITMAP
3FFF80
3FFF80
000780
000F00
001E00
001C00
003800
007000
00F000
00FC00
00FF00
001F80
0003C0
0001C0
0000E0
0000E0
F000E0
7001E0
7001C0
7803C0
3FBF80
1FFF00
07FC00
ENDCHAR
STARTCHAR char1249
ENCODING 1249
SWIDTH 24 0
DWIDTH 19 0
BBX 16 25 2 -7
BITMAP
7FFC
7FFC
001C
003C
0078
0070
00E0
01E0
03C0
0780
0700
0FE0
0FF8
01FC
001E
000E
000E
000F
000F
000E
000E
801E
FDFC
FFF8
3FE0
ENDCHAR
STARTCHAR char1250
ENCODING 1250
SWIDTH 24 0
DWIDTH 19 0
BBX 15 29 2 0
BITMAP
1FF0
1FF0
0000
0000
0000
0000
E01E
E03E
E03E
E03E
E07E
E07E
E0EE
E0EE
E0CE
E1CE
E18E
E38E
E38E
E70E
E70E
E60E
EE0E
EE0E
FC0E
FC0E
F80E
F80E
F00E
ENDCHAR
STARTCHAR char1251
ENCODING 1251
SWIDTH 24 0
DWIDTH 19 0
BBX 13 23 3 0
BITMAP
3FE0
3FE0
0000
0000
0000
E038
E038
E078
E0F8
E0F8
E1D8
E1D8
E398
E398
E718
EE18
EE18
FC18
FC18
F818
F018
F018
E018
ENDCHAR
STARTCHAR char1252
ENCODING 1252
SWIDTH 24 0
DWIDTH 19 0
BBX 15 29 2 0
BITMAP
1C70
1C70
1C70
0000
0000
0000
E01E
E03E
E03E
E03E
E07E
E07E
E0EE
E0EE
E0CE
E1CE
E18E
E38E
E38E
E70E
E70E
E60E
EE0E
EE0E
FC0E
FC0E
F80E
F80E
F00E
ENDCHAR
STARTCHAR char1253
ENCODING 1253
SWIDTH 24 0
DWIDTH 19 0
BBX 13 23 3 0
BITMAP
38E0
38E0
38E0
0000
0000
E038
E038
E078
E0F8
E0F8
E1D8
E1D8
E398
E398
E718
EE18
EE18
FC18
FC18
F818
F018
F018
E018
ENDCHAR
STARTCHAR char1254
ENCODING 1254
SWIDTH 24 0
DWIDTH 19 0
BBX 15 29 2 0
BITMAP
1C70
1C70
1C70
0000
0000
0000
07E0
1FF0
3EF8
783C
701C
701E
F00E
E00E
E00E
E00E
E00E
E00E
E00E
E00E
E00E
E00E
F00E
701E
701C
783C
3EF8
1FF0
07C0
ENDCHAR
STARTCHAR char1255
ENCODING 1255
SWIDTH 24 0
DWIDTH 19 0
BBX 15 25 2 0
BITMAP
1C70
1C70
1C70
0000
0000
0000
0000
07E0
1FF0
3EF8
783C
701C
F00E
E00E
E00E
E00E
E00E
E00E
E00E
F00E
701C
783C
3EF8
1FF0
07E0
ENDCHAR
STARTCHAR char1256
ENCODING 1256
SWIDTH 24 0
DWIDTH 19 0
BBX 15 23 2 0
BITMAP
07E0
1FF0
3EF8
783C
701C
701E
E00E
E00E
E00E
FFFE
FFFE
E00E
E00E
E00E
E00E
E00E
F00E
701E
701C
783C
3EF8
1FF0
07C0
ENDCHAR
STARTCHAR char1257
ENCODING 1257
SWIDTH 24 0
DWIDTH 19 0
BBX 15 18 2 0
BITMAP
07E0
1FF0
3EF8
783C
701C
F00E
E00E
E00E
FFFE
FFFE
E00E
E00E
F00E
701C
783C
3EF8
1FF0
07E0
ENDCHAR
STARTCHAR char1258
ENCODING 1258
SWIDTH 24 0
DWIDTH 19 0
BBX 15 29 2 0
BITMAP
1C70
1C70
1C70
0000
0000
0000
07E0
1FF0
3EF8
783C
701C
701E
E00E
E00E
E00E
FFFE
FFFE
E00E
E00E
E00E
E00E
E00E
F00E
701E
701C
783C
3EF8
1FF0
07C0
ENDCHAR
STARTCHAR char1259
ENCODING 1259
SWIDTH 24 0
DWIDTH 19 0
BBX 15 25 2 0
BITMAP
1C70
1C70
1C70
0000
0000
0000
0000
07E0
1FF0
3EF8
783C
701C
F00E
E00E
E00E
FFFE
FFFE
E00E
E00E
F00E
701C
783C
3EF8
1FF0
07E0
ENDCHAR
STARTCHAR char1260
ENCODING 1260
SWIDTH 24 0
DWIDTH 19 0
BBX 14 29 3 0
BITMAP
38E0
38E0
38E0
0000
0000
0000
3F00
FFC0
FBE0
8070
0038
0038
003C
001C
001C
001C
7FFC
7FFC
001C
001C
001C
001C
003C
0038
0078
80F0
F7E0
FFC0
7F00
ENDCHAR
STARTCHAR char1261
ENCODING 1261
SWIDTH 24 0
DWIDTH 19 0
BBX 14 25 3 0
BITMAP
38E0
38E0
38E0
0000
0000
0000
0000
3F80
FFE0
FBF0
8070
0038
0038
001C
3FFC
3FFC
001C
001C
003C
0038
0038
8070
FBF0
FFE0
3F80
ENDCHAR
STARTCHAR char1262
ENCODING 1262
SWIDTH 24 0
DWIDTH 19 0
BBX 16 29 2 0
BITMAP
1FF8
1FF8
0000
0000
0000
0000
F007
700F
700E
780E
381E
381C
1C1C
1C38
1E38
0E78
0E70
0770
07E0
07E0
03E0
03C0
01C0
0380
0380
0780
7F00
7E00
7C00
ENDCHAR
STARTCHAR char1263
ENCODING 1263
SWIDTH 24 0
DWIDTH 19 0
BBX 16 30 2 -7
BITMAP
1FF0
1FF0
0000
0000
0000
E007
E00E
700E
700E
701C
381C
381C
3838
1C38
1C30
0C70
0E70
0EE0
07E0
07E0
07C0
03C0
0380
0380
0380
0700
0700
1E00
7E00
7800
ENDCHAR
STARTCHAR char1264
ENCODING 1264
SWIDTH 24 0
DWIDTH 19 0
BBX 16 29 2 0
BITMAP
1C78
1C78
1C78
0000
0000
0000
F007
700F
700E
780E
381E
381C
1C1C
1C38
1E38
0E78
0E70
0770
07E0
07E0
03E0
03C0
01C0
0380
0380
0780
7F00
7E00
7C00
ENDCHAR
STARTCHAR char1265
ENCODING 1265
SWIDTH 24 0
DWIDTH 19 0
BBX 16 30 2 -7
BITMAP
1C70
1C70
1C70
0000
0000
E007
E00E
700E
700E
701C
381C
381C
3838
1C38
1C30
0C70
0E70
0EE0
07E0
07E0
07C0
03C0
0380
0380
0380
0700
0700
1E00
7E00
7800
ENDCHAR
STARTCHAR char1266
ENCODING 1266
SWIDTH 24 0
DWIDTH 19 0
BBX 16 29 2 0
BITMAP
03DE
0318
0630
0E70
0000
0000
F007
700F
700E
780E
381E
381C
1C1C
1C38
1E38
0E78
0E70
0770
07E0
07E0
03E0
03C0
01C0
0380
0380
0780
7F00
7E00
7C00
ENDCHAR
STARTCHAR char1267
ENCODING 1267
SWIDTH 24 0
DWIDTH 19 0
BBX 16 33 2 -7
BITMAP
039C
0318
0738
0630
0C60
1CE0
0000
0000
E007
E00E
700E
700E
701C
381C
381C
3838
1C38
1C30
0C70
0E70
0EE0
07E0
07E0
07C0
03C0
0380
0380
0380
0700
0700
1E00
7E00
7800
ENDCHAR
STARTCHAR char1268
ENCODING 1268
SWIDTH 24 0
DWIDTH 19 0
BBX 15 29 2 0
BITMAP
1C70
1C70
1C70
0000
0000
0000
E00E
E00E
E00E
E00E
E00E
E00E
E00E
E00E
E00E
E00E
F03E
7FFE
3FEE
000E
000E
000E
000E
000E
000E
000E
000E
000E
000E
ENDCHAR
STARTCHAR char1269
ENCODING 1269
SWIDTH 24 0
DWIDTH 19 0
BBX 13 23 3 0
BITMAP
38E0
38E0
38E0
0000
0000
C038
C038
C038
C038
C038
C038
C038
E038
F078
7FF8
3FF8
0038
0038
0038
0038
0038
0038
0038
ENDCHAR
STARTCHAR char1270
ENCODING 1270
SWIDTH 24 0
DWIDTH 19 0
BBX 15 28 3 -5
BITMAP
FFFE
FFFE
F000
F000
F000
F000
F000
F000
F000
F000
F000
F000
F000
F000
F000
F000
F000
F000
F000
F000
FE00
FE00
FE00
0E00
0E00
0E00
0E00
0E00
ENDCHAR
STARTCHAR char1271
ENCODING 1271
SWIDTH 24 0
DWIDTH 19 0
BBX 11 22 5 -4
BITMAP
FFE0
FFE0
C000
C000
C000
C000
C000
C000
C000
C000
C000
C000
C000
C000
C000
F800
F800
F800
3800
3800
3800
3800
ENDCHAR
STARTCHAR char1272
ENCODING 1272
SWIDTH 24 0
DWIDTH 19 0
BBX 17 29 1 0
BITMAP
0E3C00
0E3C00
0E3C00
000000
000000
000000
E00380
E00380
E00380
E00380
E00380
E00380
E00380
E00380
E00380
FF0380
FFC380
E7E380
E0E380
E0F380
E0F380
E07380
E07380
E0F380
E0F380
E1E380
FFE380
FFC380
FF0380
ENDCHAR
STARTCHAR char1273
ENCODING 1273
SWIDTH 24 0
DWIDTH 19 0
BBX 16 23 2 0
BITMAP
1C70
1C70
1C70
0000
0000
C007
C007
C007
C007
C007
C007
C007
C007
FF07
FFC7
C3C7
C1E7
C0E7
C0E7
C1E7
C7C7
FF87
FF07
ENDCHAR
STARTCHAR char1296
ENCODING 1296
SWIDTH 24 0
DWIDTH 19 0
BBX 15 23 2 0
BITMAP
07F0
1FFC
3F7C
7802
7000
7000
7000
7000
3C00
1FE0
0FE0
3F00
7800
7000
E000
E000
E000
E000
F000
7802
3F7E
1FFE
07F8
ENDCHAR
STARTCHAR char1297
ENCODING 1297
SWIDTH 24 0
DWIDTH 19 0
BBX 14 18 3 0
BITMAP
0FF0
3FF8
7EF8
F000
E000
E000
7800
3FC0
1FC0
7E00
F000
E000
E000
E000
F004
7E7C
3FFC
0FF0
ENDCHAR
STARTCHAR char1306
ENCODING 1306
SWIDTH 24 0
DWIDTH 19 0
BBX 17 28 2 -5
BITMAP
07E000
1FF000
3EF800
783C00
701C00
701E00
F00E00
E00E00
E00E00
E00E00
E00E00
E00E00
E00E00
E00E00
E00E00
E00E00
F00E00
701E00
701C00
783C00
3EF800
1FF000
07E000
007000
003800
001C00
000E00
000780
ENDCHAR
STARTCHAR char1307
ENCODING 1307
SWIDTH 24 0
DWIDTH 19 0
BBX 14 25 2 -7
BITMAP
0F8C
1FEC
3EEC
783C
701C
F01C
E01C
E01C
E01C
E01C
E01C
E01C
F01C
701C
783C
3EEC
1FEC
0F8C
000C
000C
000C
000C
000C
000C
000C
ENDCHAR
STARTCHAR char1308
ENCODING 1308
SWIDTH 24 0
DWIDTH 19 0
BBX 19 23 0 0
BITMAP
E000E0
E000E0
E000E0
6000E0
7000E0
7000C0
70E1C0
70F1C0
71F1C0
71F1C0
31B1C0
31B1C0
39B980
3B9980
3B1B80
3B1B80
3B1B80
1B1F80
1F0F00
1E0F00
1E0F00
1E0F00
1E0700
ENDCHAR
STARTCHAR char1309
ENCODING 1309
SWIDTH 24 0
DWIDTH 19 0
BBX 19 18 0 0
BITMAP
E000E0
E000E0
6000E0
7000C0
7001C0
70E1C0
70E1C0
30E1C0
38F180
39B380
39B380
199B80
1B1B00
1F1B00
1F1F00
0F0F00
0E0F00
0E0E00
ENDCHAR
STARTCHAR char1329
ENCODING 1329
SWIDTH 24 0
DWIDTH 19 0
BBX 15 24 2 -1
BITMAP
E01E
E01E
E01E
E01E
E01E
E01E
E01E
E01E
E01E
E01E
E01E
E01E
E01E
E01E
E01E
E01E
E19C
E3DC
E1FC
70FC
7FFC
3FFE
0FCE
0002
ENDCHAR
STARTCHAR char1330
ENCODING 1330
SWIDTH 24 0
DWIDTH 19 0
BBX 15 23 2 0
BITMAP
0FE0
3FF0
7CF8
701C
E01C
E01E
E01E
E01E
E01E
E01E
E000
E000
E000
FFFE
FFFE
FFFE
E000
E000
E000
E000
E000
E000
E000
ENDCHAR
STARTCHAR char1331
ENCODING 1331
SWIDTH 24 0
DWIDTH 19 0
BBX 17 23 1 0
BITMAP
0FE000
1FF800
3EFC00
781C00
701E00
F00E00
F00E00
E00E00
E00E00
F00E00
700E00
700E00
780E00
3FFF80
1FFF80
0FFF80
000E00
000E00
000E00
000E00
000E00
000E00
000E00
ENDCHAR
STARTCHAR char1332
ENCODING 1332
SWIDTH 24 0
DWIDTH 19 0
BBX 17 23 1 0
BITMAP
0FC000
3FF000
7FF800
703C00
E01C00
E01C00
E01C00
E01E00
E01E00
E01E00
001E00
001E00
001E00
001F80
001F80
001F80
001E00
001E00
001E00
001E00
001E00
001E00
001E00
ENDCHAR
STARTCHAR char1333
ENCODING 1333
SWIDTH 24 0
DWIDTH 19 0
BBX 15 23 2 0
BITMAP
E000
E000
E000
E000
E000
FFFE
FFFE
FFFE
E000
E000
E000
E000
E000
E01E
E01E
E01E
E01E
E01C
F01C
703C
7FF8
3FF0
0FC0
ENDCHAR
STARTCHAR char1334
ENCODING 1334
SWIDTH 24 0
DWIDTH 19 0
BBX 17 23 1 0
BITMAP
07F000
0FFC00
3FFE00
380E00
780700
700700
700780
700780
700780
F00780
000780
000780
000700
000700
000F00
000E00
001E00
003C00
707800
70F000
7FFF00
7FFF00
7FFF00
ENDCHAR
STARTCHAR char1335
ENCODING 1335
SWIDTH 24 0
DWIDTH 19 0
BBX 15 23 2 0
BITMAP
E000
E000
E000
E000
E000
FFFE
FFFE
FFFE
E000
E000
E000
E000
E000
E000
E000
E000
E000
E000
E000
E000
FFF8
FFF8
FFF8
ENDCHAR
STARTCHAR char1336
ENCODING 1336
SWIDTH 24 0
DWIDTH 19 0
BBX 15 23 2 0
BITMAP
0FE0
3FF0
7FF8
703C
F01C
E01E
E01E
E01E
E01E
E01E
E000
E000
E000
E000
E000
E000
E000
E000
E000
E000
FFFE
FFFE
FFFE
ENDCHAR
STARTCHAR char1337
ENCODING 1337
SWIDTH 24 0
DWIDTH 19 0
BBX 18 23 1 0
BITMAP
07E000
1FF800
3FFC00
780E00
700E00
F00700
F00700
E00700
E00700
E07FC0
E1FFC0
E1FFC0
E38700
E38700
E38700
E38700
E38700
E38700
E38700
E38600
E3CE00
E1FC00
E0F800
ENDCHAR
STARTCHAR char1338
ENCODING 1338
SWIDTH 24 0
DWIDTH 19 0
BBX 17 23 1 0
BITMAP
000E00
000E00
000E00
000E00
000E00
07FF80
1FFF80
3FFF80
780E00
700E00
F00E00
E00E00
E00E00
E00E00
E00E00
E00E00
E00E00
F01C00
701C00
783C00
3FF800
1FF000
07E000
ENDCHAR
STARTCHAR char1339
ENCODING 1339
SWIDTH 24 0
DWIDTH 19 0
BBX 15 23 3 0
BITMAP
E000
E000
E000
E000
E000
EFC0
FFF0
FFF8
F03C
E01C
E01C
E01E
E01E
E01E
E01E
E000
E000
E000
E000
E000
E000
E000
E000
ENDCHAR
STARTCHAR char1340
ENCODING 1340
SWIDTH 24 0
DWIDTH 19 0
BBX 14 23 3 0
BITMAP
E000
E000
E000
E000
E000
E000
E000
E000
E000
E000
E000
E000
E000
E000
E000
E000
E000
E000
E000
E000
FFFC
FFFC
FFFC
ENDCHAR
STARTCHAR char1341
ENCODING 1341
SWIDTH 24 0
DWIDTH 19 0
BBX 17 23 1 0
BITMAP
E00000
E00000
E00000
E00000
E00000
FF8380
FF8380
FF8380
E38380
E38380
E38380
E38380
E38380
E38380
E38380
E38380
E38380
E38380
E38380
E1C380
E1FF00
E1FF00
E07C00
ENDCHAR
STARTCHAR char1342
ENCODING 1342
SWIDTH 24 0
DWIDTH 19 0
BBX 17 23 1 0
BITMAP
E0FF00
E3FF80
E7FF80
EE0080
FFE000
FFF800
383E00
780F00
700700
700380
700380
700380
700380
700380
700380
700380
700380
700380
780780
380F00
3FFE00
0FFC00
07F000
ENDCHAR
STARTCHAR char1343
ENCODING 1343
SWIDTH 24 0
DWIDTH 19 0
BBX 15 23 2 0
BITMAP
E000
E000
E000
E000
E000
E00E
E00E
E00E
E00E
E00E
E00E
E00E
700E
701E
783E
3FFE
1FEE
010E
000E
000E
000E
000E
000E
ENDCHAR
STARTCHAR char1344
ENCODING 1344
SWIDTH 24 0
DWIDTH 19 0
BBX 17 24 1 -1
BITMAP
007800
003C00
001E00
001E00
000F00
001F00
007E00
00F800
03F000
07C000
0F0000
1E0000
3C0000
780000
F00000
F00000
FC0000
7F0000
3FC000
07F800
01FE00
003F80
000F80
000180
ENDCHAR
STARTCHAR char1345
ENCODING 1345
SWIDTH 24 0
DWIDTH 19 0
BBX 17 23 1 0
BITMAP
07F000
1FFC00
3FFE00
380E00
780700
700700
700780
700780
F00780
F00780
000780
000780
000700
000700
1F8700
3FEE00
7BFE00
707C00
703C00
707E00
79FF00
3FE780
1F8300
ENDCHAR
STARTCHAR char1346
ENCODING 1346
SWIDTH 24 0
DWIDTH 19 0
BBX 17 23 1 0
BITMAP
0FC000
3FF000
7FF800
703C00
E01C00
E01C00
E01C00
E01E00
E01E00
E01E00
001E00
001E00
001E00
001E00
001E00
001E00
001E00
001E00
001E00
001E00
001F80
001F80
001F80
ENDCHAR
STARTCHAR char1347
ENCODING 1347
SWIDTH 24 0
DWIDTH 19 0
BBX 17 23 1 0
BITMAP
780380
3C0F80
1C1F80
1E3C00
0E7800
0FF000
07E000
03C000
03C000
07C000
0FE000
0EE000
1C7000
3C7800
383800
783C00
701C00
700E00
F00F00
F00700
FFFF80
7FFF80
3FFF80
ENDCHAR
STARTCHAR char1348
ENCODING 1348
SWIDTH 24 0
DWIDTH 19 0
BBX 18 23 1 0
BITMAP
F00FC0
F00FC0
F00FC0
F00E00
F00E00
F00E00
F00E00
F00E00
F00E00
F00E00
F00E00
F00E00
F00E00
F00E00
F00E00
F00E00
F00E00
F00E00
701E00
781C00
3FFC00
1FF800
0FE000
ENDCHAR
STARTCHAR char1349
ENCODING 1349
SWIDTH 24 0
DWIDTH 19 0
BBX 17 23 1 0
BITMAP
03F000
0FFC00
1F1E00
1C0F00
3C0700
3C0700
000700
000700
001E00
FFFC00
FFFC00
FFFF00
000F00
000780
000380
000380
780380
780380
380780
3C0F00
1FFF00
0FFE00
03F800
ENDCHAR
STARTCHAR char1350
ENCODING 1350
SWIDTH 24 0
DWIDTH 19 0
BBX 17 23 1 0
BITMAP
FC0000
FC0000
FC0000
1C0000
1C0000
1C0000
1C0000
1C0000
1C0000
1C0000
1C0000
1C0000
1C0000
1C0380
1C0380
1C0380
1C0380
1C0380
1C0380
1E0780
0FFF00
07FE00
01F800
ENDCHAR
STARTCHAR char1351
ENCODING 1351
SWIDTH 24 0
DWIDTH 19 0
BBX 17 23 1 0
BITMAP
7E0000
7FC000
7FF800
07FE00
1E1E00
1C0600
380000
780000
700000
700000
700000
700000
F00000
F00380
700380
700780
700700
700700
780700
3C0E00
1FFE00
0FFC00
03F000
ENDCHAR
STARTCHAR char1352
ENCODING 1352
SWIDTH 24 0
DWIDTH 19 0
BBX 15 23 2 0
BITMAP
0FE0
1FF8
3FFC
701C
701E
F00E
E00E
E00E
E00E
E00E
E00E
E00E
E00E
E00E
E00E
E00E
E00E
E00E
E00E
E00E
E00E
E00E
E00E
ENDCHAR
STARTCHAR char1353
ENCODING 1353
SWIDTH 24 0
DWIDTH 19 0
BBX 17 25 1 -2
BITMAP
07F000
0FF800
1FFE00
380E00
780F00
700700
700700
700780
700780
F00780
000780
000780
000780
000700
000700
000F00
200E00
381E00
3F7C00
3FF000
0FF000
03FC00
007C00
001C00
000400
ENDCHAR
STARTCHAR char1354
ENCODING 1354
SWIDTH 24 0
DWIDTH 19 0
BBX 17 23 1 0
BITMAP
07F000
1FFC00
3FFE00
79CF00
F1C700
E1C780
E1C380
E1C380
E1C380
E1C380
01C380
01C380
01C380
01C380
01C380
01C380
000380
000380
000380
000380
000380
000380
000380
ENDCHAR
STARTCHAR char1355
ENCODING 1355
SWIDTH 24 0
DWIDTH 19 0
BBX 17 23 1 0
BITMAP
07F000
1FFC00
3FFE00
380E00
780700
700700
700700
700780
F00780
700780
7F0780
7FC780
1FE700
00E700
006F00
006E00
007E00
007C00
707800
70F000
7FFF00
7FFF00
7FFF00
ENDCHAR
STARTCHAR char1356
ENCODING 1356
SWIDTH 24 0
DWIDTH 19 0
BBX 17 23 2 0
BITMAP
0FC000
3FF000
7FF800
F03800
E01C00
E01C00
E01C00
E01C00
E01C00
E01C00
E01C00
E01C00
E01C00
E01F80
E01F80
E01F80
E01C00
E01C00
E01C00
E01C00
E01C00
E01C00
E01C00
ENDCHAR
STARTCHAR char1357
ENCODING 1357
SWIDTH 24 0
DWIDTH 19 0
BBX 15 23 2 0
BITMAP
E00E
E00E
E00E
E00E
E00E
E00E
E00E
E00E
E00E
E00E
E00E
E00E
E00E
E00E
E00E
E00E
E00E
F00E
701E
701C
3FFC
1FF8
0FE0
ENDCHAR
STARTCHAR char1358
ENCODING 1358
SWIDTH 24 0
DWIDTH 19 0
BBX 18 23 1 0
BITMAP
001C00
001C00
001C00
001C00
001C00
E01C00
E01C00
E01C00
E01C00
E01C00
E01C00
E01C00
E01C00
E03C00
707C00
7FFC00
1FFC00
021C00
001C00
001C00
001FC0
001FC0
001FC0
ENDCHAR
STARTCHAR char1359
ENCODING 1359
SWIDTH 24 0
DWIDTH 19 0
BBX 16 23 2 0
BITMAP
0FE0
1FF8
3FFC
781C
701E
701E
7000
7000
7800
3F00
1FE0
03F8
007C
001E
000E
000F
E00F
E00F
F00E
781E
7FFC
3FF8
0FE0
ENDCHAR
STARTCHAR char1360
ENCODING 1360
SWIDTH 24 0
DWIDTH 19 0
BBX 15 23 2 0
BITMAP
0FE0
1FF8
3FFC
701C
701E
F00E
E00E
E00E
E00E
E00E
E000
E000
E000
E000
E000
E000
E000
E000
E000
E000
E000
E000
E000
ENDCHAR
STARTCHAR char1361
ENCODING 1361
SWIDTH 24 0
DWIDTH 19 0
BBX 17 23 1 0
BITMAP
03F800
0FFC00
1F1E00
1C0F00
3C0700
3C0700
3C0700
1C0700
1E0E00
FFFC00
FFFC00
FFFF00
000F00
000780
000380
000380
780380
780380
380780
3C0F00
1FFF00
0FFE00
03F800
ENDCHAR
STARTCHAR char1362
ENCODING 1362
SWIDTH 24 0
DWIDTH 19 0
BBX 15 23 2 0
BITMAP
F000
F000
F000
F000
F000
FFFE
FFFE
FFFE
F000
F000
F000
F000
F000
F000
F000
F000
F000
F000
F000
F000
F000
F000
F000
ENDCHAR
STARTCHAR char1363
ENCODING 1363
SWIDTH 24 0
DWIDTH 19 0
BBX 17 23 1 0
BITMAP
01C000
01E000
1FFC00
3FFE00
79CF00
71C700
F1C380
E1C380
E1C380
E1C380
E1C380
E1C380
E1C380
E1C380
E1C380
71C380
71C700
79CF00
3FFE00
1FFC00
01C000
01C000
01C000
ENDCHAR
STARTCHAR char1364
ENCODING 1364
SWIDTH 24 0
DWIDTH 19 0
BBX 17 23 1 0
BITMAP
01F800
07FE00
0F9F00
1E0780
1C0380
1C0380
1C0380
1C0380
1C0380
1E0780
1F9F00
1FFE00
1DF800
1C0000
1C0000
1C0000
FFFF80
FFFF80
FFFF80
1C0000
1C0000
1C0000
1C0000
ENDCHAR
STARTCHAR char1365
ENCODING 1365
SWIDTH 24 0
DWIDTH 19 0
BBX 15 23 2 0
BITMAP
07E0
1FF0
3FF8
783C
701C
701E
F00E
E00E
E00E
E00E
E00E
E00E
E00E
E00E
E00E
E00E
F00E
701E
701C
783C
3FF8
1FF0
07C0
ENDCHAR
STARTCHAR char1366
ENCODING 1366
SWIDTH 24 0
DWIDTH 19 0
BBX 17 23 1 0
BITMAP
0FC000
3FC000
79C000
71C000
79C000
7FF800
3FFE00
1FFF00
01CF00
01C780
01C380
01C380
01C380
01C380
E1C380
E1C380
E1C380
E1C380
F1C380
71C700
7FDF00
3FFE00
0FF800
ENDCHAR
STARTCHAR char1369
ENCODING 1369
SWIDTH 24 0
DWIDTH 19 0
BBX 5 9 7 16
BITMAP
18
38
60
60
C0
60
60
38
18
ENDCHAR
STARTCHAR char1370
ENCODING 1370
SWIDTH 24 0
DWIDTH 19 0
BBX 5 7 7 16
BITMAP
38
38
38
70
70
60
E0
ENDCHAR
STARTCHAR char1371
ENCODING 1371
SWIDTH 24 0
DWIDTH 19 0
BBX 7 6 6 20
BITMAP
0E
1C
38
30
70
E0
ENDCHAR
STARTCHAR char1372
ENCODING 1372
SWIDTH 24 0
DWIDTH 19 0
BBX 12 9 4 20
BITMAP
0070
0070
00E0
07C0
3F80
7E00
E000
C000
C000
ENDCHAR
STARTCHAR char1373
ENCODING 1373
SWIDTH 24 0
DWIDTH 19 0
BBX 7 6 6 20
BITMAP
E0
70
38
1C
0C
06
ENDCHAR
STARTCHAR char1374
ENCODING 1374
SWIDTH 24 0
DWIDTH 19 0
BBX 13 9 3 20
BITMAP
07C0
1FF0
3FF8
7838
6018
E418
E3F8
C3F8
C1F0
ENDCHAR
STARTCHAR char1375
ENCODING 1375
SWIDTH 24 0
DWIDTH 19 0
BBX 13 5 3 20
BITMAP
C000
C000
FFF8
FFF8
FFF8
ENDCHAR
STARTCHAR char1377
ENCODING 1377
SWIDTH 24 0
DWIDTH 19 0
BBX 16 18 2 0
BITMAP
C387
C387
C387
C387
C387
C387
C387
C387
C387
C387
C387
C387
C387
C387
E387
FFFF
7DFF
78F7
ENDCHAR
STARTCHAR char1378
ENCODING 1378
SWIDTH 24 0
DWIDTH 19 0
BBX 14 25 3 -7
BITMAP
E7E0
EFF0
F878
F038
E038
E038
E038
E038
E038
E038
E038
E000
E000
E000
E000
E000
FFFC
FFFC
E000
E000
E000
E000
E000
E000
E000
ENDCHAR
STARTCHAR char1379
ENCODING 1379
SWIDTH 24 0
DWIDTH 19 0
BBX 17 25 1 -7
BITMAP
0F8C00
1FEC00
3C7C00
703C00
701C00
701C00
E01C00
E00C00
E00C00
E00C00
E00C00
E01C00
701C00
701C00
703C00
3C7F80
1FEF80
0F8F80
000C00
000C00
000C00
000C00
000C00
000C00
000C00
ENDCHAR
STARTCHAR char1380
ENCODING 1380
SWIDTH 24 0
DWIDTH 19 0
BBX 16 25 3 -7
BITMAP
E7C0
EFF0
FFF0
F078
E038
E038
E038
E038
E038
E038
E038
E038
E038
E038
E038
E03F
E03F
E03F
0038
0038
0038
0038
0038
0038
0038
ENDCHAR
STARTCHAR char1381
ENCODING 1381
SWIDTH 24 0
DWIDTH 19 0
BBX 14 24 3 0
BITMAP
E000
E000
E000
E000
E000
E000
FFFC
FFFC
FFFC
E000
E000
E000
E000
E038
E038
E038
E038
E038
E038
E038
E078
70F8
7FB8
1F38
ENDCHAR
STARTCHAR char1382
ENCODING 1382
SWIDTH 24 0
DWIDTH 19 0
BBX 17 25 2 -7
BITMAP
0F9C00
3FDC00
787C00
703C00
E03C00
E01C00
E01C00
E01C00
E01C00
E01C00
E01C00
E01C00
E01C00
E03C00
703C00
7FFC00
3FDC00
0F9C00
001C00
001C00
001C00
001C00
001C00
001F80
001F80
ENDCHAR
STARTCHAR char1383
ENCODING 1383
SWIDTH 24 0
DWIDTH 19 0
BBX 12 24 4 0
BITMAP
C000
C000
C000
C000
C000
C000
FFF0
FFF0
FFF0
C000
C000
C000
C000
C000
C000
C000
C000
C000
C000
C000
C000
C000
FFE0
FFE0
ENDCHAR
STARTCHAR char1384
ENCODING 1384
SWIDTH 24 0
DWIDTH 19 0
BBX 13 25 3 -7
BITMAP
E7C0
EFF0
FFF0
F078
E038
E038
E038
E038
E038
E038
E038
E038
E038
E038
E038
E038
E038
E038
E000
E000
E000
E000
E000
FFF8
FFF8
ENDCHAR
STARTCHAR char1385
ENCODING 1385
SWIDTH 24 0
DWIDTH 19 0
BBX 17 25 2 -7
BITMAP
C7E000
CFF000
DFF800
F03C00
E01C00
E00E00
E00E00
E00E00
E00600
E07F80
E3FF80
E7FF80
E70E00
E60E00
E60E00
E71C00
E7F800
E1F000
E00000
E00000
E00000
E00000
E00000
E00000
E00000
ENDCHAR
STARTCHAR char1386
ENCODING 1386
SWIDTH 24 0
DWIDTH 19 0
BBX 17 24 1 0
BITMAP
000E00
000E00
000E00
000E00
000E00
000E00
07FF80
1FFF80
3FFF80
380E00
700E00
700E00
700E00
F00E00
F00E00
F00E00
700E00
700E00
701C00
701C00
383C00
3EF800
1FF000
07C000
ENDCHAR
STARTCHAR char1387
ENCODING 1387
SWIDTH 24 0
DWIDTH 19 0
BBX 13 31 3 -7
BITMAP
E000
E000
E000
E000
E000
E000
E7C0
EFF0
FFF0
F078
F038
E038
E038
E038
E038
E038
E038
E038
E038
E038
E038
E038
E038
E038
E000
E000
E000
E000
E000
E000
E000
ENDCHAR
STARTCHAR char1388
ENCODING 1388
SWIDTH 24 0
DWIDTH 19 0
BBX 9 25 6 -7
BITMAP
E000
E000
E000
E000
E000
E000
E000
E000
E000
E000
E000
E000
E000
E000
E000
E000
E000
E000
E000
E000
E000
E000
E000
FF80
FF80
ENDCHAR
STARTCHAR char1389
ENCODING 1389
SWIDTH 24 0
DWIDTH 19 0
BBX 16 31 2 -7
BITMAP
C000
C000
C000
C000
C000
C000
CE07
FF07
FF87
E387
C387
C387
C387
C387
C387
C387
C387
C387
C387
C387
C387
C1FF
C1FF
C0F7
C000
C000
C000
C000
C000
C000
C000
ENDCHAR
STARTCHAR char1390
ENCODING 1390
SWIDTH 24 0
DWIDTH 19 0
BBX 15 25 2 0
BITMAP
0400
0E00
1E00
1C00
3E00
0F80
07C0
07FE
1FFE
3FFE
781C
701E
700E
E00E
E00E
E00E
E00E
E00E
E00E
700E
701C
783C
3FF8
1FF0
07E0
ENDCHAR
STARTCHAR char1391
ENCODING 1391
SWIDTH 24 0
DWIDTH 19 0
BBX 13 31 3 -7
BITMAP
E000
E000
E000
E000
E000
E000
E038
E038
E038
E038
E038
E038
E038
E038
E038
E038
E038
E038
E038
E038
F078
7FF8
7FB8
1F38
0038
0038
0038
0038
0038
0038
0038
ENDCHAR
STARTCHAR char1392
ENCODING 1392
SWIDTH 24 0
DWIDTH 19 0
BBX 13 24 3 0
BITMAP
E000
E000
E000
E000
E000
E000
E7C0
EFF0
FFF0
F078
F038
E038
E038
E038
E038
E038
E038
E038
E038
E038
E038
E038
E038
E038
ENDCHAR
STARTCHAR char1393
ENCODING 1393
SWIDTH 24 0
DWIDTH 19 0
BBX 14 24 3 0
BITMAP
1C00
3800
3800
3840
3CC0
1FC0
0FC0
0780
0FE0
1CF0
3870
7038
7038
E038
E018
E018
E01C
E01C
E03C
E03C
F07C
7FDC
7FDC
1F1C
ENDCHAR
STARTCHAR char1394
ENCODING 1394
SWIDTH 24 0
DWIDTH 19 0
BBX 16 25 3 -7
BITMAP
E7E0
EFF0
FFF8
F038
F038
E038
E038
E018
E018
E018
E018
E018
E018
E018
E018
E018
E018
E018
0018
0018
0018
0018
001F
001F
001F
ENDCHAR
STARTCHAR char1395
ENCODING 1395
SWIDTH 24 0
DWIDTH 19 0
BBX 15 24 2 0
BITMAP
003C
00FC
01FC
0380
0700
0E00
FF80
FFE0
FFF0
3838
381C
301C
700E
700E
700E
700E
700E
700E
701E
701E
783E
3FEE
1FEE
0F8E
ENDCHAR
STARTCHAR char1396
ENCODING 1396
SWIDTH 24 0
DWIDTH 19 0
BBX 16 24 2 0
BITMAP
001F
001F
001F
001C
001C
001C
E01C
E01C
E01C
E01C
E01C
E01C
E01C
E01C
E01C
E01C
E01C
E01C
E03C
E03C
707C
7FDC
3FDC
1F1C
ENDCHAR
STARTCHAR char1397
ENCODING 1397
SWIDTH 24 0
DWIDTH 19 0
BBX 10 25 3 -7
BITMAP
01C0
01C0
01C0
01C0
01C0
01C0
01C0
01C0
01C0
01C0
01C0
01C0
01C0
01C0
01C0
01C0
01C0
01C0
01C0
01C0
01C0
0380
FF80
FF00
FE00
ENDCHAR
STARTCHAR char1398
ENCODING 1398
SWIDTH 24 0
DWIDTH 19 0
BBX 16 24 0 0
BITMAP
FC00
FC00
FC00
1C00
1C00
1C00
1C07
1C07
1C07
1C07
1C07
1C07
1C07
1C07
1C07
1C07
1C07
1C07
1C07
1C07
1E0F
0FFB
0FF3
03E3
ENDCHAR
STARTCHAR char1399
ENCODING 1399
SWIDTH 24 0
DWIDTH 19 0
BBX 13 25 3 -7
BITMAP
1F80
3FE0
7FF0
E078
4038
0038
0018
0038
0038
0038
0070
00F0
00E0
01C0
0380
0700
0E00
1C00
3800
7000
E000
E000
FFF8
FFF8
7FF8
ENDCHAR
STARTCHAR char1400
ENCODING 1400
SWIDTH 24 0
DWIDTH 19 0
BBX 13 18 3 0
BITMAP
E7C0
EFF0
FFF0
F078
F038
E038
E038
E038
E038
E038
E038
E038
E038
E038
E038
E038
E038
E038
ENDCHAR
STARTCHAR char1401
ENCODING 1401
SWIDTH 24 0
DWIDTH 19 0
BBX 11 25 4 -7
BITMAP
0800
1E00
3C00
3800
3800
3800
3800
3FC0
1FE0
03C0
0380
0700
0E00
1C00
1C00
3800
7000
7000
6000
E000
E000
E000
F000
FFE0
7FE0
ENDCHAR
STARTCHAR char1402
ENCODING 1402
SWIDTH 24 0
DWIDTH 19 0
BBX 16 25 2 -7
BITMAP
C387
C387
C387
C387
C387
C387
C387
C387
C387
C387
C387
C387
C387
C387
E38F
FFFF
FDFF
78F7
0007
0007
0007
0007
0007
0007
0007
ENDCHAR
STARTCHAR char1403
ENCODING 1403
SWIDTH 24 0
DWIDTH 19 0
BBX 14 25 3 -7
BITMAP
0F80
3FE0
7FF0
F078
E038
E01C
E01C
E01C
7038
7838
3870
1CF0
1CE0
1DC0
1B80
1F00
1E00
1C00
3800
7000
E000
E000
FFF8
FFF8
7FF8
ENDCHAR
STARTCHAR char1404
ENCODING 1404
SWIDTH 24 0
DWIDTH 19 0
BBX 15 18 3 0
BITMAP
C7C0
EFF0
F8F8
F038
E038
E01C
E01C
E01C
E01C
E01C
E038
E038
E038
E070
E0E0
E1E0
E1FE
E1FE
ENDCHAR
STARTCHAR char1405
ENCODING 1405
SWIDTH 24 0
DWIDTH 19 0
BBX 13 18 3 0
BITMAP
E038
E038
E038
E038
E038
E038
E038
E038
E038
E038
E038
E038
E038
E038
F078
7FF8
7F98
1F18
ENDCHAR
STARTCHAR char1406
ENCODING 1406
SWIDTH 24 0
DWIDTH 19 0
BBX 16 31 3 -7
BITMAP
0038
0038
0038
0038
0038
0038
E038
E038
E038
E038
E038
E038
E038
E038
E038
E038
E038
E038
E038
E038
F078
7FF8
7FB8
1F38
0038
0038
0038
0038
0038
003F
003F
ENDCHAR
STARTCHAR char1407
ENCODING 1407
SWIDTH 24 0
DWIDTH 19 0
BBX 16 18 2 0
BITMAP
C3BC
C3FE
C3FE
C386
C387
C387
C387
C387
C387
C387
C387
C387
C387
C387
E387
F787
FF87
7B87
ENDCHAR
STARTCHAR char1408
ENCODING 1408
SWIDTH 24 0
DWIDTH 19 0
BBX 13 25 3 -7
BITMAP
E7C0
EFF0
FFF0
F078
F038
E038
E038
E038
E038
E038
E038
E038
E038
E038
E038
E038
E038
E038
E000
E000
E000
E000
E000
E000
E000
ENDCHAR
STARTCHAR char1409
ENCODING 1409
SWIDTH 24 0
DWIDTH 19 0
BBX 15 25 2 -7
BITMAP
07CE
1FEE
3C7E
781E
701E
701E
F00E
E00E
E00E
E00E
E00E
E00E
701E
701E
781E
3C3E
1FEE
0FCE
000E
000C
001C
201C
3EF8
3FF0
1FC0
ENDCHAR
STARTCHAR char1410
ENCODING 1410
SWIDTH 24 0
DWIDTH 19 0
BBX 11 18 5 0
BITMAP
E000
E000
E000
E000
E000
E000
E000
E000
E000
E000
E000
E000
E000
E000
E000
E000
FFE0
FFE0
ENDCHAR
STARTCHAR char1411
ENCODING 1411
SWIDTH 24 0
DWIDTH 19 0
BBX 16 31 2 -7
BITMAP
0380
0380
0380
0380
0380
0380
C3BC
C3FE
C3FE
C386
C387
C387
C387
C387
C387
C387
C387
C387
C387
C387
E387
F787
FF87
7B87
0380
0380
0380
0380
0380
0380
0380
ENDCHAR
STARTCHAR char1412
ENCODING 1412
SWIDTH 24 0
DWIDTH 19 0
BBX 17 25 1 -7
BITMAP
39F000
3BFC00
3FFE00
3E0E00
3C0700
380700
380700
380700
380700
380700
380700
380700
380700
3C0700
3C0E00
3FBE00
3BFC00
39F000
380000
380000
380000
FFFF80
FFFF80
380000
380000
ENDCHAR
STARTCHAR char1413
ENCODING 1413
SWIDTH 24 0
DWIDTH 19 0
BBX 15 18 2 0
BITMAP
07E0
1FF0
3EF8
783C
701C
F00E
E00E
E00E
E00E
E00E
E00E
E00E
F00E
701C
781C
3EF8
1FF0
07E0
ENDCHAR
STARTCHAR char1414
ENCODING 1414
SWIDTH 24 0
DWIDTH 19 0
BBX 18 31 0 -7
BITMAP
0FC000
3FC000
78C000
70C000
70C000
78C000
3FFC00
3FFF00
0FFF80
00C780
00C1C0
00C1C0
00C1C0
00C1C0
00C0C0
00C0C0
00C1C0
00C1C0
20C1C0
60C3C0
F0C380
7FFF80
1FFF00
0FFC00
00C000
00C000
00C000
00C000
00C000
00C000
00C000
ENDCHAR
STARTCHAR char1415
ENCODING 1415
SWIDTH 24 0
DWIDTH 19 0
BBX 17 24 2 0
BITMAP
E00000
E00000
E00000
E00000
E00000
E00000
E03800
E03800
E03800
E03800
E03800
E03800
E03800
E03800
E03800
E03800
E03800
E03800
E03800
E03800
E07800
70F800
7FBF80
3F3F80
ENDCHAR
STARTCHAR char1417
ENCODING 1417
SWIDTH 24 0
DWIDTH 19 0
BBX 3 13 8 0
BITMAP
E0
E0
E0
E0
00
00
00
00
00
E0
E0
E0
E0
ENDCHAR
STARTCHAR char1418
ENCODING 1418
SWIDTH 24 0
DWIDTH 19 0
BBX 8 3 6 7
BITMAP
FF
FF
7E
ENDCHAR
STARTCHAR char3647
ENCODING 3647
SWIDTH 24 0
DWIDTH 19 0
BBX 15 28 3 -4
BITMAP
0200
0200
0200
0200
FFE0
FFF8
E278
E23C
E21C
E21C
E238
E278
FFF0
FFE0
E2F8
E21C
E21C
E21C
E21E
E21C
E21C
E2FC
FFF8
FFE0
0200
0200
0200
0200
ENDCHAR
STARTCHAR char4304
ENCODING 4304
SWIDTH 24 0
DWIDTH 19 0
BBX 15 18 2 0
BITMAP
0E00
0E00
0700
0780
03E0
01F0
0078
001C
781C
700E
600E
E00E
700E
701C
701C
3C78
1FF8
0FE0
ENDCHAR
STARTCHAR char4305
ENCODING 4305
SWIDTH 24 0
DWIDTH 19 0
BBX 15 24 2 0
BITMAP
3800
3C00
1F00
0F80
0380
0180
0180
0180
07E0
1FF0
3C38
701C
701C
700E
600E
E00E
E00E
600E
700E
701C
781C
3C78
1FF0
07E0
ENDCHAR
STARTCHAR char4306
ENCODING 4306
SWIDTH 24 0
DWIDTH 19 0
BBX 16 22 2 -6
BITMAP
1FC0
3FF0
78F0
7038
7038
7038
4070
0060
0FF0
3FF8
783C
701E
E00E
E006
E006
E007
E006
E00E
700E
783C
3FF8
0FE0
ENDCHAR
STARTCHAR char4307
ENCODING 4307
SWIDTH 24 0
DWIDTH 19 0
BBX 17 22 1 -6
BITMAP
1E7C00
7FFF00
73C700
E18380
E18380
E18380
E18380
E18380
E18380
E18380
E18380
E1C380
60E700
70FF00
303C00
380000
1E0000
0F8000
1FE000
3CF000
103800
001C00
ENDCHAR
STARTCHAR char4308
ENCODING 4308
SWIDTH 24 0
DWIDTH 19 0
BBX 15 22 2 -6
BITMAP
03E0
0FF8
1C3C
381C
380E
380E
380E
380E
1C0E
000E
000E
000E
3C0E
700E
700E
600E
E00E
700E
701C
7C3C
3FF8
0FE0
ENDCHAR
STARTCHAR char4309
ENCODING 4309
SWIDTH 24 0
DWIDTH 19 0
BBX 15 22 2 -6
BITMAP
07E0
1FF8
3C3C
381C
700E
700E
300E
381C
003C
01F0
01F0
003C
001C
780E
700E
E00E
E00E
700E
701C
7C3C
3FF8
0FE0
ENDCHAR
STARTCHAR char4310
ENCODING 4310
SWIDTH 24 0
DWIDTH 19 0
BBX 14 24 3 0
BITMAP
0400
7F80
7FC0
E1C0
E0C0
C0E0
E0C0
E0C0
7180
3FE0
1FF0
7878
703C
E01C
E01C
E01C
E01C
E01C
E01C
E01C
7038
7878
3FF0
0FC0
ENDCHAR
STARTCHAR char4311
ENCODING 4311
SWIDTH 24 0
DWIDTH 19 0
BBX 17 16 1 0
BITMAP
1F3E00
7FFF00
71E700
E0E380
E0E380
E0C380
E0C380
E0C380
E0C380
E0C380
E0C380
E0C380
E1C300
71C700
3F8E00
1F1C00
ENDCHAR
STARTCHAR char4312
ENCODING 4312
SWIDTH 24 0
DWIDTH 19 0
BBX 15 16 2 0
BITMAP
0FE0
1FF8
3C78
781C
701C
700E
600E
E00E
600E
700E
701C
701C
701C
3838
1838
0E70
ENDCHAR
STARTCHAR char4313
ENCODING 4313
SWIDTH 24 0
DWIDTH 19 0
BBX 15 22 2 -6
BITMAP
07C0
07F0
00F8
001C
001C
000E
000C
001C
0038
01E0
01F0
003C
381C
700E
700E
E00E
E00E
700E
701C
3C3C
3FF8
0FE0
ENDCHAR
STARTCHAR char4314
ENCODING 4314
SWIDTH 24 0
DWIDTH 19 0
BBX 15 22 2 -6
BITMAP
0FE0
1FF8
3C7C
701C
701E
700E
E00E
E00E
600E
701C
701C
7018
3818
3818
1C00
1E00
0F00
3F80
7FC0
20E0
0070
0038
ENDCHAR
STARTCHAR char4315
ENCODING 4315
SWIDTH 24 0
DWIDTH 19 0
BBX 15 24 2 0
BITMAP
0100
1FF0
3FF8
783C
701C
700E
000E
000E
0FCE
1FEE
3C7E
783E
701E
F01E
E00E
E00E
E00E
E00E
F01C
701C
781C
3C78
1FF0
0FE0
ENDCHAR
STARTCHAR char4316
ENCODING 4316
SWIDTH 24 0
DWIDTH 19 0
BBX 15 23 2 0
BITMAP
1FF8
3FF8
7000
6000
E000
E000
E000
E7E0
EFF8
FC78
F01C
F01C
F00E
E00E
E00E
E00E
E00E
700E
701C
701C
3C78
1FF0
0FE0
ENDCHAR
STARTCHAR char4317
ENCODING 4317
SWIDTH 24 0
DWIDTH 19 0
BBX 17 16 1 0
BITMAP
1E3C00
3F7F00
71C700
E1C380
E1C380
E1C380
E1C380
E1C380
E1C380
E1C380
E00380
E00380
600380
700700
380700
1C0E00
ENDCHAR
STARTCHAR char4318
ENCODING 4318
SWIDTH 24 0
DWIDTH 19 0
BBX 15 23 2 0
BITMAP
3800
1F00
0FF0
00F8
003C
001C
001C
001C
0038
01F0
01F0
0038
381C
701C
700E
600E
E00E
600E
701E
701C
3C7C
3FF8
0FE0
ENDCHAR
STARTCHAR char4319
ENCODING 4319
SWIDTH 24 0
DWIDTH 19 0
BBX 15 22 2 -6
BITMAP
00FE
7FFE
FE0E
F80E
1E0E
070E
030E
038E
038E
038E
0F0E
FE0E
F80E
000E
000E
000E
E00E
700E
701C
783C
3FF8
0FE0
ENDCHAR
STARTCHAR char4320
ENCODING 4320
SWIDTH 24 0
DWIDTH 19 0
BBX 17 24 1 0
BITMAP
003000
00F000
03E000
078000
0E0000
1C0000
180000
300000
7E3E00
7FFF00
71C780
E1C380
E0C380
E1C380
E1C380
E1C380
E1C380
E1C380
E00380
E00380
700380
700700
380600
1C1E00
ENDCHAR
STARTCHAR char4321
ENCODING 4321
SWIDTH 24 0
DWIDTH 19 0
BBX 15 23 2 0
BITMAP
E000
E000
E000
E000
E020
E070
E0F0
E0C0
E0C0
E0E0
E070
E03C
E01C
E00E
E00E
E00E
600E
700E
701C
781C
3C78
1FF8
0FE0
ENDCHAR
STARTCHAR char4322
ENCODING 4322
SWIDTH 24 0
DWIDTH 19 0
BBX 18 26 1 -6
BITMAP
01C000
01C000
00C000
00C000
03E000
0FF800
3CDC00
38CE00
70C700
71C300
E1C380
E1C380
E1C180
E1C180
E001C0
E001C0
E001C0
E00180
E00380
E00380
F00380
700700
780F00
3E1E00
1FFC00
07F000
ENDCHAR
STARTCHAR char4323
ENCODING 4323
SWIDTH 24 0
DWIDTH 19 0
BBX 16 22 1 -6
BITMAP
8C3C
DE7E
F3EF
61C7
0187
0187
0187
0187
0187
0007
0007
0207
1C07
3807
3807
3807
3807
3807
3C07
1E1E
0FFE
03F8
ENDCHAR
STARTCHAR char4324
ENCODING 4324
SWIDTH 24 0
DWIDTH 19 0
BBX 17 22 1 -6
BITMAP
1F3E00
7FFF00
F1E380
E0E380
E0E380
E0E380
E0E380
E0E380
E0C380
E0C300
E0CE00
F18E00
7F8300
3E0380
000380
000380
180380
1C0380
1C0380
1E0F00
0FFF00
03FC00
ENDCHAR
STARTCHAR char4325
ENCODING 4325
SWIDTH 24 0
DWIDTH 19 0
BBX 14 29 2 -6
BITMAP
000C
000C
000C
000C
000C
000C
000C
0F0C
3FCC
38EC
703C
701C
701C
301C
381C
380C
000C
000C
000C
380C
700C
E00C
E00C
E01C
E01C
701C
7878
3FF0
0FE0
ENDCHAR
STARTCHAR char4326
ENCODING 4326
SWIDTH 24 0
DWIDTH 19 0
BBX 17 22 1 -6
BITMAP
1E3E00
3F7F00
71C780
E1C380
E1C380
E1C380
E1C380
E1C380
E1C380
E00380
E00380
E00380
700300
700600
380000
1E0000
0F0000
0FC000
1FF000
107800
003C00
001C00
ENDCHAR
STARTCHAR char4327
ENCODING 4327
SWIDTH 24 0
DWIDTH 19 0
BBX 15 22 2 -6
BITMAP
0F0E
1C0E
380E
700E
700E
700E
E00E
E00E
700E
700E
701E
3C3E
1FFE
0FCE
000E
000E
E00E
700E
701C
7C3C
3FF8
0FE0
ENDCHAR
STARTCHAR char4328
ENCODING 4328
SWIDTH 24 0
DWIDTH 19 0
BBX 16 24 1 0
BITMAP
1010
7CFC
FEFE
E38F
C387
C387
0007
0007
03E7
0FF7
1E3F
1C0F
380F
3807
3007
7007
7007
3007
3807
380F
1C0E
1E1E
0FFC
03F0
ENDCHAR
STARTCHAR char4329
ENCODING 4329
SWIDTH 24 0
DWIDTH 19 0
BBX 15 24 2 0
BITMAP
0200
3FE0
7FF0
7070
6038
E038
E030
E030
E7E0
EFF8
FC78
F01C
F01C
E00E
E00E
E00E
E00E
E00E
E01C
E01C
E01C
E038
E070
E0E0
ENDCHAR
STARTCHAR char4330
ENCODING 4330
SWIDTH 24 0
DWIDTH 19 0
BBX 17 23 1 -6
BITMAP
100000
1C7000
387000
383800
301E00
700700
700300
600300
E00700
E00600
E0FC00
E0FC00
E00700
E00300
F00380
700380
700380
700380
780780
380700
1E1E00
0FFC00
03F000
ENDCHAR
STARTCHAR char4331
ENCODING 4331
SWIDTH 24 0
DWIDTH 19 0
BBX 14 23 2 0
BITMAP
000C
000C
000C
000C
000C
000C
000C
0FCC
3FEC
3C7C
703C
701C
E01C
E01C
E00C
E00C
E01C
E01C
701C
703C
7C78
3FF0
0FC0
ENDCHAR
STARTCHAR char4332
ENCODING 4332
SWIDTH 24 0
DWIDTH 19 0
BBX 15 24 3 0
BITMAP
0810
7E7C
FFFE
E3C6
C186
C186
C000
C000
CF80
DFE0
F8F0
F078
E038
E018
C01C
C01C
C01C
E01C
E018
E038
F078
78F0
3FE0
1F80
ENDCHAR
STARTCHAR char4333
ENCODING 4333
SWIDTH 24 0
DWIDTH 19 0
BBX 15 29 2 -6
BITMAP
01C0
01C0
01C0
01C0
01C0
01C0
1FC0
3FC0
78E0
7060
707C
707C
7060
38E0
3FC0
1FC0
01C0
00F0
0078
003C
601C
700E
600E
E00E
700E
701C
7C7C
3FF8
0FE0
ENDCHAR
STARTCHAR char4334
ENCODING 4334
SWIDTH 24 0
DWIDTH 19 0
BBX 14 23 3 0
BITMAP
C000
C000
C000
C000
C000
C000
C000
C7C0
DFF0
F8F8
F038
E01C
E01C
E01C
E01C
E01C
E01C
E01C
E01C
7038
7CF8
3FF0
0FC0
ENDCHAR
STARTCHAR char4335
ENCODING 4335
SWIDTH 24 0
DWIDTH 19 0
BBX 15 26 2 -6
BITMAP
0300
0300
4300
7B00
7F00
1FE0
03FC
037C
030C
0380
0380
01C0
00E0
0070
0038
201C
701C
700E
E00E
E00E
700E
701E
781C
3C7C
1FF8
0FE0
ENDCHAR
STARTCHAR char4336
ENCODING 4336
SWIDTH 24 0
DWIDTH 19 0
BBX 15 24 2 0
BITMAP
0C00
0E00
0FE0
03F8
003C
001C
001C
001C
03F8
03F8
001C
001C
001C
001C
03F8
03F8
E01C
E01C
E00E
E01C
701C
787C
3FF8
0FE0
ENDCHAR
STARTCHAR char4337
ENCODING 4337
SWIDTH 24 0
DWIDTH 19 0
BBX 15 31 2 -6
BITMAP
01C0
01C0
00F8
007C
001E
000E
E00E
601C
70F8
70FC
700E
700E
700E
700E
701E
70F8
70FC
600E
E00E
E00E
E00E
E0FC
E0F8
E01C
E00E
E00E
700E
700E
3E1E
1FFC
0FF0
ENDCHAR
STARTCHAR char4338
ENCODING 4338
SWIDTH 24 0
DWIDTH 19 0
BBX 15 20 2 -4
BITMAP
07C0
1FF0
3C78
381C
701C
700E
600E
E00E
600E
600E
700C
701C
381C
3C38
1FF0
07E0
3EF8
7C7C
701C
4004
ENDCHAR
STARTCHAR char4339
ENCODING 4339
SWIDTH 24 0
DWIDTH 19 0
BBX 15 22 2 -6
BITMAP
7FFE
7FFE
701E
701C
701C
701C
0018
0038
0070
07E0
07F0
0038
001C
000C
600E
700E
E00E
700E
701C
3C3C
1FF8
07E0
ENDCHAR
STARTCHAR char4340
ENCODING 4340
SWIDTH 24 0
DWIDTH 19 0
BBX 15 30 2 -6
BITMAP
0100
1F00
7F00
7000
E000
E000
E000
6006
783E
3FFE
0FFE
000E
000E
001C
001C
0018
0070
07E0
07E0
0078
001C
001C
000E
000E
E00E
701E
701C
783C
3FF8
0FE0
ENDCHAR
STARTCHAR char4341
ENCODING 4341
SWIDTH 24 0
DWIDTH 19 0
BBX 16 24 2 0
BITMAP
0200
3FF0
7FF8
F038
E01C
E01C
E01C
E01C
F81C
7FFF
1FFF
001C
001C
001C
1FFF
7FFF
F01C
E01C
E01C
E01C
E01C
F878
7FF0
1FC0
ENDCHAR
STARTCHAR char4342
ENCODING 4342
SWIDTH 24 0
DWIDTH 19 0
BBX 17 22 1 -6
BITMAP
3E3E00
7F7F00
F1E780
E1C380
E1C380
E1C380
E1C380
E1C380
E1C380
E1C380
E1C380
E1C380
E1C380
F1E380
79FF00
39DE00
01C000
01C000
01C000
038000
078000
060000
ENDCHAR
STARTCHAR char4343
ENCODING 4343
SWIDTH 24 0
DWIDTH 19 0
BBX 16 22 2 -6
BITMAP
07C0
1FF0
3C70
3838
3838
3838
0070
01E0
07E0
1F80
3E00
7800
F00E
E00E
E006
E007
E007
E00E
F00E
7C3C
3FF8
0FE0
ENDCHAR
STARTCHAR char4344
ENCODING 4344
SWIDTH 24 0
DWIDTH 19 0
BBX 14 23 3 -6
BITMAP
0040
E1E0
E0F0
E070
E038
E018
E01C
E01C
E01C
E01C
E01C
E03C
F878
FFF0
EFC0
E000
E000
E01C
E01C
E03C
7878
3FF0
1FC0
ENDCHAR
STARTCHAR char4345
ENCODING 4345
SWIDTH 24 0
DWIDTH 19 0
BBX 15 22 2 -6
BITMAP
0FE0
3FF8
783C
F01E
E00E
E00E
E00E
E00E
E00E
E00C
701C
3FF8
07E0
0F80
1E00
1C00
3800
3818
3838
1C78
1FF0
07E0
ENDCHAR
STARTCHAR char4346
ENCODING 4346
SWIDTH 24 0
DWIDTH 19 0
BBX 15 18 2 -2
BITMAP
07E0
1FF8
3C3C
701C
700E
700E
F00E
700E
701C
701C
701C
3838
3C00
1E00
0F80
3FC0
78E0
1040
ENDCHAR
STARTCHAR char4347
ENCODING 4347
SWIDTH 24 0
DWIDTH 19 0
BBX 10 14 5 1
BITMAP
E000
E000
0000
0000
0000
01C0
01C0
0000
0000
0000
0000
0000
E000
E000
ENDCHAR
STARTCHAR char4348
ENCODING 4348
SWIDTH 24 0
DWIDTH 19 0
BBX 7 12 6 12
BITMAP
7E
40
C0
C0
D8
E4
C6
C6
C6
46
44
38
ENDCHAR
STARTCHAR char7808
ENCODING 7808
SWIDTH 24 0
DWIDTH 19 0
BBX 19 29 0 0
BITMAP
038000
01C000
00E000
007000
000000
000000
E000E0
E000E0
E000E0
6000E0
7000E0
7000C0
70E1C0
70F1C0
71F1C0
71F1C0
31B1C0
31B1C0
39B980
3B9980
3B1B80
3B1B80
3B1B80
1B1F80
1F0F00
1E0F00
1E0F00
1E0F00
1E0700
ENDCHAR
STARTCHAR char7809
ENCODING 7809
SWIDTH 24 0
DWIDTH 19 0
BBX 19 26 0 0
BITMAP
1E0000
070000
030000
038000
01C000
00E000
000000
000000
E000E0
E000E0
6000E0
7000C0
7001C0
70E1C0
70E1C0
30E1C0
38F180
39B380
39B380
199B80
1B1B00
1F1B00
1F1F00
0F0F00
0E0F00
0E0E00
ENDCHAR
STARTCHAR char7810
ENCODING 7810
SWIDTH 24 0
DWIDTH 19 0
BBX 19 29 0 0
BITMAP
003800
007000
006000
01C000
000000
000000
E000E0
E000E0
E000E0
6000E0
7000E0
7000C0
70E1C0
70F1C0
71F1C0
71F1C0
31B1C0
31B1C0
39B980
3B9980
3B1B80
3B1B80
3B1B80
1B1F80
1F0F00
1E0F00
1E0F00
1E0F00
1E0700
ENDCHAR
STARTCHAR char7811
ENCODING 7811
SWIDTH 24 0
DWIDTH 19 0
BBX 19 26 0 0
BITMAP
000F00
000E00
001C00
003800
007000
00E000
000000
000000
E000E0
E000E0
6000E0
7000C0
7001C0
70E1C0
70E1C0
30E1C0
38F180
39B380
39B380
199B80
1B1B00
1F1B00
1F1F00
0F0F00
0E0F00
0E0E00
ENDCHAR
STARTCHAR char7812
ENCODING 7812
SWIDTH 24 0
DWIDTH 19 0
BBX 19 29 0 0
BITMAP
071C00
071C00
071C00
000000
000000
000000
E000E0
E000E0
E000E0
6000E0
7000E0
7000C0
70E1C0
70F1C0
71F1C0
71F1C0
31B1C0
31B1C0
39B980
3B9980
3B1B80
3B1B80
3B1B80
1B1F80
1F0F00
1E0F00
1E0F00
1E0F00
1E0700
ENDCHAR
STARTCHAR char7813
ENCODING 7813
SWIDTH 24 0
DWIDTH 19 0
BBX 19 23 0 0
BITMAP
071C00
071C00
071C00
000000
000000
E000E0
E000E0
6000E0
7000C0
7001C0
70E1C0
70E1C0
30E1C0
38F180
39B380
39B380
199B80
1B1B00
1F1B00
1F1F00
0F0F00
0E0F00
0E0E00
ENDCHAR
STARTCHAR char7868
ENCODING 7868
SWIDTH 24 0
DWIDTH 19 0
BBX 14 29 3 0
BITMAP
1F30
3FF0
31E0
0000
0000
0000
FFFC
FFFC
E000
E000
E000
E000
E000
E000
E000
E000
FFF8
FFF8
E000
E000
E000
E000
E000
E000
E000
E000
E000
FFFC
FFFC
ENDCHAR
STARTCHAR char7869
ENCODING 7869
SWIDTH 24 0
DWIDTH 19 0
BBX 15 24 2 0
BITMAP
0F18
1F98
1FF8
18F0
0000
0000
07E0
1FF8
3FFC
781C
700E
E00E
E00E
FFFE
FFFE
E000
E000
E000
E000
7000
7806
3F7E
1FFE
07F0
ENDCHAR
STARTCHAR char7922
ENCODING 7922
SWIDTH 24 0
DWIDTH 19 0
BBX 18 29 1 0
BITMAP
070000
038000
01C000
00E000
000000
000000
E003C0
F00780
700700
380F00
380E00
1C1C00
1E1C00
0E3800
073800
077000
03F000
03E000
01C000
01C000
01C000
01C000
01C000
01C000
01C000
01C000
01C000
01C000
01C000
ENDCHAR
STARTCHAR char7923
ENCODING 7923
SWIDTH 24 0
DWIDTH 19 0
BBX 16 33 2 -7
BITMAP
3800
3800
1C00
0E00
0700
0300
0180
0000
E007
E00E
700E
700E
701C
381C
381C
3838
1C38
1C30
0C70
0E70
0EE0
07E0
07E0
07C0
03C0
03C0
0380
0380
0700
0700
1F00
7E00
7800
ENDCHAR
STARTCHAR char7928
ENCODING 7928
SWIDTH 24 0
DWIDTH 19 0
BBX 18 29 1 0
BITMAP
0F8C00
0FF800
0CF800
000000
000000
000000
E003C0
F00780
700700
380F00
380E00
1C1C00
1E1C00
0E3800
073800
077000
03F000
03E000
01C000
01C000
01C000
01C000
01C000
01C000
01C000
01C000
01C000
01C000
01C000
ENDCHAR
STARTCHAR char7929
ENCODING 7929
SWIDTH 24 0
DWIDTH 19 0
BBX 16 31 2 -7
BITMAP
0F18
1F98
1FF8
18F0
0000
0000
E007
E00E
700E
700E
701C
381C
381C
3838
1C38
1C30
0C70
0E70
0EE0
07E0
07E0
07C0
03C0
03C0
0380
0380
0700
0700
1E00
7E00
7C00
ENDCHAR
STARTCHAR char8192
ENCODING 8192
SWIDTH 24 0
DWIDTH 19 0
BBX 0 0 0 0
BITMAP
ENDCHAR
STARTCHAR char8193
ENCODING 8193
SWIDTH 24 0
DWIDTH 19 0
BBX 0 0 0 0
BITMAP
ENDCHAR
STARTCHAR char8194
ENCODING 8194
SWIDTH 24 0
DWIDTH 19 0
BBX 0 0 0 0
BITMAP
ENDCHAR
STARTCHAR char8195
ENCODING 8195
SWIDTH 24 0
DWIDTH 19 0
BBX 0 0 0 0
BITMAP
ENDCHAR
STARTCHAR char8196
ENCODING 8196
SWIDTH 24 0
DWIDTH 19 0
BBX 0 0 0 0
BITMAP
ENDCHAR
STARTCHAR char8197
ENCODING 8197
SWIDTH 24 0
DWIDTH 19 0
BBX 0 0 0 0
BITMAP
ENDCHAR
STARTCHAR char8198
ENCODING 8198
SWIDTH 24 0
DWIDTH 19 0
BBX 0 0 0 0
BITMAP
ENDCHAR
STARTCHAR char8199
ENCODING 8199
SWIDTH 24 0
DWIDTH 19 0
BBX 0 0 0 0
BITMAP
ENDCHAR
STARTCHAR char8200
ENCODING 8200
SWIDTH 24 0
DWIDTH 19 0
BBX 0 0 0 0
BITMAP
ENDCHAR
STARTCHAR char8201
ENCODING 8201
SWIDTH 24 0
DWIDTH 19 0
BBX 0 0 0 0
BITMAP
ENDCHAR
STARTCHAR char8202
ENCODING 8202
SWIDTH 24 0
DWIDTH 19 0
BBX 0 0 0 0
BITMAP
ENDCHAR
STARTCHAR char8208
ENCODING 8208
SWIDTH 24 0
DWIDTH 19 0
BBX 8 2 6 8
BITMAP
FF
FF
ENDCHAR
STARTCHAR char8209
ENCODING 8209
SWIDTH 24 0
DWIDTH 19 0
BBX 8 2 6 8
BITMAP
FF
FF
ENDCHAR
STARTCHAR char8210
ENCODING 8210
SWIDTH 24 0
DWIDTH 19 0
BBX 15 2 2 8
BITMAP
FFFE
FFFE
ENDCHAR
STARTCHAR char8211
ENCODING 8211
SWIDTH 24 0
DWIDTH 19 0
BBX 9 2 5 8
BITMAP
FF80
FF80
ENDCHAR
STARTCHAR char8212
ENCODING 8212
SWIDTH 24 0
DWIDTH 19 0
BBX 19 2 0 8
BITMAP
FFFFE0
FFFFE0
ENDCHAR
STARTCHAR char8213
ENCODING 8213
SWIDTH 24 0
DWIDTH 19 0
BBX 19 2 0 8
BITMAP
FFFFE0
FFFFE0
ENDCHAR
STARTCHAR char8214
ENCODING 8214
SWIDTH 24 0
DWIDTH 19 0
BBX 11 32 4 -8
BITMAP
E0E0
E0E0
E0E0
E0E0
E0E0
E0E0
E0E0
E0E0
E0E0
E0E0
E0E0
E0E0
E0E0
E0E0
E0E0
E0E0
E0E0
E0E0
E0E0
E0E0
E0E0
E0E0
E0E0
E0E0
E0E0
E0E0
E0E0
E0E0
E0E0
E0E0
E0E0
E0E0
ENDCHAR
STARTCHAR char8215
ENCODING 8215
SWIDTH 24 0
DWIDTH 19 0
BBX 19 5 0 -7
BITMAP
FFFFE0
000000
000000
000000
FFFFE0
ENDCHAR
STARTCHAR char8216
ENCODING 8216
SWIDTH 24 0
DWIDTH 19 0
BBX 6 9 7 15
BITMAP
1C
18
38
78
78
F0
F0
F0
F0
ENDCHAR
STARTCHAR char8217
ENCODING 8217
SWIDTH 24 0
DWIDTH 19 0
BBX 6 9 7 15
BITMAP
3C
3C
3C
3C
78
70
70
60
E0
ENDCHAR
STARTCHAR char8218
ENCODING 8218
SWIDTH 24 0
DWIDTH 19 0
BBX 6 9 6 -4
BITMAP
3C
3C
3C
3C
78
78
70
70
E0
ENDCHAR
STARTCHAR char8219
ENCODING 8219
SWIDTH 24 0
DWIDTH 19 0
BBX 6 9 7 15
BITMAP
F0
F0
F0
F0
78
78
38
18
1C
ENDCHAR
STARTCHAR char8220
ENCODING 8220
SWIDTH 24 0
DWIDTH 19 0
BBX 13 9 3 15
BITMAP
1C38
1838
3870
3870
78F0
F0F0
F1E0
F1E0
F1E0
ENDCHAR
STARTCHAR char8221
ENCODING 8221
SWIDTH 24 0
DWIDTH 19 0
BBX 13 9 3 15
BITMAP
3C78
3C78
3C78
3C78
7870
78F0
70E0
70E0
E1C0
ENDCHAR
STARTCHAR char8222
ENCODING 8222
SWIDTH 24 0
DWIDTH 19 0
BBX 13 9 3 -4
BITMAP
3C78
3C78
3C78
3C78
7870
78F0
70E0
70E0
E1C0
ENDCHAR
STARTCHAR char8223
ENCODING 8223
SWIDTH 24 0
DWIDTH 19 0
BBX 13 9 3 15
BITMAP
F1E0
F1E0
F1E0
F0E0
78F0
3870
3870
1838
1C38
ENDCHAR
STARTCHAR char8224
ENCODING 8224
SWIDTH 24 0
DWIDTH 19 0
BBX 14 26 3 -3
BITMAP
0700
0700
0700
0700
0700
0700
0700
FFFC
FFFC
0700
0700
0700
0700
0700
0700
0700
0700
0700
0700
0700
0700
0700
0700
0700
0700
0700
ENDCHAR
STARTCHAR char8225
ENCODING 8225
SWIDTH 24 0
DWIDTH 19 0
BBX 14 26 3 -3
BITMAP
0700
0700
0700
0700
0700
0700
0700
FFFC
FFFC
0700
0700
0700
0700
0700
0700
0700
0700
0700
FFFC
FFFC
0700
0700
0700
0700
0700
0700
ENDCHAR
STARTCHAR char8226
ENCODING 8226
SWIDTH 24 0
DWIDTH 19 0
BBX 9 9 5 7
BITMAP
3E00
7F00
FF80
FF80
FF80
FF80
FF80
7F00
3E00
ENDCHAR
STARTCHAR char8227
ENCODING 8227
SWIDTH 24 0
DWIDTH 19 0
BBX 11 12 5 6
BITMAP
8000
C000
F000
FC00
FF00
FF80
FFE0
FF00
FC00
F000
E000
8000
ENDCHAR
STARTCHAR char8228
ENCODING 8228
SWIDTH 24 0
DWIDTH 19 0
BBX 4 5 8 0
BITMAP
F0
F0
F0
F0
F0
ENDCHAR
STARTCHAR char8229
ENCODING 8229
SWIDTH 24 0
DWIDTH 19 0
BBX 11 5 4 0
BITMAP
F1E0
F1E0
F1E0
F1E0
F1E0
ENDCHAR
STARTCHAR char8230
ENCODING 8230
SWIDTH 24 0
DWIDTH 19 0
BBX 17 5 1 0
BITMAP
F1E780
F1E780
F1E780
F1E780
F1E780
ENDCHAR
STARTCHAR char8231
ENCODING 8231
SWIDTH 24 0
DWIDTH 19 0
BBX 5 5 7 9
BITMAP
70
F8
F8
F8
70
ENDCHAR
STARTCHAR char8239
ENCODING 8239
SWIDTH 24 0
DWIDTH 19 0
BBX 0 0 0 0
BITMAP
ENDCHAR
STARTCHAR char8240
ENCODING 8240
SWIDTH 24 0
DWIDTH 19 0
BBX 19 23 0 0
BITMAP
3E0000
7F0000
E38000
C18000
C18000
C18000
C18180
770780
7F3E00
3CF000
078000
3E0000
700000
400000
3F0FC0
7F9FC0
7198E0
60F060
60F060
61B860
7B9DE0
3F1FC0
1E0780
ENDCHAR
STARTCHAR char8241
ENCODING 8241
SWIDTH 24 0
DWIDTH 19 0
BBX 19 23 0 0
BITMAP
3E0000
7F0000
E38000
C18000
C18000
C18000
C38180
770780
7F3E00
1CF000
078000
3E0000
700000
400000
7DF7C0
7FFFE0
C71C60
C30820
C20820
C31C60
EFBEE0
7FF7C0
38E380
ENDCHAR
STARTCHAR char8242
ENCODING 8242
SWIDTH 24 0
DWIDTH 19 0
BBX 6 6 7 17
BITMAP
3C
30
70
60
C0
80
ENDCHAR
STARTCHAR char8243
ENCODING 8243
SWIDTH 24 0
DWIDTH 19 0
BBX 11 6 4 17
BITMAP
1CE0
39C0
3180
7300
6300
C600
ENDCHAR
STARTCHAR char8244
ENCODING 8244
SWIDTH 24 0
DWIDTH 19 0
BBX 15 6 2 17
BITMAP
3DEE
399C
3398
6318
6630
C460
ENDCHAR
STARTCHAR char8245
ENCODING 8245
SWIDTH 24 0
DWIDTH 19 0
BBX 6 6 7 17
BITMAP
E0
70
30
30
18
0C
ENDCHAR
STARTCHAR char8246
ENCODING 8246
SWIDTH 24 0
DWIDTH 19 0
BBX 11 6 4 17
BITMAP
F700
7380
3980
18C0
0CC0
0C60
ENDCHAR
STARTCHAR char8247
ENCODING 8247
SWIDTH 24 0
DWIDTH 19 0
BBX 15 6 2 17
BITMAP
E778
73B8
319C
198C
18C6
0C62
ENDCHAR
STARTCHAR char8249
ENCODING 8249
SWIDTH 24 0
DWIDTH 19 0
BBX 7 15 4 2
BITMAP
02
02
06
0E
1C
38
70
E0
F0
78
3C
0E
06
02
02
ENDCHAR
STARTCHAR char8250
ENCODING 8250
SWIDTH 24 0
DWIDTH 19 0
BBX 7 15 8 2
BITMAP
80
80
C0
E0
78
3C
1E
06
0E
1C
78
F0
E0
80
80
ENDCHAR
STARTCHAR char8252
ENCODING 8252
SWIDTH 24 0
DWIDTH 19 0
BBX 13 23 4 0
BITMAP
F0F0
F0F0
F0F0
F0F0
F0F0
F0F0
F0F0
F0F0
F0F0
70F0
70F0
70F0
7060
7060
7060
6060
0000
0000
70F0
F8F0
F9F8
F8F0
70F0
ENDCHAR
STARTCHAR char8253
ENCODING 8253
SWIDTH 24 0
DWIDTH 19 0
BBX 12 23 4 0
BITMAP
1F80
7FC0
FFE0
CEF0
8E70
0E70
0E70
0E70
0EE0
0FE0
0FC0
0F80
0F00
0E00
0E00
0E00
0E00
0E00
0E00
1E00
1F00
1E00
0E00
ENDCHAR
STARTCHAR char8254
ENCODING 8254
SWIDTH 24 0
DWIDTH 19 0
BBX 19 1 0 23
BITMAP
FFFFE0
ENDCHAR
STARTCHAR char8255
ENCODING 8255
SWIDTH 24 0
DWIDTH 19 0
BBX 21 6 -1 -8
BITMAP
800008
C00018
F80078
3FDFE0
0FFF80
01FC00
ENDCHAR
STARTCHAR char8260
ENCODING 8260
SWIDTH 24 0
DWIDTH 19 0
BBX 15 27 2 3
BITMAP
000E
000E
001C
001C
0038
0038
0078
0070
0070
00E0
00E0
01C0
01C0
0380
0380
0700
0700
0E00
0E00
1C00
1C00
1C00
3800
3800
7000
7000
E000
ENDCHAR
STARTCHAR char8261
ENCODING 8261
SWIDTH 24 0
DWIDTH 19 0
BBX 7 29 7 -5
BITMAP
FE
FE
E0
E0
E0
E0
E0
E0
E0
E0
E0
E0
E0
E0
FE
FE
E0
E0
E0
E0
E0
E0
E0
E0
E0
E0
E0
FE
FE
ENDCHAR
STARTCHAR char8262
ENCODING 8262
SWIDTH 24 0
DWIDTH 19 0
BBX 7 29 5 -5
BITMAP
FE
FE
0E
0E
0E
0E
0E
0E
0E
0E
0E
0E
0E
0E
FE
FE
0E
0E
0E
0E
0E
0E
0E
0E
0E
0E
0E
FE
FE
ENDCHAR
STARTCHAR char8263
ENCODING 8263
SWIDTH 24 0
DWIDTH 19 0
BBX 18 23 1 0
BITMAP
7C1F00
FE7F80
FF7F80
8F63C0
8743C0
0701C0
0703C0
0F0380
0E0780
1E0F00
3C0E00
381E00
381C00
381C00
381C00
381C00
000000
000000
381C00
781E00
783E00
781E00
381C00
ENDCHAR
STARTCHAR char8264
ENCODING 8264
SWIDTH 24 0
DWIDTH 19 0
BBX 16 23 1 0
BITMAP
7C1E
FE1E
FF1E
8F1E
871E
071E
071E
071E
0E1E
1E0E
1C0E
380E
380E
380E
380C
380C
3800
0000
380E
781E
7C1F
781E
380E
ENDCHAR
STARTCHAR char8265
ENCODING 8265
SWIDTH 24 0
DWIDTH 19 0
BBX 16 23 3 0
BITMAP
E078
E1FE
E1FE
E18F
E10F
E007
E00F
E00E
E01E
E01C
E03C
E038
E070
E070
E070
6070
0070
0000
E070
F078
F0F8
F078
E070
ENDCHAR
STARTCHAR char8267
ENCODING 8267
SWIDTH 24 0
DWIDTH 19 0
BBX 15 27 3 -4
BITMAP
FFC0
FFF0
C7F8
C7FC
C7FC
C7FC
C7FE
C7FE
C7FC
C7FC
C7FC
C7F8
C7F0
C7C0
C700
C700
C700
C700
C700
C700
C700
C700
C700
C700
C700
C700
C700
ENDCHAR
STARTCHAR char8287
ENCODING 8287
SWIDTH 24 0
DWIDTH 19 0
BBX 0 0 0 0
BITMAP
ENDCHAR
STARTCHAR char8304
ENCODING 8304
SWIDTH 24 0
DWIDTH 19 0
BBX 9 14 5 18
BITMAP
0800
3F00
6300
C180
C180
C180
CD80
DD80
C180
C180
C180
6180
7700
3E00
ENDCHAR
STARTCHAR char8308
ENCODING 8308
SWIDTH 24 0
DWIDTH 19 0
BBX 10 13 4 18
BITMAP
0700
0700
0F00
1B00
1B00
3300
6300
4300
FFC0
FFC0
0300
0300
0300
ENDCHAR
STARTCHAR char8309
ENCODING 8309
SWIDTH 24 0
DWIDTH 19 0
BBX 9 13 5 18
BITMAP
7F00
4000
4000
4000
7E00
4700
0380
0180
0180
0180
0180
8700
FE00
ENDCHAR
STARTCHAR char8310
ENCODING 8310
SWIDTH 24 0
DWIDTH 19 0
BBX 10 13 5 18
BITMAP
1F00
3900
6000
4000
DF00
F380
E180
C180
C0C0
C180
6180
7380
1E00
ENDCHAR
STARTCHAR char8311
ENCODING 8311
SWIDTH 24 0
DWIDTH 19 0
BBX 9 13 5 18
BITMAP
FF80
0180
0300
0300
0200
0600
0600
0C00
0C00
1800
1800
3800
3000
ENDCHAR
STARTCHAR char8312
ENCODING 8312
SWIDTH 24 0
DWIDTH 19 0
BBX 9 14 5 18
BITMAP
0800
7F00
E180
C180
C180
6300
1C00
6300
C180
C180
C180
C180
7780
3E00
ENDCHAR
STARTCHAR char8313
ENCODING 8313
SWIDTH 24 0
DWIDTH 19 0
BBX 9 14 5 18
BITMAP
0800
7E00
C300
C180
C180
C180
C180
E380
7D80
0180
0180
0300
6F00
7C00
ENDCHAR
STARTCHAR char8314
ENCODING 8314
SWIDTH 24 0
DWIDTH 19 0
BBX 11 9 4 11
BITMAP
0400
0400
0400
0400
FFE0
0400
0400
0400
0400
ENDCHAR
STARTCHAR char8315
ENCODING 8315
SWIDTH 24 0
DWIDTH 19 0
BBX 11 1 4 16
BITMAP
FFE0
ENDCHAR
STARTCHAR char8316
ENCODING 8316
SWIDTH 24 0
DWIDTH 19 0
BBX 11 4 4 15
BITMAP
FFE0
0000
0000
FFE0
ENDCHAR
STARTCHAR char8317
ENCODING 8317
SWIDTH 24 0
DWIDTH 19 0
BBX 5 16 7 8
BITMAP
18
30
30
60
60
60
C0
C0
C0
C0
60
60
60
30
30
18
ENDCHAR
STARTCHAR char8318
ENCODING 8318
SWIDTH 24 0
DWIDTH 19 0
BBX 5 16 7 8
BITMAP
C0
60
20
30
30
18
18
18
18
18
18
30
30
30
60
C0
ENDCHAR
STARTCHAR char8330
ENCODING 8330
SWIDTH 24 0
DWIDTH 19 0
BBX 11 9 4 1
BITMAP
0400
0400
0400
0400
FFE0
0400
0400
0400
0400
ENDCHAR
STARTCHAR char8331
ENCODING 8331
SWIDTH 24 0
DWIDTH 19 0
BBX 11 1 4 5
BITMAP
FFE0
ENDCHAR
STARTCHAR char8332
ENCODING 8332
SWIDTH 24 0
DWIDTH 19 0
BBX 11 5 4 3
BITMAP
FFE0
FFE0
0000
FFE0
FFE0
ENDCHAR
STARTCHAR char8333
ENCODING 8333
SWIDTH 24 0
DWIDTH 19 0
BBX 5 16 7 -2
BITMAP
18
30
30
60
60
60
C0
C0
C0
C0
60
60
60
30
30
18
ENDCHAR
STARTCHAR char8334
ENCODING 8334
SWIDTH 24 0
DWIDTH 19 0
BBX 5 16 7 -2
BITMAP
C0
60
20
30
30
18
18
18
18
18
18
30
30
30
60
C0
ENDCHAR
STARTCHAR char8352
ENCODING 8352
SWIDTH 24 0
DWIDTH 19 0
BBX 19 23 0 0
BITMAP
0F8000
1FC000
3DE000
702000
600000
601FE0
C01FE0
C01800
C01800
C01800
C01800
C01800
601FE0
603FE0
707800
3DF800
1FD800
0F9800
001800
001800
001800
001FE0
001FE0
ENDCHAR
STARTCHAR char8353
ENCODING 8353
SWIDTH 24 0
DWIDTH 19 0
BBX 16 27 2 -1
BITMAP
0066
0066
07FE
0FFE
1FFF
3CCF
79DD
7198
7198
E398
E338
E330
E330
E730
E670
E660
E660
EE60
ECE0
7CC0
7CC1
3CC3
3DC7
1FFF
1FFE
3BF8
3380
ENDCHAR
STARTCHAR char8354
ENCODING 8354
SWIDTH 24 0
DWIDTH 19 0
BBX 16 23 1 0
BITMAP
01F8
07FE
0F9F
1C03
3801
3800
7000
706F
707F
6079
E070
E060
6060
6060
7060
7060
7060
3860
3861
1E63
0FFF
07FE
01F8
ENDCHAR
STARTCHAR char8355
ENCODING 8355
SWIDTH 24 0
DWIDTH 19 0
BBX 17 23 0 0
BITMAP
0FFF80
0FFF80
0E0000
0E0000
0E0000
0E0000
0E0000
0E0000
0E0000
0FFF00
0FFF00
0E0000
0E0000
0E0000
0E0000
0E0000
0E0000
FFE000
0E0000
0E0000
0E0000
0E0000
0E0000
ENDCHAR
STARTCHAR char8356
ENCODING 8356
SWIDTH 24 0
DWIDTH 19 0
BBX 16 23 2 0
BITMAP
01FC
03FE
07FE
0F01
0E00
0E00
0E00
0E00
0E00
7FF8
7FF8
0E00
0E00
7FF8
7FF8
0E00
0E00
0E00
0E00
0E00
0E00
FFFF
FFFF
ENDCHAR
STARTCHAR char8357
ENCODING 8357
SWIDTH 24 0
DWIDTH 19 0
BBX 16 24 2 -3
BITMAP
0060
0060
0040
CEFC
DFFE
F7FE
E386
C387
C387
C387
C387
C387
C387
C387
C387
C787
C787
C787
C787
CF87
CF87
0C00
0800
1800
ENDCHAR
STARTCHAR char8358
ENCODING 8358
SWIDTH 24 0
DWIDTH 19 0
BBX 19 23 0 0
BITMAP
1E0380
1E0380
1F0380
1F0380
1F8380
1F8380
1F8380
1DC380
FFFFE0
FFFFE0
1CE380
1CE380
FFFFE0
FFFFE0
1C7380
1C3B80
1C3B80
1C3F80
1C1F80
1C1F80
1C0F80
1C0F80
1C0F80
ENDCHAR
STARTCHAR char8359
ENCODING 8359
SWIDTH 24 0
DWIDTH 19 0
BBX 19 23 0 0
BITMAP
FCC000
FEC000
CEC000
C6C000
C3C000
C3FBC0
C3FFE0
C3C620
C3C400
C6C400
CEC400
FEC600
FCC700
C0C3C0
C0C1E0
C0C060
C0C020
C0C020
C0C020
C0E860
C07EE0
C07FC0
C00780
ENDCHAR
STARTCHAR char8360
ENCODING 8360
SWIDTH 24 0
DWIDTH 19 0
BBX 19 23 0 0
BITMAP
FE0000
FF8000
C78000
C18000
C1C000
C0C7C0
C0CFE0
C0DEE0
C1D820
C39000
FF9000
FE1800
C71E00
C38F80
C187C0
C1C0E0
C0C060
C0C060
C0E060
C06060
C07DE0
C07FC0
C07F80
ENDCHAR
STARTCHAR char8361
ENCODING 8361
SWIDTH 24 0
DWIDTH 19 0
BBX 19 23 0 0
BITMAP
E060E0
E0E0E0
E0E0E0
FFFFE0
FFFFE0
70F1C0
71B1C0
FFFFE0
FFFFE0
71F1C0
31B1C0
31B9C0
3B9980
3B9980
3B1B80
3B1B80
1B1F80
1B0F80
1F0F00
1E0F00
1E0F00
1E0F00
1E0700
ENDCHAR
STARTCHAR char8362
ENCODING 8362
SWIDTH 24 0
DWIDTH 19 0
BBX 18 23 1 0
BITMAP
FF81C0
FFC1C0
C3E1C0
C071C0
C031C0
C031C0
C039C0
C039C0
C639C0
C639C0
C639C0
C639C0
C639C0
C639C0
C601C0
C601C0
C601C0
C601C0
C701C0
C301C0
C3FFC0
C1FFC0
C0FFC0
ENDCHAR
STARTCHAR char8363
ENCODING 8363
SWIDTH 24 0
DWIDTH 19 0
BBX 17 29 4 -5
BITMAP
001C00
01FF80
01FF80
001C00
001C00
001C00
0F9C00
3FDC00
3FFC00
703C00
F03C00
E01C00
E01C00
E01C00
E01C00
E01C00
E01C00
E01C00
E01C00
703C00
703C00
3FFC00
3FFC00
0F8C00
000000
000000
000000
1FF000
1FF000
ENDCHAR
STARTCHAR char8364
ENCODING 8364
SWIDTH 24 0
DWIDTH 19 0
BBX 16 23 1 0
BITMAP
00FC
03FF
07DF
0F01
1E00
1C00
1C00
3C00
FFF8
FFF0
3800
3800
FFE0
FFC0
3C00
1C00
1C00
1C00
0E00
0F03
07FF
03FF
00FC
ENDCHAR
STARTCHAR char8365
ENCODING 8365
SWIDTH 24 0
DWIDTH 19 0
BBX 18 23 1 0
BITMAP
380780
380F00
381E00
383C00
387800
38F000
38E000
39C000
3B8000
3F0000
FFFC00
FFFC00
3F0000
3B8000
39C000
39E000
38F000
387800
383C00
381E00
380E00
380700
3803C0
ENDCHAR
STARTCHAR char8366
ENCODING 8366
SWIDTH 24 0
DWIDTH 19 0
BBX 18 23 1 0
BITMAP
FFFFC0
FFFFC0
01C000
01C000
01C400
01CE00
01DC00
01F800
01E000
03C400
07CE00
0FFC00
1DF000
11E000
03C000
07C000
1FC000
19C000
11C000
01C000
01C000
01C000
01C000
ENDCHAR
STARTCHAR char8367
ENCODING 8367
SWIDTH 24 0
DWIDTH 19 0
BBX 19 30 0 -7
BITMAP
078000
0FC000
1FE000
166000
363000
063000
063000
041800
041800
0C1800
0C1800
0C19C0
0C19C0
0C1BE0
0C1360
0C3220
783220
783660
5C7660
DC6660
7FE7C0
77C7C0
738580
000400
000400
000C00
000C00
000C00
000C00
000400
ENDCHAR
STARTCHAR char8368
ENCODING 8368
SWIDTH 24 0
DWIDTH 19 0
BBX 17 23 1 0
BITMAP
007C00
00FE00
01EF00
01C700
01C700
01C700
01C700
01C700
00E700
00EE00
3E7E00
7F3E00
E7FF00
43E780
000380
000380
000380
000380
000380
000780
003F00
003E00
003800
ENDCHAR
STARTCHAR char8369
ENCODING 8369
SWIDTH 24 0
DWIDTH 19 0
BBX 17 23 2 0
BITMAP
7FF000
7FFC00
70FE00
700E00
FFFF80
FFFF80
700700
FFFF80
FFFF80
701E00
703E00
7FFC00
7FF800
700000
700000
700000
700000
700000
700000
700000
700000
700000
700000
ENDCHAR
STARTCHAR char8370
ENCODING 8370
SWIDTH 24 0
DWIDTH 19 0
BBX 17 29 1 -2
BITMAP
00C000
00C000
00C000
00C000
03FC00
0FFF00
1FDF80
3CC380
78C080
70C000
F0C000
F0C000
E0C000
E0C000
E0C000
E0C780
E0C780
E0C380
E0C380
E0C380
F0C380
70C380
78C380
3CC380
1FDF80
0FFF00
03F800
00C000
00C000
ENDCHAR
STARTCHAR char8371
ENCODING 8371
SWIDTH 24 0
DWIDTH 19 0
BBX 18 23 1 0
BITMAP
01C000
01E000
03E000
03E000
037000
077000
073000
063800
FFFF80
FFFF80
0C1C00
1C1C00
1C0C00
FFFF80
FFFF80
380E00
380700
700700
700700
700380
E00380
E00380
E003C0
ENDCHAR
STARTCHAR char8372
ENCODING 8372
SWIDTH 24 0
DWIDTH 19 0
BBX 19 23 0 0
BITMAP
03F800
0FFE00
0FBF00
100780
000380
000380
000380
000780
FFFFE0
FFFFE0
07FE00
1FE000
FFFFE0
FFFFE0
3C0000
380000
380000
380000
3C0080
1E0180
1FDF80
07FF80
03FC00
ENDCHAR
STARTCHAR char8373
ENCODING 8373
SWIDTH 24 0
DWIDTH 19 0
BBX 15 28 2 -4
BITMAP
00C0
00C0
00C0
07F8
0FFE
1FCE
3CC6
78C2
70C0
F0C0
F0C0
E0C0
E0C0
E0C0
E0C0
E0C0
F0C0
70C0
70C2
38C2
3CC6
1FFE
0FFC
03F0
00C0
00C0
00C0
00C0
ENDCHAR
STARTCHAR char8375
ENCODING 8375
SWIDTH 24 0
DWIDTH 19 0
BBX 19 26 0 -3
BITMAP
003F80
00FFE0
03FBE0
038060
070000
070000
0E0000
0F0000
0F0000
07C000
03F800
01FF00
003F80
000780
0003C0
0001C0
3DC1C0
2643C0
244380
74C780
7EBF00
7FFE00
4FF800
488000
498000
C98000
ENDCHAR
STARTCHAR char8376
ENCODING 8376
SWIDTH 24 0
DWIDTH 19 0
BBX 18 23 1 0
BITMAP
FFFFC0
FFFFC0
000000
000000
FFFFC0
FFFFC0
01C000
01C000
01C000
01C000
01C000
01C000
01C000
01C000
01C000
01C000
01C000
01C000
01C000
01C000
01C000
01C000
01C000
ENDCHAR
STARTCHAR char8377
ENCODING 8377
SWIDTH 24 0
DWIDTH 19 0
BBX 16 23 2 0
BITMAP
FFFF
FFFE
0FC0
01E0
00E1
FFFE
FFFE
00E0
00E0
01E0
0FC0
FF00
FF00
0780
03C0
01C0
00E0
00E0
00F0
0070
0078
0038
003C
ENDCHAR
STARTCHAR char8470
ENCODING 8470
SWIDTH 24 0
DWIDTH 19 0
BBX 19 23 0 0
BITMAP
E1C780
F1CF80
F1CFC0
F1D8C0
F1D860
F9D860
F9D860
F9D860
F9D860
FDD840
FDCCC0
FDCFC0
EDC780
EFC000
EFDFC0
EFDFC0
E7C000
E7C000
E7C000
E3C000
E3C000
E3C000
E3C000
ENDCHAR
STARTCHAR char8482
ENCODING 8482
SWIDTH 24 0
DWIDTH 19 0
BBX 18 9 0 14
BITMAP
FEE1C0
10F3C0
10D2C0
10DEC0
10CCC0
10CCC0
10C0C0
10C0C0
10C0C0
ENDCHAR
STARTCHAR char8486
ENCODING 8486
SWIDTH 24 0
DWIDTH 19 0
BBX 17 23 1 0
BITMAP
03E000
0FF800
1F7C00
3C1E00
380F00
700700
700700
700380
F00380
E00380
E00380
E00380
F00380
700380
700780
700700
700700
380E00
380E00
1C1C00
0E3800
FE3F80
FE3F80
ENDCHAR
STARTCHAR char8528
ENCODING 8528
SWIDTH 24 0
DWIDTH 19 0
BBX 17 30 0 -4
BITMAP
7E0000
7E0000
060000
060000
060000
060000
060000
060000
060000
060000
060000
3FC000
3FC180
001F80
01FC00
1FC000
FC0000
40FF80
000180
000300
000300
000300
000600
000600
000C00
000C00
001800
001800
003800
003000
ENDCHAR
STARTCHAR char8529
ENCODING 8529
SWIDTH 24 0
DWIDTH 19 0
BBX 17 31 0 -5
BITMAP
060000
7E0000
760000
060000
060000
060000
060000
060000
060000
060000
060000
060000
3FC000
3FC180
003F80
03F800
FF0000
703E00
006300
00C180
00C180
00C180
00C180
00C180
006380
003D80
000180
000180
004300
007F00
003C00
ENDCHAR
STARTCHAR char8531
ENCODING 8531
SWIDTH 24 0
DWIDTH 19 0
BBX 18 31 0 -4
BITMAP
060000
7E0000
760000
060000
060000
060000
060000
060000
060000
060000
060000
060000
3FC000
3FC180
003F80
03F800
3F8000
F83E00
007F00
004380
000180
000180
000380
001E00
001F00
000380
0001C0
0001C0
008380
00FF80
007E00
ENDCHAR
STARTCHAR char8532
ENCODING 8532
SWIDTH 24 0
DWIDTH 19 0
BBX 18 31 0 -4
BITMAP
1E0000
7F8000
63C000
01C000
01C000
018000
038000
030000
060000
0C0000
180000
300000
7FC000
7FC180
001F80
03FC00
3F8000
F83E00
007F00
004380
000180
000180
000380
001E00
001F00
000380
0001C0
0001C0
008380
00FF80
007E00
ENDCHAR
STARTCHAR char8533
ENCODING 8533
SWIDTH 24 0
DWIDTH 19 0
BBX 17 31 0 -4
BITMAP
060000
7E0000
760000
060000
060000
060000
060000
060000
060000
060000
060000
060000
3FC000
3FC180
001F80
01FC00
1FC000
FC0000
407F00
006000
006000
006000
007E00
007F00
000380
000180
000180
000180
008380
00FF00
00FE00
ENDCHAR
STARTCHAR char8534
ENCODING 8534
SWIDTH 24 0
DWIDTH 19 0
BBX 17 31 0 -4
BITMAP
1E0000
7F8000
63C000
01C000
01C000
018000
038000
030000
060000
0C0000
180000
300000
7FC000
7FC180
001F80
01FC00
1FC000
FC0000
407F00
006000
006000
006000
007E00
007F00
000380
000180
000180
000180
008380
00FF00
00FE00
ENDCHAR
STARTCHAR char8535
ENCODING 8535
SWIDTH 24 0
DWIDTH 19 0
BBX 17 31 0 -4
BITMAP
1F0000
7F8000
41C000
00C000
00C000
01C000
0F0000
0F8000
01C000
00C000
00C000
41C000
7F8000
3F0180
001F80
01FC00
1FC000
FC0000
407F00
006000
006000
006000
007E00
007F00
000380
000180
000180
000180
008380
00FF00
00FE00
ENDCHAR
STARTCHAR char8536
ENCODING 8536
SWIDTH 24 0
DWIDTH 19 0
BBX 17 30 0 -4
BITMAP
070000
070000
0F0000
1B0000
130000
330000
630000
C30000
FFC000
FFC000
030000
030000
030180
001F80
01FC00
1FC000
FC0000
407F00
006000
006000
006000
007E00
007F00
000380
000180
000180
000180
008380
00FF00
00FE00
ENDCHAR
STARTCHAR char8537
ENCODING 8537
SWIDTH 24 0
DWIDTH 19 0
BBX 18 30 0 -4
BITMAP
7E0000
7E0000
060000
060000
060000
060000
060000
060000
060000
060000
060000
3FC000
3FC180
001F80
01FC00
1FC000
FE0000
601F80
003080
006000
004000
00DF00
00F380
00E180
00E0C0
00C0C0
0040C0
006180
007180
003F00
ENDCHAR
STARTCHAR char8538
ENCODING 8538
SWIDTH 24 0
DWIDTH 19 0
BBX 18 31 0 -4
BITMAP
3F8000
3F8000
200000
200000
200000
3E0000
238000
018000
00C000
00C000
00C000
00C000
418000
7F0080
000F80
00FE00
0FE000
FE0000
601F80
003080
006000
004000
00DF00
00F380
00E180
00E0C0
00C0C0
0040C0
006180
007180
003F00
ENDCHAR
STARTCHAR char8539
ENCODING 8539
SWIDTH 24 0
DWIDTH 19 0
BBX 17 30 0 -4
BITMAP
7E0000
7E0000
060000
060000
060000
060000
060000
060000
060000
060000
060000
3FC000
3FC180
001F80
01FC00
1FE000
FE0000
603E00
007380
00C180
00C180
006180
001E00
006300
00C180
00C180
00C180
00C180
006380
003F00
ENDCHAR
STARTCHAR char8540
ENCODING 8540
SWIDTH 24 0
DWIDTH 19 0
BBX 17 31 0 -4
BITMAP
1F0000
7F8000
41C000
00C000
00C000
01C000
0F0000
0F8000
01C000
00C000
00C000
41C000
7F8000
3F0180
001F80
01FC00
1FC000
FE0000
603E00
007380
00C180
00C180
006180
001E00
006300
00C180
00C180
00C180
00C180
006380
003F00
ENDCHAR
STARTCHAR char8541
ENCODING 8541
SWIDTH 24 0
DWIDTH 19 0
BBX 17 31 0 -4
BITMAP
3F8000
3F8000
200000
200000
200000
3E0000
238000
018000
00C000
00C000
00C000
00C000
418000
7F0080
000F80
00FE00
0FE000
FE0000
603E00
007380
00C180
00C180
006180
001E00
006300
00C180
00C180
00C180
00C180
006380
003F00
ENDCHAR
STARTCHAR char8542
ENCODING 8542
SWIDTH 24 0
DWIDTH 19 0
BBX 17 31 0 -4
BITMAP
7FC000
7FC000
008000
018000
018000
030000
030000
020000
060000
060000
0C0000
0C0000
180000
180080
000F80
00FE00
0FE000
FE0000
603E00
007380
00C180
00C180
006180
001E00
006300
00C180
00C180
00C180
00C180
006380
003F00
ENDCHAR
STARTCHAR char8543
ENCODING 8543
SWIDTH 24 0
DWIDTH 19 0
BBX 17 18 0 8
BITMAP
3E0000
7E0000
460000
060000
060000
060000
060000
060000
060000
060000
060000
3FC000
3FC080
000F80
00FE00
0FE000
FE0000
600000
ENDCHAR
STARTCHAR char8592
ENCODING 8592
SWIDTH 24 0
DWIDTH 19 0
BBX 18 10 1 6
BITMAP
080000
1C0000
380000
700000
FFFFC0
FFFFC0
700000
380000
1C0000
080000
ENDCHAR
STARTCHAR char8593
ENCODING 8593
SWIDTH 24 0
DWIDTH 19 0
BBX 11 18 4 0
BITMAP
0600
0F00
1F80
3FC0
FEE0
6E40
0E00
0E00
0E00
0E00
0E00
0E00
0E00
0E00
0E00
0E00
0E00
0E00
ENDCHAR
STARTCHAR char8594
ENCODING 8594
SWIDTH 24 0
DWIDTH 19 0
BBX 18 10 0 6
BITMAP
000600
000F00
000380
0001C0
FFFFC0
FFFFC0
000380
000700
000E00
000400
ENDCHAR
STARTCHAR char8595
ENCODING 8595
SWIDTH 24 0
DWIDTH 19 0
BBX 11 18 4 0
BITMAP
0E00
0E00
0E00
0E00
0E00
0E00
0E00
0E00
0E00
0E00
0E00
0E00
4E40
EEE0
3FC0
1F80
0F00
0600
ENDCHAR
STARTCHAR char8596
ENCODING 8596
SWIDTH 24 0
DWIDTH 19 0
BBX 17 10 1 4
BITMAP
080C00
1C1E00
380700
700380
FFFF80
FFFF80
700700
380E00
1C1C00
080800
ENDCHAR
STARTCHAR char8597
ENCODING 8597
SWIDTH 24 0
DWIDTH 19 0
BBX 11 18 4 0
BITMAP
0600
0F00
1F80
3FC0
FEE0
6E40
0E00
0E00
0E00
0E00
0E00
0E00
4E40
EEE0
3FC0
1F80
0F00
0600
ENDCHAR
STARTCHAR char8598
ENCODING 8598
SWIDTH 24 0
DWIDTH 19 0
BBX 13 14 3 0
BITMAP
FE00
FE00
F000
F800
FC00
DE00
CF00
0780
03C0
01E0
00F0
0078
0038
0010
ENDCHAR
STARTCHAR char8599
ENCODING 8599
SWIDTH 24 0
DWIDTH 19 0
BBX 13 14 3 0
BITMAP
03F8
03F8
0078
00F8
01F8
03D8
0798
0F00
1E00
3C00
7800
F000
6000
4000
ENDCHAR
STARTCHAR char8600
ENCODING 8600
SWIDTH 24 0
DWIDTH 19 0
BBX 13 14 3 0
BITMAP
4000
E000
F000
7800
3C00
1E00
0F18
0798
03D8
01F8
00F8
0078
03F8
03F8
ENDCHAR
STARTCHAR char8601
ENCODING 8601
SWIDTH 24 0
DWIDTH 19 0
BBX 13 14 3 0
BITMAP
0010
0038
0078
00F0
01E0
03C0
C780
CF00
DE00
FC00
F800
F000
FE00
FE00
ENDCHAR
STARTCHAR char8602
ENCODING 8602
SWIDTH 24 0
DWIDTH 19 0
BBX 17 10 1 4
BITMAP
080700
1C0E00
380E00
701C00
FFFF80
FFFF80
707000
387000
1CE000
084000
ENDCHAR
STARTCHAR char8603
ENCODING 8603
SWIDTH 24 0
DWIDTH 19 0
BBX 17 10 1 4
BITMAP
018C00
039E00
070700
070380
FFFF80
FFFF80
1C0700
380E00
381C00
100800
ENDCHAR
STARTCHAR char8604
ENCODING 8604
SWIDTH 24 0
DWIDTH 19 0
BBX 17 7 1 6
BITMAP
7F1E00
FF3F00
F07380
F86100
DFC000
CFC000
C78000
ENDCHAR
STARTCHAR char8605
ENCODING 8605
SWIDTH 24 0
DWIDTH 19 0
BBX 17 7 1 6
BITMAP
3E3F80
7F3F80
E30780
438F80
01DD80
01F980
007180
ENDCHAR
STARTCHAR char8606
ENCODING 8606
SWIDTH 24 0
DWIDTH 19 0
BBX 17 10 1 4
BITMAP
086000
1CE000
39C000
738000
FFFF80
FFFF80
738000
39C000
1CE000
084000
ENDCHAR
STARTCHAR char8607
ENCODING 8607
SWIDTH 24 0
DWIDTH 19 0
BBX 11 18 4 0
BITMAP
0600
0F00
1F80
3FC0
FEE0
6E40
0E00
1F00
3F80
7FC0
EEE0
4E40
0E00
0E00
0E00
0E00
0E00
0E00
ENDCHAR
STARTCHAR char8608
ENCODING 8608
SWIDTH 24 0
DWIDTH 19 0
BBX 17 10 1 4
BITMAP
010C00
039E00
00C700
006380
FFFF80
FFFF80
00E700
01CE00
039C00
010800
ENDCHAR
STARTCHAR char8609
ENCODING 8609
SWIDTH 24 0
DWIDTH 19 0
BBX 11 18 4 0
BITMAP
0E00
0E00
0E00
0E00
0E00
0E00
4E40
EEE0
7FC0
3F80
1F00
0E00
4E40
EEE0
3FC0
1F80
0F00
0600
ENDCHAR
STARTCHAR char8610
ENCODING 8610
SWIDTH 24 0
DWIDTH 19 0
BBX 17 10 1 4
BITMAP
080180
1C0380
380700
700E00
FFFC00
FFFC00
700E00
380700
1C0380
080100
ENDCHAR
STARTCHAR char8611
ENCODING 8611
SWIDTH 24 0
DWIDTH 19 0
BBX 17 10 1 4
BITMAP
400C00
E01E00
700700
380380
0FFF80
1FFF80
380700
700E00
E01C00
400800
ENDCHAR
STARTCHAR char8612
ENCODING 8612
SWIDTH 24 0
DWIDTH 19 0
BBX 17 10 1 4
BITMAP
080180
1C0180
380180
700180
FFFF80
FFFF80
700180
380180
1C0180
080180
ENDCHAR
STARTCHAR char8613
ENCODING 8613
SWIDTH 24 0
DWIDTH 19 0
BBX 11 18 4 0
BITMAP
0600
0F00
1F80
3FC0
FEE0
6E40
0E00
0E00
0E00
0E00
0E00
0E00
0E00
0E00
0E00
FFE0
FFE0
FFE0
ENDCHAR
STARTCHAR char8614
ENCODING 8614
SWIDTH 24 0
DWIDTH 19 0
BBX 17 10 1 4
BITMAP
E00800
E01C00
E00600
E00300
FFFF80
FFFF80
E00700
E00E00
E01C00
E00800
ENDCHAR
STARTCHAR char8615
ENCODING 8615
SWIDTH 24 0
DWIDTH 19 0
BBX 11 18 4 0
BITMAP
FFE0
FFE0
0E00
0E00
0E00
0E00
0E00
0E00
0E00
0E00
0E00
0E00
6E40
EEE0
3FC0
1F80
0F00
0600
ENDCHAR
STARTCHAR char8616
ENCODING 8616
SWIDTH 24 0
DWIDTH 19 0
BBX 11 18 4 0
BITMAP
0600
0F00
1F80
3FC0
FEE0
6E40
0E00
0E00
0E00
0E00
4E40
EEE0
3FC0
3F80
1F00
FFE0
FFE0
FFE0
ENDCHAR
STARTCHAR char8617
ENCODING 8617
SWIDTH 24 0
DWIDTH 19 0
BBX 17 13 1 4
BITMAP
000600
000700
000780
0C0380
180180
380380
700780
FFFF00
FFFE00
700000
380000
1C0000
080000
ENDCHAR
STARTCHAR char8618
ENCODING 8618
SWIDTH 24 0
DWIDTH 19 0
BBX 17 13 1 4
BITMAP
380000
780000
F00000
E01C00
E00E00
E00700
F00380
7FFF80
3FFF80
000700
000E00
001C00
000800
ENDCHAR
STARTCHAR char8619
ENCODING 8619
SWIDTH 24 0
DWIDTH 19 0
BBX 17 13 1 4
BITMAP
001E00
007F00
007780
0CE380
18E180
38E380
70E780
FFFF00
FFFE00
70E000
38E000
1CE000
080000
ENDCHAR
STARTCHAR char8620
ENCODING 8620
SWIDTH 24 0
DWIDTH 19 0
BBX 17 13 1 4
BITMAP
1E0000
7F0000
F78000
E39C00
E38E00
E38700
F38380
7FFF80
3FFF80
038700
038E00
039C00
000800
ENDCHAR
STARTCHAR char8621
ENCODING 8621
SWIDTH 24 0
DWIDTH 19 0
BBX 17 11 1 3
BITMAP
080800
1C1C00
388E00
71C700
F9E780
FF6F80
FF3F80
763F00
380E00
1C1C00
080800
ENDCHAR
STARTCHAR char8622
ENCODING 8622
SWIDTH 24 0
DWIDTH 19 0
BBX 17 11 1 4
BITMAP
008000
08EC00
1CDE00
38C700
70C380
FFFF80
FFFF80
718700
398E00
1D9C00
0B8800
ENDCHAR
STARTCHAR char8623
ENCODING 8623
SWIDTH 24 0
DWIDTH 19 0
BBX 15 22 2 0
BITMAP
3800
3000
3004
701C
703C
70FC
73FC
67D8
7F18
FE38
F838
E038
C030
8030
0030
0270
0770
0376
01EE
01FC
00F0
0060
ENDCHAR
STARTCHAR char8624
ENCODING 8624
SWIDTH 24 0
DWIDTH 19 0
BBX 13 22 3 0
BITMAP
0800
1C00
3800
7000
FFF8
FFF8
E018
7018
3818
1C18
0818
0018
0018
0018
0018
0018
0018
0018
0018
0018
0018
0018
ENDCHAR
STARTCHAR char8625
ENCODING 8625
SWIDTH 24 0
DWIDTH 19 0
BBX 13 22 3 0
BITMAP
0080
01C0
00E0
0070
FFF8
FFF8
C038
C070
C0E0
C1C0
C080
C000
C000
C000
C000
C000
C000
C000
C000
C000
C000
C000
ENDCHAR
STARTCHAR char8626
ENCODING 8626
SWIDTH 24 0
DWIDTH 19 0
BBX 13 22 3 0
BITMAP
0018
0018
0018
0018
0018
0018
0018
0018
0018
0018
0018
0018
1818
1C18
3018
6018
FFF8
FFF8
7000
3800
1C00
0800
ENDCHAR
STARTCHAR char8627
ENCODING 8627
SWIDTH 24 0
DWIDTH 19 0
BBX 13 22 3 0
BITMAP
C000
C000
C000
C000
C000
C000
C000
C000
C000
C000
C000
C000
C0C0
C1E0
C070
C038
FFF8
FFF8
0070
00E0
01C0
0080
ENDCHAR
STARTCHAR char8628
ENCODING 8628
SWIDTH 24 0
DWIDTH 19 0
BBX 13 18 3 0
BITMAP
FF80
FF80
0180
0180
0180
0180
0180
0180
0180
0180
0180
0180
0998
1DB8
0FF0
07E0
03C0
0180
ENDCHAR
STARTCHAR char8629
ENCODING 8629
SWIDTH 24 0
DWIDTH 19 0
BBX 17 14 1 0
BITMAP
000180
000180
000180
000180
080180
1C0180
380180
700180
FFFF80
FFFF80
700000
380000
1C0000
080000
ENDCHAR
STARTCHAR char8630
ENCODING 8630
SWIDTH 24 0
DWIDTH 19 0
BBX 17 10 1 6
BITMAP
01FC00
03FE00
078700
070300
4E4380
EEE180
7FC000
3F8000
1F0000
0E0000
ENDCHAR
STARTCHAR char8631
ENCODING 8631
SWIDTH 24 0
DWIDTH 19 0
BBX 17 10 1 6
BITMAP
1FC000
3FE000
78F000
703000
E0B900
E1BB80
00DF00
007E00
003C00
001800
ENDCHAR
STARTCHAR char8632
ENCODING 8632
SWIDTH 24 0
DWIDTH 19 0
BBX 17 17 1 0
BITMAP
FFFF80
000000
000000
3F8000
3F8000
3C0000
3E0000
3F0000
378000
33C000
01E000
00F000
007800
003C00
001E00
000E00
000400
ENDCHAR
STARTCHAR char8633
ENCODING 8633
SWIDTH 24 0
DWIDTH 19 0
BBX 17 19 1 0
BITMAP
E10000
E78000
EE0000
FC0000
FFFF80
FFFF80
EC0000
E60000
E38000
E16180
007180
003980
001D80
FFFF80
FFFF80
001D80
003980
007180
002180
ENDCHAR
STARTCHAR char8634
ENCODING 8634
SWIDTH 24 0
DWIDTH 19 0
BBX 17 16 1 0
BITMAP
003F80
003F80
003800
203C00
783E00
703700
603700
E03300
E00300
E00700
600700
700600
380E00
3F7C00
0FF800
07E000
ENDCHAR
STARTCHAR char8635
ENCODING 8635
SWIDTH 24 0
DWIDTH 19 0
BBX 17 16 1 0
BITMAP
FE0000
FF0000
0F0000
1F0200
3B0700
3B0700
730380
730380
700380
700380
700380
380700
3C0F00
1FFE00
0FFC00
03F000
ENDCHAR
STARTCHAR char8636
ENCODING 8636
SWIDTH 24 0
DWIDTH 19 0
BBX 17 6 1 8
BITMAP
080000
1C0000
380000
700000
FFFF80
FFFF80
ENDCHAR
STARTCHAR char8637
ENCODING 8637
SWIDTH 24 0
DWIDTH 19 0
BBX 17 6 1 4
BITMAP
FFFF80
FFFF80
700000
380000
1C0000
080000
ENDCHAR
STARTCHAR char8638
ENCODING 8638
SWIDTH 24 0
DWIDTH 19 0
BBX 7 18 8 0
BITMAP
E0
F0
F8
FC
EE
E4
E0
E0
E0
E0
E0
E0
E0
E0
E0
E0
E0
E0
ENDCHAR
STARTCHAR char8639
ENCODING 8639
SWIDTH 24 0
DWIDTH 19 0
BBX 7 18 4 0
BITMAP
06
0E
1E
3E
FE
6E
0E
0E
0E
0E
0E
0E
0E
0E
0E
0E
0E
0E
ENDCHAR
STARTCHAR char8640
ENCODING 8640
SWIDTH 24 0
DWIDTH 19 0
BBX 17 6 1 8
BITMAP
000C00
001E00
000700
000380
FFFF80
FFFF80
ENDCHAR
STARTCHAR char8641
ENCODING 8641
SWIDTH 24 0
DWIDTH 19 0
BBX 17 6 1 4
BITMAP
FFFF80
FFFF80
000700
000E00
001C00
000800
ENDCHAR
STARTCHAR char8642
ENCODING 8642
SWIDTH 24 0
DWIDTH 19 0
BBX 7 18 8 0
BITMAP
E0
E0
E0
E0
E0
E0
E0
E0
E0
E0
E0
E0
E4
EE
FC
F8
F0
E0
ENDCHAR
STARTCHAR char8643
ENCODING 8643
SWIDTH 24 0
DWIDTH 19 0
BBX 7 18 5 0
BITMAP
0E
0E
0E
0E
0E
0E
0E
0E
0E
0E
0E
0E
4E
EE
7E
3E
1E
0E
ENDCHAR
STARTCHAR char8644
ENCODING 8644
SWIDTH 24 0
DWIDTH 19 0
BBX 17 18 1 0
BITMAP
000800
001C00
000E00
000700
FFFF80
FFFF80
000380
000700
080E00
1C1C00
380000
700000
FFFF80
FFFF80
700000
380000
1C0000
080000
ENDCHAR
STARTCHAR char8645
ENCODING 8645
SWIDTH 24 0
DWIDTH 19 0
BBX 18 18 1 0
BITMAP
0C1C00
1E1C00
3F1C00
7F9C00
EDDC00
CC9C00
0C1C00
0C1C00
0C1C00
0C1C00
0C1C00
0C1C00
0C9C80
0DDDC0
0CFF00
0C7E00
0C3E00
0C1C00
ENDCHAR
STARTCHAR char8646
ENCODING 8646
SWIDTH 24 0
DWIDTH 19 0
BBX 17 18 1 0
BITMAP
080000
1C0000
380000
700000
FFFF80
FFFF80
700000
380000
1C0C00
0C1E00
000700
000380
FFFF80
FFFF80
000700
000E00
001C00
000800
ENDCHAR
STARTCHAR char8647
ENCODING 8647
SWIDTH 24 0
DWIDTH 19 0
BBX 17 18 1 0
BITMAP
080000
1C0000
380000
700000
FFFF80
FFFF80
700000
380000
1C0000
1C0000
380000
700000
FFFF80
FFFF80
700000
380000
1C0000
080000
ENDCHAR
STARTCHAR char8648
ENCODING 8648
SWIDTH 24 0
DWIDTH 19 0
BBX 18 18 1 0
BITMAP
0C1C00
1E3C00
3F7E00
7FFF00
EDDFC0
CC9D80
0C1C00
0C1C00
0C1C00
0C1C00
0C1C00
0C1C00
0C1C00
0C1C00
0C1C00
0C1C00
0C1C00
0C1C00
ENDCHAR
STARTCHAR char8649
ENCODING 8649
SWIDTH 24 0
DWIDTH 19 0
BBX 17 18 1 0
BITMAP
000800
001C00
000E00
000700
FFFF80
FFFF80
000380
000700
000E00
001E00
000700
000380
FFFF80
FFFF80
000700
000E00
001C00
000800
ENDCHAR
STARTCHAR char8650
ENCODING 8650
SWIDTH 24 0
DWIDTH 19 0
BBX 18 18 1 0
BITMAP
0C1C00
0C1C00
0C1C00
0C1C00
0C1C00
0C1C00
0C1C00
0C1C00
0C1C00
0C1C00
0C1C00
0C1C00
CC9C80
EDDDC0
7FFF00
3F7E00
1E3E00
0C1C00
ENDCHAR
STARTCHAR char8651
ENCODING 8651
SWIDTH 24 0
DWIDTH 19 0
BBX 17 15 1 1
BITMAP
080000
1C0000
380000
700000
FFFF80
FFFF80
000000
000000
000000
FFFF80
FFFF80
000700
000E00
001C00
000800
ENDCHAR
STARTCHAR char8652
ENCODING 8652
SWIDTH 24 0
DWIDTH 19 0
BBX 17 15 1 1
BITMAP
000C00
001E00
000700
000380
FFFF80
FFFF80
000000
000000
000000
FFFF80
FFFF80
700000
380000
1C0000
080000
ENDCHAR
STARTCHAR char8653
ENCODING 8653
SWIDTH 24 0
DWIDTH 19 0
BBX 17 11 1 3
BITMAP
080800
1C0C00
380C00
7FFF80
E03000
C03000
E06000
7FFF80
38C000
1DC000
088000
ENDCHAR
STARTCHAR char8654
ENCODING 8654
SWIDTH 24 0
DWIDTH 19 0
BBX 17 11 1 3
BITMAP
08E800
1CDC00
38CE00
7FFF00
E1C380
C1C180
E18380
7FFF00
398E00
1F9C00
088800
ENDCHAR
STARTCHAR char8655
ENCODING 8655
SWIDTH 24 0
DWIDTH 19 0
BBX 17 11 1 3
BITMAP
008800
00DC00
018E00
FFFF00
030380
070180
060380
FFFF00
0C0E00
181C00
080800
ENDCHAR
STARTCHAR char8656
ENCODING 8656
SWIDTH 24 0
DWIDTH 19 0
BBX 17 11 1 3
BITMAP
080000
1C0000
380000
7FFF80
E00000
C00000
E00000
7FFF80
380000
1C0000
080000
ENDCHAR
STARTCHAR char8657
ENCODING 8657
SWIDTH 24 0
DWIDTH 19 0
BBX 11 18 4 0
BITMAP
0600
0F00
1F80
39C0
F1E0
7140
1100
1100
1100
1100
1100
1100
1100
1100
1100
1100
1100
1100
ENDCHAR
STARTCHAR char8658
ENCODING 8658
SWIDTH 24 0
DWIDTH 19 0
BBX 17 11 1 3
BITMAP
000800
001C00
000E00
FFFF00
000380
000180
000380
FFFF00
000E00
001C00
000800
ENDCHAR
STARTCHAR char8659
ENCODING 8659
SWIDTH 24 0
DWIDTH 19 0
BBX 11 18 4 0
BITMAP
1100
1100
1100
1100
1100
1100
1100
1100
1100
1100
1100
1100
5140
F1E0
31C0
1B80
0F00
0600
ENDCHAR
STARTCHAR char8660
ENCODING 8660
SWIDTH 24 0
DWIDTH 19 0
BBX 17 11 1 3
BITMAP
080800
1C1C00
380E00
7FFF00
E00380
C00180
E00380
7FFF00
380E00
1C1C00
080800
ENDCHAR
STARTCHAR char8661
ENCODING 8661
SWIDTH 24 0
DWIDTH 19 0
BBX 11 18 4 0
BITMAP
0600
0F00
1F80
39C0
F1E0
7140
1100
1100
1100
1100
1100
1100
5140
F1E0
31C0
1B80
0F00
0600
ENDCHAR
STARTCHAR char8662
ENCODING 8662
SWIDTH 24 0
DWIDTH 19 0
BBX 15 15 2 -1
BITMAP
7F00
FF00
C600
C300
E180
F080
D840
0C20
0610
0308
0186
00C4
0060
0030
0010
ENDCHAR
STARTCHAR char8663
ENCODING 8663
SWIDTH 24 0
DWIDTH 19 0
BBX 15 15 2 -1
BITMAP
01FE
01FE
0066
00C6
018E
031E
0636
0C60
18C0
3180
E300
4600
0C00
1800
0800
ENDCHAR
STARTCHAR char8664
ENCODING 8664
SWIDTH 24 0
DWIDTH 19 0
BBX 15 15 2 0
BITMAP
0800
1800
0C00
4600
E300
3180
18C0
0C66
0636
031E
018E
00C6
0066
01FE
01FC
ENDCHAR
STARTCHAR char8665
ENCODING 8665
SWIDTH 24 0
DWIDTH 19 0
BBX 15 15 2 0
BITMAP
0010
0030
0060
00C4
0186
0308
0610
CC20
D840
F0C0
E180
C300
C600
FF00
7F00
ENDCHAR
STARTCHAR char8666
ENCODING 8666
SWIDTH 24 0
DWIDTH 19 0
BBX 17 10 1 3
BITMAP
080000
1FFF80
300000
600000
FFFF80
E00000
700000
3FFF80
1C0000
080000
ENDCHAR
STARTCHAR char8667
ENCODING 8667
SWIDTH 24 0
DWIDTH 19 0
BBX 17 10 1 3
BITMAP
000C00
FFFE00
000700
000380
FFFF80
000380
000700
FFFE00
000C00
000800
ENDCHAR
STARTCHAR char8668
ENCODING 8668
SWIDTH 24 0
DWIDTH 19 0
BBX 17 10 1 4
BITMAP
080000
1C0000
388400
71CE00
FFFF80
FF7B80
763180
3A1100
1C0000
080000
ENDCHAR
STARTCHAR char8669
ENCODING 8669
SWIDTH 24 0
DWIDTH 19 0
BBX 17 10 1 4
BITMAP
000C00
001E00
108700
39C380
BFFF80
EF7F80
E63700
422E00
001C00
000800
ENDCHAR
STARTCHAR char8672
ENCODING 8672
SWIDTH 24 0
DWIDTH 19 0
BBX 17 10 1 4
BITMAP
080000
1C0000
380000
700000
FF7380
FF7380
700000
380000
1C0000
080000
ENDCHAR
STARTCHAR char8673
ENCODING 8673
SWIDTH 24 0
DWIDTH 19 0
BBX 11 18 4 0
BITMAP
0600
0F00
1F80
3FC0
FEE0
6E40
0E00
0E00
0000
0000
0000
0E00
0E00
0000
0000
0000
0E00
0E00
ENDCHAR
STARTCHAR char8674
ENCODING 8674
SWIDTH 24 0
DWIDTH 19 0
BBX 17 10 1 4
BITMAP
000C00
001E00
000700
000380
E73F80
E73F80
000700
000E00
001C00
000800
ENDCHAR
STARTCHAR char8675
ENCODING 8675
SWIDTH 24 0
DWIDTH 19 0
BBX 11 18 4 0
BITMAP
0E00
0E00
0000
0000
0000
0000
0E00
0E00
0000
0000
0E00
0E00
6E40
FEE0
3FC0
1F80
0F00
0600
ENDCHAR
STARTCHAR char8676
ENCODING 8676
SWIDTH 24 0
DWIDTH 19 0
BBX 17 10 1 4
BITMAP
E10000
E38000
EE0000
FC0000
FFFF80
FFFF80
EE0000
E70000
E38000
E10000
ENDCHAR
STARTCHAR char8677
ENCODING 8677
SWIDTH 24 0
DWIDTH 19 0
BBX 17 10 1 4
BITMAP
002180
007180
003980
001D80
FFFF80
FFFF80
001D80
003980
007180
002180
ENDCHAR
STARTCHAR char8678
ENCODING 8678
SWIDTH 24 0
DWIDTH 19 0
BBX 18 11 0 3
BITMAP
040000
040000
0C0000
17FFC0
600040
C00040
600040
37FFC0
1C0000
0C0000
040000
ENDCHAR
STARTCHAR char8679
ENCODING 8679
SWIDTH 24 0
DWIDTH 19 0
BBX 11 18 4 0
BITMAP
0400
0600
1B00
3180
60C0
F1E0
1100
1100
1100
1100
1100
1100
1100
1100
1100
1100
1100
1F00
ENDCHAR
STARTCHAR char8680
ENCODING 8680
SWIDTH 24 0
DWIDTH 19 0
BBX 18 11 1 3
BITMAP
000800
000C00
000E00
FFFB00
800180
8000C0
800180
FFFB00
000E00
000C00
000800
ENDCHAR
STARTCHAR char8681
ENCODING 8681
SWIDTH 24 0
DWIDTH 19 0
BBX 11 18 4 0
BITMAP
1F00
1100
1100
1100
1100
1100
1100
1100
1100
1100
1100
1100
F1E0
60C0
3180
1B00
0E00
0400
ENDCHAR
STARTCHAR char8683
ENCODING 8683
SWIDTH 24 0
DWIDTH 19 0
BBX 11 18 4 0
BITMAP
0400
0600
1B00
3180
60C0
F1E0
1100
1100
1100
1100
1100
1100
1100
1100
F1E0
8020
8020
FFE0
ENDCHAR
STARTCHAR char8684
ENCODING 8684
SWIDTH 24 0
DWIDTH 19 0
BBX 11 18 4 0
BITMAP
0400
0E00
1B00
3F80
60C0
F1E0
1100
1100
1100
1100
1100
1100
1100
1100
F1E0
8020
8020
FFE0
ENDCHAR
STARTCHAR char8685
ENCODING 8685
SWIDTH 24 0
DWIDTH 19 0
BBX 11 18 4 0
BITMAP
0400
0600
1F00
3580
64C0
F5E0
1500
1500
1500
1500
1500
1500
1500
1500
F5E0
8420
8420
FFE0
ENDCHAR
STARTCHAR char8686
ENCODING 8686
SWIDTH 24 0
DWIDTH 19 0
BBX 11 18 4 0
BITMAP
0400
0600
1B00
3180
66C0
FBE0
1180
20C0
F1E0
1100
1100
1100
1100
1100
1100
1100
1100
1F00
ENDCHAR
STARTCHAR char8687
ENCODING 8687
SWIDTH 24 0
DWIDTH 19 0
BBX 11 18 4 0
BITMAP
0400
0600
1B00
3180
66C0
FBE0
1180
20C0
F1E0
1100
1100
1100
1100
1100
F1E0
8020
8020
FFE0
ENDCHAR
STARTCHAR char8688
ENCODING 8688
SWIDTH 24 0
DWIDTH 19 0
BBX 18 12 1 3
BITMAP
F00800
900800
900C00
900E00
9FFB00
800180
8000C0
800180
9FFB00
900E00
900C00
F00800
ENDCHAR
STARTCHAR char8689
ENCODING 8689
SWIDTH 24 0
DWIDTH 19 0
BBX 17 18 1 0
BITMAP
FFFF80
800000
800000
800000
8FE000
8FE000
8F0000
8F8000
8FC000
8DE000
8CF000
8C7800
803C00
801E00
800F00
800780
800380
800100
ENDCHAR
STARTCHAR char8690
ENCODING 8690
SWIDTH 24 0
DWIDTH 19 0
BBX 17 18 1 0
BITMAP
400080
E00080
700080
380080
1C0080
0E0080
070C80
078C80
03CC80
01EC80
00FC80
007C80
03FC80
03F880
000080
000080
000080
FFFF80
ENDCHAR
STARTCHAR char8691
ENCODING 8691
SWIDTH 24 0
DWIDTH 19 0
BBX 11 18 4 0
BITMAP
0400
0600
1B00
3180
60C0
F1E0
1100
1100
1100
1100
1100
1100
F1E0
60C0
3180
1B00
0E00
0400
ENDCHAR
STARTCHAR char8692
ENCODING 8692
SWIDTH 24 0
DWIDTH 19 0
BBX 17 11 1 3
BITMAP
000800
0F1C00
1F8E00
31C700
30C380
FFFF80
FFFF80
30C700
3F8E00
0F1C00
000800
ENDCHAR
STARTCHAR char8693
ENCODING 8693
SWIDTH 24 0
DWIDTH 19 0
BBX 18 18 1 0
BITMAP
0C1C00
0C3C00
0C7E00
0C7F00
0DDFC0
0C9D80
0C1C00
0C1C00
0C1C00
0C1C00
0C1C00
0C1C00
CC9C00
EDDC00
7F9C00
3F1C00
1E1C00
0C1C00
ENDCHAR
ENDFONT
